LibertinusSerif-Bold.ufo
<glyph name="numbersign" format="2">
	<unicode hex="0023"/>
	<advance width="514"/>
	<outline>
		<contour>
			<point x="359" y="360" type="line"/>
			<point x="477" y="360" type="line"/>
			<point x="486" y="426" type="line"/>
			<point x="369" y="426" type="line"/>
			<point x="396" y="599" type="line"/>
			<point x="344" y="599" type="line"/>
			<point x="334" y="541"/>
			<point x="326" y="484"/>
			<point x="316" y="426" type="curve"/>
			<point x="219" y="426" type="line"/>
			<point x="249" y="599" type="line"/>
			<point x="193" y="599" type="line"/>
			<point x="183" y="541"/>
			<point x="174" y="484"/>
			<point x="164" y="426" type="curve"/>
			<point x="64" y="426" type="line"/>
			<point x="55" y="360" type="line"/>
			<point x="155" y="360" type="line"/>
			<point x="150" y="323"/>
			<point x="144" y="290"/>
			<point x="138" y="253" type="curve"/>
			<point x="38" y="253" type="line"/>
			<point x="29" y="187" type="line"/>
			<point x="128" y="187" type="line"/>
			<point x="100" y="14" type="line"/>
			<point x="155" y="14" type="line"/>
			<point x="166" y="72"/>
			<point x="174" y="127"/>
			<point x="185" y="187" type="curve"/>
			<point x="281" y="187" type="line"/>
			<point x="252" y="14" type="line"/>
			<point x="305" y="14" type="line"/>
			<point x="315" y="72"/>
			<point x="323" y="127"/>
			<point x="333" y="187" type="curve"/>
			<point x="452" y="187" type="line"/>
			<point x="460" y="253" type="line"/>
			<point x="342" y="253" type="line"/>
		</contour>
		<contour>
			<point x="289" y="253" type="line"/>
			<point x="193" y="253" type="line"/>
			<point x="199" y="290"/>
			<point x="206" y="323"/>
			<point x="212" y="360" type="curve"/>
			<point x="306" y="360" type="line"/>
		</contour>
	</outline>
</glyph>
<glyph name="one" format="2">
	<unicode hex="0031"/>
	<advance width="514"/>
	<outline>
		<contour>
			<point x="367" y="122" type="curve" smooth="yes"/>
			<point x="367" y="483" type="line" smooth="yes"/>
			<point x="367" y="536"/>
			<point x="375" y="593"/>
			<point x="375" y="593" type="curve"/>
			<point x="375" y="606"/>
			<point x="367" y="610"/>
			<point x="358" y="610" type="curve" smooth="yes"/>
			<point x="348" y="610"/>
			<point x="331" y="606"/>
			<point x="308" y="595" type="curve" smooth="yes"/>
			<point x="247" y="567"/>
			<point x="179" y="543"/>
			<point x="92" y="507" type="curve"/>
			<point x="93" y="490"/>
			<point x="100" y="474"/>
			<point x="114" y="464" type="curve"/>
			<point x="168" y="487"/>
			<point x="204" y="489"/>
			<point x="218" y="489" type="curve" smooth="yes"/>
			<point x="231" y="489"/>
			<point x="237" y="485"/>
			<point x="237" y="435" type="curve" smooth="yes"/>
			<point x="237" y="122" type="line" smooth="yes"/>
			<point x="237" y="39"/>
			<point x="189" y="35"/>
			<point x="134" y="32" type="curve"/>
			<point x="124" y="26"/>
			<point x="124" y="4"/>
			<point x="134" y="-2" type="curve"/>
			<point x="216" y="-1"/>
			<point x="263" y="0"/>
			<point x="303" y="0" type="curve" smooth="yes"/>
			<point x="343" y="0"/>
			<point x="388" y="-1"/>
			<point x="470" y="-2" type="curve"/>
			<point x="480" y="4"/>
			<point x="480" y="26"/>
			<point x="470" y="32" type="curve"/>
			<point x="415" y="35"/>
			<point x="367" y="39"/>
		</contour>
	</outline>
</glyph>
<glyph name="two" format="2">
	<unicode hex="0032"/>
	<advance width="514"/>
	<outline>
		<contour>
			<point x="50" y="454" type="curve" smooth="yes"/>
			<point x="50" y="434"/>
			<point x="65" y="411"/>
			<point x="89" y="403" type="curve" smooth="yes"/>
			<point x="95" y="401"/>
			<point x="102" y="400"/>
			<point x="109" y="400" type="curve" smooth="yes"/>
			<point x="138" y="400"/>
			<point x="167" y="422"/>
			<point x="167" y="453" type="curve" smooth="yes"/>
			<point x="167" y="458"/>
			<point x="165" y="465"/>
			<point x="162" y="474" type="curve"/>
			<point x="159" y="481"/>
			<point name=".hr01" x="156" y="489"/>
			<point x="156" y="500" type="curve" smooth="yes"/>
			<point x="156" y="523"/>
			<point x="191" y="569"/>
			<point x="239" y="569" type="curve" smooth="yes"/>
			<point x="290" y="569"/>
			<point x="325" y="506"/>
			<point x="325" y="446" type="curve" smooth="yes"/>
			<point x="325" y="379"/>
			<point x="321" y="336"/>
			<point x="268" y="286" type="curve" smooth="yes"/>
			<point x="183" y="205" type="line"/>
			<point x="183" y="205" type="line"/>
			<point x="59" y="87"/>
			<point x="42" y="59"/>
			<point x="39" y="32" type="curve"/>
			<point x="40" y="21"/>
			<point x="42" y="11"/>
			<point name=".hr02" x="43" y="0" type="curve"/>
			<point x="75" y="0"/>
			<point x="107" y="0"/>
			<point x="140" y="0" type="curve" smooth="yes"/>
			<point x="333" y="0" type="line" smooth="yes"/>
			<point x="365" y="0"/>
			<point x="397" y="0"/>
			<point x="429" y="0" type="curve"/>
			<point x="441" y="38"/>
			<point x="453" y="107"/>
			<point x="460" y="164" type="curve"/>
			<point x="447" y="170"/>
			<point x="438" y="174"/>
			<point x="415" y="174" type="curve"/>
			<point x="396" y="115"/>
			<point x="371" y="86"/>
			<point x="335" y="80" type="curve"/>
			<point x="330" y="79"/>
			<point x="325" y="79"/>
			<point x="319" y="79" type="curve" smooth="yes"/>
			<point x="189" y="79" type="line"/>
			<point x="192" y="111"/>
			<point x="202" y="138"/>
			<point x="235" y="168" type="curve"/>
			<point x="235" y="168"/>
			<point x="235" y="168"/>
			<point x="235" y="168" type="curve"/>
			<point x="294" y="222" type="line" smooth="yes"/>
			<point x="318" y="244"/>
			<point x="338" y="263"/>
			<point x="356" y="279" type="curve" smooth="yes"/>
			<point x="427" y="344"/>
			<point x="453" y="375"/>
			<point x="453" y="449" type="curve" smooth="yes"/>
			<point x="453" y="553"/>
			<point x="365" y="610"/>
			<point x="262" y="610" type="curve" smooth="yes"/>
			<point x="119" y="610"/>
			<point name=".hr03" x="50" y="516"/>
		</contour>
	</outline>
</glyph>
<glyph name="three" format="2">
	<unicode hex="0033"/>
	<advance width="514"/>
	<outline>
		<contour>
			<point x="248" y="568" type="curve" smooth="yes"/>
			<point x="290" y="568"/>
			<point x="311" y="544"/>
			<point x="311" y="497" type="curve" smooth="yes"/>
			<point x="311" y="421"/>
			<point x="250" y="360"/>
			<point x="158" y="339" type="curve"/>
			<point x="165" y="299" type="line"/>
			<point x="186" y="305"/>
			<point x="198" y="307"/>
			<point x="213" y="307" type="curve" smooth="yes"/>
			<point x="265" y="307"/>
			<point name=".hr01" x="338" y="292"/>
			<point x="338" y="172" type="curve" smooth="yes"/>
			<point x="338" y="57"/>
			<point x="270" y="32"/>
			<point x="233" y="32" type="curve" smooth="yes"/>
			<point x="194" y="32"/>
			<point x="173" y="57"/>
			<point x="160" y="74" type="curve" smooth="yes"/>
			<point x="149" y="89"/>
			<point x="132" y="111"/>
			<point x="95" y="111" type="curve" smooth="yes"/>
			<point x="64" y="111"/>
			<point x="46" y="85"/>
			<point x="46" y="68" type="curve" smooth="yes"/>
			<point x="46" y="47"/>
			<point x="57" y="32"/>
			<point x="79" y="21" type="curve" smooth="yes"/>
			<point x="115" y="3"/>
			<point x="168" y="-10"/>
			<point x="217" y="-10" type="curve" smooth="yes"/>
			<point x="335" y="-10"/>
			<point x="467" y="83"/>
			<point x="467" y="222" type="curve" smooth="yes"/>
			<point x="467" y="294"/>
			<point x="420" y="357"/>
			<point x="336" y="363" type="curve"/>
			<point x="380" y="385"/>
			<point name=".hr02" x="429" y="438"/>
			<point x="429" y="499" type="curve" smooth="yes"/>
			<point x="429" y="543"/>
			<point x="405" y="610"/>
			<point x="267" y="610" type="curve" smooth="yes"/>
			<point x="163" y="610"/>
			<point x="121" y="575"/>
			<point x="89" y="546" type="curve" smooth="yes"/>
			<point x="67" y="526"/>
			<point x="61" y="499"/>
			<point x="61" y="486" type="curve" smooth="yes"/>
			<point x="61" y="472"/>
			<point x="66" y="449"/>
			<point x="99" y="449" type="curve" smooth="yes"/>
			<point x="143" y="449"/>
			<point x="155" y="472"/>
			<point x="161" y="504" type="curve" smooth="yes"/>
			<point x="172" y="565"/>
			<point x="214" y="568"/>
		</contour>
	</outline>
</glyph>
<glyph name="colon" format="2">
	<unicode hex="003A"/>
	<advance width="256"/>
	<outline>
		<contour>
			<point x="60" y="60" type="curve" smooth="yes"/>
			<point x="60" y="22"/>
			<point x="92" y="-8"/>
			<point x="132" y="-8" type="curve" smooth="yes"/>
			<point x="172" y="-8"/>
			<point x="206" y="24"/>
			<point x="206" y="62" type="curve" smooth="yes"/>
			<point x="206" y="101"/>
			<point x="174" y="131"/>
			<point x="134" y="131" type="curve" smooth="yes"/>
			<point x="94" y="131"/>
			<point x="60" y="99"/>
		</contour>
		<contour>
			<point x="60" y="358" type="curve" smooth="yes"/>
			<point x="60" y="320"/>
			<point x="92" y="290"/>
			<point x="132" y="290" type="curve" smooth="yes"/>
			<point x="172" y="290"/>
			<point x="206" y="322"/>
			<point x="206" y="360" type="curve" smooth="yes"/>
			<point x="206" y="399"/>
			<point x="174" y="429"/>
			<point x="134" y="429" type="curve" smooth="yes"/>
			<point x="94" y="429"/>
			<point x="60" y="397"/>
		</contour>
	</outline>
</glyph>
<glyph name="semicolon" format="2">
	<unicode hex="003B"/>
	<advance width="256"/>
	<outline>
		<contour>
			<point x="123" y="127" type="curve" smooth="yes"/>
			<point x="97" y="127"/>
			<point x="60" y="87"/>
			<point x="60" y="64" type="curve" smooth="yes"/>
			<point x="60" y="39"/>
			<point x="81" y="11"/>
			<point x="100" y="6" type="curve"/>
			<point x="103" y="5"/>
			<point x="106" y="5"/>
			<point x="109" y="4" type="curve"/>
			<point x="121" y="-1"/>
			<point name=".hr01" x="136" y="-9"/>
			<point x="136" y="-27" type="curve"/>
			<point x="136" y="-27"/>
			<point x="136" y="-27"/>
			<point x="136" y="-27" type="curve"/>
			<point x="136" y="-53"/>
			<point x="85" y="-124"/>
			<point x="40" y="-136" type="curve"/>
			<point x="35" y="-149"/>
			<point x="36" y="-159"/>
			<point x="47" y="-167" type="curve"/>
			<point x="84" y="-161"/>
			<point x="128" y="-136"/>
			<point x="156" y="-108" type="curve" smooth="yes"/>
			<point x="184" y="-80"/>
			<point x="210" y="-31"/>
			<point x="210" y="4" type="curve" smooth="yes"/>
			<point x="210" y="86"/>
			<point x="177" y="127"/>
		</contour>
		<contour>
			<point x="60" y="363" type="curve" smooth="yes"/>
			<point name=".hr02" x="60" y="325"/>
			<point x="92" y="295"/>
			<point x="132" y="295" type="curve" smooth="yes"/>
			<point x="172" y="295"/>
			<point x="206" y="327"/>
			<point x="206" y="365" type="curve" smooth="yes"/>
			<point x="206" y="404"/>
			<point x="174" y="434"/>
			<point x="134" y="434" type="curve" smooth="yes"/>
			<point x="94" y="434"/>
			<point x="60" y="402"/>
		</contour>
	</outline>
</glyph>
<glyph name="greater" format="2">
	<unicode hex="003E"/>
	<advance width="512"/>
	<outline>
		<contour>
			<point x="359" y="238" type="line"/>
			<point x="42" y="122" type="line"/>
			<point x="42" y="111.642"/>
			<point x="42" y="68.2582"/>
			<point x="42" y="60" type="curve"/>
			<point x="471" y="215" type="line"/>
			<point x="471" y="223.402"/>
			<point x="471" y="251.359"/>
			<point x="471" y="259" type="curve"/>
			<point x="42" y="416" type="line"/>
			<point x="42" y="407.742"/>
			<point x="42" y="364.358"/>
			<point x="42" y="354" type="curve"/>
		</contour>
	</outline>
</glyph>
<glyph name="at" format="2">
	<unicode hex="0040"/>
	<advance width="988"/>
	<outline>
		<contour>
			<point x="640" y="80" type="curve" smooth="yes"/>
			<point x="640" y="91"/>
			<point x="647" y="120"/>
			<point x="653" y="146" type="curve" smooth="yes"/>
			<point x="712" y="399" type="line"/>
			<point x="699" y="405" type="line"/>
			<point x="685" y="410" type="line"/>
			<point x="648" y="377" type="line"/>
			<point x="631" y="398"/>
			<point x="602" y="415"/>
			<point x="554" y="415" type="curve" smooth="yes"/>
			<point x="439" y="415"/>
			<point x="297" y="286"/>
			<point x="297" y="158" type="curve" smooth="yes"/>
			<point x="297" y="122"/>
			<point x="307" y="79"/>
			<point x="336" y="54" type="curve" smooth="yes"/>
			<point x="358" y="35"/>
			<point x="388" y="26"/>
			<point x="434" y="26" type="curve" smooth="yes"/>
			<point x="458" y="26"/>
			<point x="507" y="44"/>
			<point x="540" y="86" type="curve"/>
			<point x="540" y="86" type="line"/>
			<point x="540" y="67"/>
			<point x="545" y="53"/>
			<point x="560" y="39" type="curve" smooth="yes"/>
			<point x="569" y="31"/>
			<point x="586" y="27"/>
			<point name=".hr01" x="606" y="25" type="curve" smooth="yes"/>
			<point x="617" y="24"/>
			<point x="627" y="24"/>
			<point x="638" y="24" type="curve" smooth="yes"/>
			<point x="772" y="24"/>
			<point x="890" y="147"/>
			<point x="890" y="287" type="curve" smooth="yes"/>
			<point x="890" y="476"/>
			<point x="739" y="621"/>
			<point x="513" y="621" type="curve" smooth="yes"/>
			<point x="260" y="621"/>
			<point x="92" y="428"/>
			<point x="92" y="221" type="curve" smooth="yes"/>
			<point x="92" y="-7"/>
			<point x="265" y="-160"/>
			<point x="502" y="-160" type="curve" smooth="yes"/>
			<point x="625" y="-160"/>
			<point x="688" y="-124"/>
			<point x="752" y="-75" type="curve"/>
			<point x="731" y="-46" type="line"/>
			<point x="669" y="-97"/>
			<point x="598" y="-121"/>
			<point x="521" y="-121" type="curve" smooth="yes"/>
			<point x="277" y="-121"/>
			<point x="186" y="80"/>
			<point x="186" y="228" type="curve" smooth="yes"/>
			<point x="186" y="459"/>
			<point x="349" y="584"/>
			<point x="504" y="584" type="curve" smooth="yes"/>
			<point x="621" y="584"/>
			<point x="805" y="494"/>
			<point x="805" y="273" type="curve" smooth="yes"/>
			<point x="805" y="129"/>
			<point x="695" y="66"/>
			<point x="658" y="66" type="curve" smooth="yes"/>
			<point x="647" y="66"/>
			<point x="640" y="67"/>
		</contour>
		<contour>
			<point x="586" y="320" type="curve" smooth="yes"/>
			<point x="586" y="298"/>
			<point x="571" y="240"/>
			<point x="560" y="204" type="curve"/>
			<point x="559" y="200"/>
			<point x="558" y="196"/>
			<point x="557" y="193" type="curve" smooth="yes"/>
			<point x="530" y="107"/>
			<point x="500" y="72"/>
			<point name=".hr02" x="470" y="72" type="curve" smooth="yes"/>
			<point x="423" y="72"/>
			<point x="414" y="117"/>
			<point x="414" y="164" type="curve" smooth="yes"/>
			<point x="414" y="223"/>
			<point x="429" y="285"/>
			<point x="467" y="332" type="curve"/>
			<point x="470" y="336"/>
			<point x="473" y="340"/>
			<point x="476" y="343" type="curve"/>
			<point x="501" y="370"/>
			<point x="524" y="378"/>
			<point x="541" y="380" type="curve" smooth="yes"/>
			<point x="548" y="381"/>
			<point x="553" y="381"/>
			<point x="557" y="381" type="curve" smooth="yes"/>
			<point x="582" y="381"/>
			<point x="586" y="355"/>
		</contour>
	</outline>
</glyph>
<glyph name="A" format="2">
	<unicode hex="0041"/>
	<advance width="740"/>
	<outline>
		<contour>
			<point x="165" y="79" type="curve" smooth="yes"/>
			<point x="218" y="218" type="line" smooth="yes"/>
			<point x="223" y="231"/>
			<point x="229" y="235"/>
			<point x="253" y="235" type="curve" smooth="yes"/>
			<point x="443" y="235" type="line"/>
			<point x="499" y="72" type="line" smooth="yes"/>
			<point x="509" y="42"/>
			<point x="454" y="35"/>
			<point x="425" y="32" type="curve"/>
			<point x="419" y="26"/>
			<point x="419" y="4"/>
			<point x="425" y="-2" type="curve"/>
			<point x="462" y="-1"/>
			<point x="557" y="0"/>
			<point x="596" y="0" type="curve" smooth="yes"/>
			<point x="637" y="0"/>
			<point x="693" y="-1"/>
			<point x="730" y="-2" type="curve"/>
			<point x="736" y="4"/>
			<point x="736" y="26"/>
			<point x="730" y="32" type="curve"/>
			<point x="691" y="36"/>
			<point x="658" y="35"/>
			<point x="640" y="86" type="curve" smooth="yes"/>
			<point x="434" y="658" type="line"/>
			<point x="419" y="649"/>
			<point x="359" y="614"/>
			<point x="324" y="614" type="curve"/>
			<point x="107" y="102" type="line" smooth="yes"/>
			<point x="81" y="40"/>
			<point x="51" y="35"/>
			<point x="7" y="32" type="curve"/>
			<point x="1" y="26"/>
			<point x="1" y="4"/>
			<point x="7" y="-2" type="curve"/>
			<point x="44" y="-1"/>
			<point x="62" y="0"/>
			<point x="101" y="0" type="curve" smooth="yes"/>
			<point x="142" y="0"/>
			<point x="197" y="-1"/>
			<point x="234" y="-2" type="curve"/>
			<point x="240" y="4"/>
			<point x="240" y="26"/>
			<point x="234" y="32" type="curve"/>
			<point x="196" y="35"/>
			<point x="149" y="38"/>
		</contour>
		<contour>
			<point x="273" y="283" type="line" smooth="yes"/>
			<point x="251" y="283"/>
			<point x="244" y="286"/>
			<point x="248" y="296" type="curve" smooth="yes"/>
			<point x="336" y="520" type="line"/>
			<point x="343" y="520" type="line"/>
			<point x="425" y="283" type="line"/>
		</contour>
	</outline>
	<anchor name="t.uni0302" x="354" y="740"/>
	<anchor name="m.uni0316_2" x="308" y="-110"/>
	<guideline x="0" y="740" angle="0"/>
</glyph>
<glyph name="D" format="2">
	<unicode hex="0044"/>
	<advance width="734"/>
	<outline>
		<contour>
			<point x="31" y="-2" type="curve"/>
			<point x="42" y="-2"/>
			<point x="145" y="0"/>
			<point x="185" y="0" type="curve" smooth="yes"/>
			<point x="225" y="0"/>
			<point x="307" y="-2"/>
			<point x="347" y="-2" type="curve" smooth="yes"/>
			<point x="553" y="-2"/>
			<point x="686" y="95"/>
			<point x="686" y="309" type="curve" smooth="yes"/>
			<point x="686" y="494"/>
			<point x="566" y="646"/>
			<point x="320" y="646" type="curve" smooth="yes"/>
			<point x="267" y="646"/>
			<point x="225" y="645"/>
			<point x="185" y="645" type="curve" smooth="yes"/>
			<point x="145" y="645"/>
			<point x="42" y="647"/>
			<point x="31" y="647" type="curve"/>
			<point x="21" y="641"/>
			<point x="21" y="619"/>
			<point x="31" y="613" type="curve"/>
			<point x="86" y="610"/>
			<point x="114" y="606"/>
			<point x="114" y="523" type="curve" smooth="yes"/>
			<point x="114" y="122" type="line" smooth="yes"/>
			<point x="114" y="39"/>
			<point x="86" y="35"/>
			<point x="31" y="32" type="curve"/>
			<point x="21" y="26"/>
			<point x="21" y="4"/>
		</contour>
		<contour>
			<point x="254" y="119" type="curve" smooth="yes"/>
			<point x="254" y="529" type="line" smooth="yes"/>
			<point x="254" y="584"/>
			<point x="280" y="604"/>
			<point x="316" y="604" type="curve" smooth="yes"/>
			<point x="513" y="604"/>
			<point x="535" y="435"/>
			<point x="535" y="284" type="curve" smooth="yes"/>
			<point x="535" y="102"/>
			<point x="426" y="40"/>
			<point x="350" y="40" type="curve" smooth="yes"/>
			<point x="280" y="40"/>
			<point x="254" y="52"/>
		</contour>
	</outline>
	<anchor name="m.uni0302" x="306" y="850"/>
	<anchor name="m.uni0316_2" x="279" y="-110"/>
	<anchor name="m.uni031A_3" x="619" y="732"/>
	<anchor name="t.uni0302" x="305" y="740"/>
</glyph>
<glyph name="G" format="2">
	<unicode hex="0047"/>
	<advance width="732"/>
	<outline>
		<contour>
			<point x="395" y="658" type="curve" smooth="yes"/>
			<point x="187" y="658"/>
			<point x="33" y="519"/>
			<point x="33" y="307" type="curve" smooth="yes"/>
			<point x="33" y="94"/>
			<point x="187" y="-10"/>
			<point x="385" y="-10" type="curve" smooth="yes"/>
			<point x="497" y="-10"/>
			<point x="605" y="24"/>
			<point x="669" y="78" type="curve"/>
			<point x="659" y="87"/>
			<point x="654" y="95"/>
			<point x="654" y="106" type="curve" smooth="yes"/>
			<point x="654" y="223" type="line" smooth="yes"/>
			<point x="654" y="258"/>
			<point x="669" y="268"/>
			<point x="697" y="271" type="curve"/>
			<point x="703" y="277"/>
			<point x="703" y="302"/>
			<point x="697" y="308" type="curve"/>
			<point x="669" y="307"/>
			<point x="622" y="306"/>
			<point x="584" y="306" type="curve" smooth="yes"/>
			<point x="547" y="306"/>
			<point x="481" y="307"/>
			<point x="436" y="308" type="curve"/>
			<point x="430" y="302"/>
			<point x="430" y="277"/>
			<point x="436" y="271" type="curve"/>
			<point x="488" y="267"/>
			<point x="514" y="263"/>
			<point x="514" y="223" type="curve" smooth="yes"/>
			<point x="514" y="74" type="line"/>
			<point x="482" y="42"/>
			<point x="458" y="32"/>
			<point x="407" y="32" type="curve" smooth="yes"/>
			<point x="238" y="32"/>
			<point x="184" y="195"/>
			<point x="184" y="327" type="curve" smooth="yes"/>
			<point x="184" y="458"/>
			<point x="219" y="616"/>
			<point x="381" y="616" type="curve" smooth="yes"/>
			<point x="511" y="616"/>
			<point x="577" y="539"/>
			<point x="602" y="453" type="curve"/>
			<point x="618" y="451"/>
			<point x="634" y="453"/>
			<point x="646" y="459" type="curve"/>
			<point x="637" y="501"/>
			<point x="632" y="551"/>
			<point x="625" y="623" type="curve"/>
			<point x="573" y="623"/>
			<point x="520" y="658"/>
		</contour>
	</outline>
	<anchor name="t.uni0302" x="365" y="740"/>
	<anchor name="t.uni0315_1" x="620" y="606"/>
	<anchor name="m.uni0316_2" x="367" y="-110"/>
	<anchor name="m.uni031A_3" x="631" y="732"/>
</glyph>
<glyph name="M" format="2">
	<unicode hex="004D"/>
	<advance width="899"/>
	<outline>
		<contour>
			<point x="663" y="116" type="line" smooth="yes"/>
			<point x="668" y="35"/>
			<point x="664" y="35"/>
			<point x="599" y="32" type="curve"/>
			<point x="593" y="26"/>
			<point x="593" y="4"/>
			<point x="599" y="-2" type="curve"/>
			<point x="646" y="-1"/>
			<point x="736" y="0"/>
			<point x="766" y="0" type="curve" smooth="yes"/>
			<point x="796" y="0"/>
			<point x="842" y="-1"/>
			<point x="875" y="-2" type="curve"/>
			<point x="881" y="4"/>
			<point x="881" y="26"/>
			<point x="875" y="32" type="curve"/>
			<point x="807" y="35"/>
			<point x="804" y="38"/>
			<point x="798" y="121" type="curve" smooth="yes"/>
			<point x="768" y="542" type="line" smooth="yes"/>
			<point x="764" y="596"/>
			<point x="769" y="609"/>
			<point x="837" y="613" type="curve"/>
			<point x="843" y="619"/>
			<point x="843" y="641"/>
			<point x="837" y="647" type="curve"/>
			<point x="636" y="645" type="line"/>
			<point x="446" y="201" type="line"/>
			<point x="445" y="199"/>
			<point x="444" y="197"/>
			<point x="443" y="197" type="curve"/>
			<point x="442" y="197"/>
			<point x="441" y="199"/>
			<point x="440" y="201" type="curve"/>
			<point x="262" y="645" type="line"/>
			<point x="57" y="647" type="line"/>
			<point x="51" y="641"/>
			<point x="51" y="619"/>
			<point x="57" y="613" type="curve"/>
			<point x="126" y="609"/>
			<point x="132" y="608"/>
			<point x="125" y="533" type="curve" smooth="yes"/>
			<point x="85" y="121" type="line" smooth="yes"/>
			<point x="79" y="61"/>
			<point x="67" y="37"/>
			<point x="10" y="32" type="curve"/>
			<point x="4" y="26"/>
			<point x="4" y="4"/>
			<point x="10" y="-2" type="curve"/>
			<point x="40" y="-1"/>
			<point x="72" y="0"/>
			<point x="96" y="0" type="curve" smooth="yes"/>
			<point x="120" y="0"/>
			<point x="180" y="-1"/>
			<point x="210" y="-2" type="curve"/>
			<point x="216" y="4"/>
			<point x="216" y="26"/>
			<point x="210" y="32" type="curve"/>
			<point x="144" y="37"/>
			<point x="140" y="67"/>
			<point x="144" y="123" type="curve" smooth="yes"/>
			<point x="170" y="498" type="line"/>
			<point x="174" y="498" type="line"/>
			<point x="371" y="5" type="line" smooth="yes"/>
			<point x="374" y="-2"/>
			<point x="385" y="-8"/>
			<point x="391" y="-8" type="curve" smooth="yes"/>
			<point x="397" y="-8"/>
			<point x="406" y="-4"/>
			<point x="410" y="5" type="curve" smooth="yes"/>
			<point name=".hr01" x="635" y="534" type="line"/>
			<point x="637" y="534" type="line"/>
		</contour>
	</outline>
	<anchor name="m.uni0302" x="431" y="850"/>
	<anchor name="m.uni0316_2" x="393" y="-110"/>
	<anchor name="t.uni0302" x="413" y="740"/>
</glyph>
<glyph name="N" format="2">
	<unicode hex="004E"/>
	<advance width="740"/>
	<outline>
		<contour>
			<point x="24" y="-2" type="curve"/>
			<point x="73" y="-1"/>
			<point x="92" y="0"/>
			<point x="136" y="0" type="curve" smooth="yes"/>
			<point x="180" y="0"/>
			<point x="198" y="-1"/>
			<point x="248" y="-2" type="curve"/>
			<point x="254" y="4"/>
			<point x="254" y="26"/>
			<point x="248" y="32" type="curve"/>
			<point x="178" y="39"/>
			<point x="161" y="42"/>
			<point x="161" y="133" type="curve" smooth="yes"/>
			<point x="161" y="430" type="line" smooth="yes"/>
			<point x="161" y="440"/>
			<point x="163" y="450"/>
			<point x="169" y="450" type="curve" smooth="yes"/>
			<point x="174" y="450"/>
			<point x="182" y="443"/>
			<point x="193" y="430" type="curve" smooth="yes"/>
			<point x="528" y="32" type="line"/>
			<point x="548" y="7"/>
			<point x="566" y="-10"/>
			<point x="568" y="-12" type="curve"/>
			<point x="603" y="-12"/>
			<point x="613" y="-9"/>
			<point x="631" y="0" type="curve"/>
			<point x="631" y="7"/>
			<point x="626" y="71"/>
			<point x="626" y="102" type="curve" smooth="yes"/>
			<point x="626" y="219"/>
			<point x="626" y="419"/>
			<point x="626" y="512" type="curve" smooth="yes"/>
			<point x="626" y="601"/>
			<point x="643" y="606"/>
			<point x="713" y="613" type="curve"/>
			<point x="719" y="619"/>
			<point x="719" y="641"/>
			<point x="713" y="647" type="curve"/>
			<point x="664" y="646"/>
			<point x="647" y="645"/>
			<point x="605" y="645" type="curve" smooth="yes"/>
			<point x="560" y="645"/>
			<point x="539" y="646"/>
			<point x="489" y="647" type="curve"/>
			<point x="483" y="641"/>
			<point x="483" y="619"/>
			<point x="489" y="613" type="curve"/>
			<point x="559" y="606"/>
			<point x="576" y="603"/>
			<point x="576" y="512" type="curve" smooth="yes"/>
			<point x="576" y="433"/>
			<point x="576" y="260"/>
			<point x="576" y="231" type="curve" smooth="yes"/>
			<point x="576" y="219"/>
			<point x="573" y="214"/>
			<point x="568" y="214" type="curve" smooth="yes"/>
			<point x="563" y="214"/>
			<point x="556" y="220"/>
			<point x="549" y="228" type="curve" smooth="yes"/>
			<point x="195" y="645" type="line"/>
			<point x="32" y="647" type="line"/>
			<point x="26" y="641"/>
			<point x="26" y="619"/>
			<point x="32" y="613" type="curve"/>
			<point x="75" y="610"/>
			<point x="105" y="576"/>
			<point x="111" y="550" type="curve"/>
			<point x="111" y="133" type="line" smooth="yes"/>
			<point x="111" y="44"/>
			<point x="94" y="39"/>
			<point x="24" y="32" type="curve"/>
			<point x="18" y="26"/>
			<point x="18" y="4"/>
		</contour>
	</outline>
	<anchor name="m.uni0302" x="346" y="850"/>
	<anchor name="m.uni0316_2" x="348" y="-110"/>
	<anchor name="t.uni0302" x="346" y="740"/>
</glyph>
<glyph name="O" format="2">
	<unicode hex="004F"/>
	<advance width="730"/>
	<outline>
		<contour>
			<point x="694" y="329" type="curve" smooth="yes"/>
			<point x="694" y="528"/>
			<point x="546" y="658"/>
			<point x="363" y="658" type="curve" smooth="yes"/>
			<point x="165" y="658"/>
			<point x="37" y="499"/>
			<point x="37" y="309" type="curve" smooth="yes"/>
			<point x="37" y="111"/>
			<point x="194" y="-10"/>
			<point x="364" y="-10" type="curve" smooth="yes"/>
			<point x="565" y="-10"/>
			<point x="694" y="131"/>
		</contour>
		<contour>
			<point x="351" y="616" type="curve" smooth="yes"/>
			<point x="458" y="616"/>
			<point x="543" y="511"/>
			<point x="543" y="308" type="curve" smooth="yes"/>
			<point x="543" y="142"/>
			<point x="485" y="32"/>
			<point x="384" y="32" type="curve" smooth="yes"/>
			<point x="274" y="32"/>
			<point x="188" y="141"/>
			<point x="188" y="329" type="curve" smooth="yes"/>
			<point x="188" y="533"/>
			<point x="262" y="616"/>
		</contour>
	</outline>
	<anchor name="t.uni0302" x="335" y="740"/>
	<anchor name="t.uni0315_1" x="620" y="606"/>
	<anchor name="m.uni0316_2" x="350" y="-110"/>
</glyph>
<glyph name="Q" format="2">
	<unicode hex="0051"/>
	<advance width="730"/>
	<outline>
		<contour>
			<point x="37" y="309" type="curve" smooth="yes"/>
			<point x="37" y="125"/>
			<point x="172" y="8"/>
			<point x="328" y="-8" type="curve"/>
			<point x="272" y="-37"/>
			<point x="194" y="-98"/>
			<point x="159" y="-153" type="curve"/>
			<point x="198" y="-183" type="line"/>
			<point x="209" y="-167"/>
			<point x="222" y="-152"/>
			<point x="234" y="-138" type="curve"/>
			<point x="249" y="-128"/>
			<point x="263" y="-124"/>
			<point x="271" y="-124" type="curve" smooth="yes"/>
			<point x="313" y="-124"/>
			<point x="350" y="-146"/>
			<point x="389" y="-170" type="curve" smooth="yes"/>
			<point x="436" y="-198"/>
			<point x="486" y="-229"/>
			<point x="557" y="-229" type="curve" smooth="yes"/>
			<point x="620" y="-229"/>
			<point x="662" y="-193"/>
			<point x="701" y="-137" type="curve"/>
			<point x="684" y="-115" type="line"/>
			<point x="662" y="-142"/>
			<point x="626" y="-152"/>
			<point x="597" y="-152" type="curve" smooth="yes"/>
			<point x="556" y="-152"/>
			<point x="518" y="-132"/>
			<point x="478" y="-110" type="curve" smooth="yes"/>
			<point x="433" y="-86"/>
			<point x="386" y="-60"/>
			<point x="328" y="-60" type="curve" smooth="yes"/>
			<point x="326" y="-60"/>
			<point x="324" y="-60"/>
			<point x="323" y="-60" type="curve"/>
			<point x="366" y="-30"/>
			<point x="408" y="-11"/>
			<point x="435" y="-4" type="curve"/>
			<point x="602" y="27"/>
			<point x="694" y="164"/>
			<point x="694" y="329" type="curve" smooth="yes"/>
			<point x="694" y="528"/>
			<point x="546" y="658"/>
			<point x="363" y="658" type="curve" smooth="yes"/>
			<point x="165" y="658"/>
			<point x="37" y="499"/>
		</contour>
		<contour>
			<point x="188" y="329" type="curve" smooth="yes"/>
			<point x="188" y="533"/>
			<point x="262" y="616"/>
			<point x="351" y="616" type="curve" smooth="yes"/>
			<point x="458" y="616"/>
			<point x="543" y="511"/>
			<point x="543" y="308" type="curve" smooth="yes"/>
			<point x="543" y="142"/>
			<point x="485" y="32"/>
			<point x="384" y="32" type="curve" smooth="yes"/>
			<point x="274" y="32"/>
			<point x="188" y="141"/>
		</contour>
	</outline>
	<anchor name="m.uni0302" x="348" y="850"/>
	<anchor name="t.uni0315_1" x="620" y="606"/>
	<anchor name="m.uni031A_3" x="619" y="732"/>
	<anchor name="t.uni0302" x="354" y="740"/>
</glyph>
<glyph name="S" format="2">
	<unicode hex="0053"/>
	<advance width="504"/>
	<outline>
		<contour>
			<point x="421" y="631" type="curve"/>
			<point x="366" y="639"/>
			<point x="345" y="658"/>
			<point x="252" y="658" type="curve" smooth="yes"/>
			<point x="155" y="658"/>
			<point x="41" y="594"/>
			<point x="41" y="485" type="curve" smooth="yes"/>
			<point x="41" y="368"/>
			<point x="109" y="323"/>
			<point x="202" y="269" type="curve" smooth="yes"/>
			<point x="259" y="237"/>
			<point x="337" y="189"/>
			<point x="337" y="115" type="curve" smooth="yes"/>
			<point x="337" y="66"/>
			<point x="294" y="32"/>
			<point x="233" y="32" type="curve" smooth="yes"/>
			<point x="166" y="32"/>
			<point x="97" y="87"/>
			<point x="77" y="178" type="curve"/>
			<point x="61" y="184"/>
			<point x="45" y="180"/>
			<point x="30" y="176" type="curve"/>
			<point x="29" y="176"/>
			<point x="28" y="175"/>
			<point x="27" y="175" type="curve"/>
			<point x="41" y="101"/>
			<point x="49" y="57"/>
			<point x="46" y="10" type="curve"/>
			<point x="103" y="10"/>
			<point x="106" y="-10"/>
			<point x="244" y="-10" type="curve" smooth="yes"/>
			<point x="352" y="-10"/>
			<point x="463" y="68"/>
			<point x="463" y="184" type="curve" smooth="yes"/>
			<point x="463" y="289"/>
			<point x="364" y="363"/>
			<point x="277" y="398" type="curve" smooth="yes"/>
			<point x="237" y="414"/>
			<point x="166" y="470"/>
			<point x="166" y="527" type="curve" smooth="yes"/>
			<point x="166" y="583"/>
			<point x="200" y="617"/>
			<point x="251" y="617" type="curve" smooth="yes"/>
			<point x="336" y="617"/>
			<point x="364" y="540"/>
			<point x="382" y="474" type="curve"/>
			<point x="396" y="470"/>
			<point x="421" y="470"/>
			<point x="432" y="479" type="curve"/>
			<point x="420" y="531"/>
			<point x="419" y="577"/>
		</contour>
	</outline>
	<anchor name="t.uni0302" x="232" y="740"/>
	<anchor name="m.uni0316_2" x="234" y="-110"/>
	<anchor name="m.uni031A_3" x="481" y="732"/>
</glyph>
<glyph name="T" format="2">
	<unicode hex="0054"/>
	<advance width="652"/>
	<outline>
		<contour>
			<point x="405" y="123" type="curve" smooth="yes"/>
			<point x="405" y="503" type="line" smooth="yes"/>
			<point x="405" y="567"/>
			<point x="415" y="604"/>
			<point x="451" y="604" type="curve" smooth="yes"/>
			<point x="473" y="604" type="line" smooth="yes"/>
			<point x="548" y="604"/>
			<point x="590" y="579"/>
			<point x="607" y="502" type="curve"/>
			<point x="618" y="502"/>
			<point x="637" y="503"/>
			<point x="646" y="507" type="curve"/>
			<point x="639" y="553"/>
			<point x="634" y="605"/>
			<point x="633" y="650" type="curve"/>
			<point x="633" y="651"/>
			<point x="631" y="653"/>
			<point x="630" y="653" type="curve"/>
			<point x="596" y="650"/>
			<point x="485" y="645"/>
			<point x="406" y="645" type="curve" smooth="yes"/>
			<point x="265" y="645" type="line" smooth="yes"/>
			<point x="188" y="645"/>
			<point x="70" y="650"/>
			<point x="32" y="653" type="curve"/>
			<point x="30" y="653"/>
			<point x="28" y="651"/>
			<point x="28" y="650" type="curve"/>
			<point x="24" y="605"/>
			<point x="14" y="552"/>
			<point x="3" y="504" type="curve"/>
			<point x="13" y="500"/>
			<point x="30" y="499"/>
			<point x="42" y="499" type="curve"/>
			<point x="62" y="579"/>
			<point x="103" y="604"/>
			<point x="169" y="604" type="curve" smooth="yes"/>
			<point x="218" y="604" type="line" smooth="yes"/>
			<point x="255" y="604"/>
			<point x="265" y="567"/>
			<point x="265" y="506" type="curve" smooth="yes"/>
			<point x="265" y="123" type="line" smooth="yes"/>
			<point x="265" y="40"/>
			<point x="248" y="35"/>
			<point x="168" y="32" type="curve"/>
			<point x="162" y="26"/>
			<point x="162" y="4"/>
			<point x="168" y="-2" type="curve"/>
			<point x="217" y="-1"/>
			<point x="269" y="0"/>
			<point x="333" y="0" type="curve" smooth="yes"/>
			<point x="399" y="0"/>
			<point x="452" y="-1"/>
			<point x="502" y="-2" type="curve"/>
			<point x="508" y="4"/>
			<point x="508" y="26"/>
			<point x="502" y="32" type="curve"/>
			<point x="422" y="35"/>
			<point x="405" y="40"/>
		</contour>
	</outline>
	<anchor name="m.uni0302" x="327" y="850"/>
	<anchor name="m.uni0316_2" x="340" y="-110"/>
	<anchor name="m.uni031A_3" x="619" y="732"/>
	<anchor name="t.uni0302" x="331" y="740"/>
</glyph>
<glyph name="U" format="2">
	<unicode hex="0055"/>
	<advance width="732"/>
	<outline>
		<contour>
			<point x="227" y="522" type="line" smooth="yes"/>
			<point x="227" y="605"/>
			<point x="242" y="610"/>
			<point x="319" y="613" type="curve"/>
			<point x="325" y="619"/>
			<point x="325" y="641"/>
			<point x="319" y="647" type="curve"/>
			<point x="270" y="646"/>
			<point x="204" y="645"/>
			<point x="156" y="645" type="curve" smooth="yes"/>
			<point x="111" y="645"/>
			<point x="60" y="646"/>
			<point x="10" y="647" type="curve"/>
			<point x="4" y="641"/>
			<point x="4" y="619"/>
			<point x="10" y="613" type="curve"/>
			<point x="70" y="610"/>
			<point x="87" y="605"/>
			<point x="87" y="522" type="curve" smooth="yes"/>
			<point x="87" y="236" type="line" smooth="yes"/>
			<point x="87" y="38"/>
			<point x="200" y="-10"/>
			<point x="376" y="-10" type="curve" smooth="yes"/>
			<point x="581" y="-10"/>
			<point x="646" y="117"/>
			<point x="646" y="295" type="curve" smooth="yes"/>
			<point x="646" y="522" type="line" smooth="yes"/>
			<point x="646" y="605"/>
			<point x="664" y="607"/>
			<point x="723" y="613" type="curve"/>
			<point x="729" y="619"/>
			<point x="729" y="641"/>
			<point x="723" y="647" type="curve"/>
			<point x="684" y="646"/>
			<point x="644" y="645"/>
			<point x="616" y="645" type="curve" smooth="yes"/>
			<point x="587" y="645"/>
			<point x="535" y="646"/>
			<point x="489" y="647" type="curve"/>
			<point x="483" y="641"/>
			<point x="483" y="619"/>
			<point x="489" y="613" type="curve"/>
			<point x="565" y="607"/>
			<point x="581" y="605"/>
			<point x="581" y="522" type="curve" smooth="yes"/>
			<point x="581" y="277" type="line" smooth="yes"/>
			<point x="581" y="165"/>
			<point x="566" y="32"/>
			<point x="397" y="32" type="curve" smooth="yes"/>
			<point x="258" y="32"/>
			<point x="227" y="154"/>
			<point x="227" y="269" type="curve" smooth="yes"/>
		</contour>
	</outline>
	<anchor name="t.uni0302" x="364" y="740"/>
	<anchor name="m.uni0316_2" x="328" y="-110"/>
</glyph>
<glyph name="Z" format="2">
	<unicode hex="005A"/>
	<advance width="624"/>
	<outline>
		<contour>
			<point x="20" y="15" type="curve" smooth="yes"/>
			<point x="20" y="5"/>
			<point x="25" y="0"/>
			<point x="39" y="0" type="curve" smooth="yes"/>
			<point x="338" y="0" type="line" smooth="yes"/>
			<point x="415" y="0"/>
			<point x="533" y="-5"/>
			<point x="571" y="-8" type="curve"/>
			<point x="573" y="-8"/>
			<point x="575" y="-6"/>
			<point x="575" y="-5" type="curve"/>
			<point x="578" y="35"/>
			<point x="588" y="109"/>
			<point x="602" y="172" type="curve"/>
			<point x="592" y="176"/>
			<point x="575" y="177"/>
			<point x="563" y="177" type="curve"/>
			<point x="543" y="97"/>
			<point x="495" y="44"/>
			<point x="429" y="44" type="curve" smooth="yes"/>
			<point x="229" y="44" type="line" smooth="yes"/>
			<point x="211" y="44"/>
			<point x="204" y="47"/>
			<point x="204" y="53" type="curve" smooth="yes"/>
			<point x="204" y="58"/>
			<point x="208" y="64"/>
			<point x="213" y="72" type="curve"/>
			<point x="567" y="591" type="line" smooth="yes"/>
			<point x="587" y="620"/>
			<point x="589" y="626"/>
			<point x="589" y="637" type="curve" smooth="yes"/>
			<point x="589" y="643"/>
			<point x="586" y="647"/>
			<point x="572" y="647" type="curve" smooth="yes"/>
			<point x="559" y="647"/>
			<point x="535" y="645"/>
			<point x="506" y="645" type="curve" smooth="yes"/>
			<point x="305" y="645" type="line" smooth="yes"/>
			<point x="228" y="645"/>
			<point x="110" y="650"/>
			<point x="72" y="653" type="curve"/>
			<point x="70" y="653"/>
			<point x="68" y="651"/>
			<point x="68" y="650" type="curve"/>
			<point x="64" y="605"/>
			<point x="53" y="529"/>
			<point x="42" y="481" type="curve"/>
			<point x="52" y="477"/>
			<point x="69" y="476"/>
			<point x="81" y="476" type="curve"/>
			<point x="101" y="556"/>
			<point x="143" y="602"/>
			<point x="209" y="602" type="curve" smooth="yes"/>
			<point x="400" y="602" type="line" smooth="yes"/>
			<point x="408" y="602"/>
			<point x="411" y="600"/>
			<point x="411" y="596" type="curve" smooth="yes"/>
			<point x="411" y="593"/>
			<point x="406" y="585"/>
			<point x="402" y="579" type="curve" smooth="yes"/>
			<point x="28" y="38" type="line"/>
			<point x="22" y="30"/>
			<point x="20" y="22"/>
		</contour>
	</outline>
	<anchor name="m.uni0302" x="320" y="850"/>
	<anchor name="m.uni0316_2" x="287" y="-110"/>
	<anchor name="m.uni031A_3" x="619" y="732"/>
	<anchor name="t.uni0302" x="319" y="740"/>
</glyph>
<glyph name="bracketleft" format="2">
	<unicode hex="005B"/>
	<advance width="397"/>
	<outline>
		<contour>
			<point x="97" y="-193" type="line"/>
			<point x="342" y="-193" type="line"/>
			<point x="348" y="-187"/>
			<point x="348" y="-169"/>
			<point x="342" y="-163" type="curve"/>
			<point x="204" y="-152"/>
			<point x="197" y="-137"/>
			<point x="197" y="-50" type="curve" smooth="yes"/>
			<point x="197" y="561" type="line" smooth="yes"/>
			<point x="197" y="648"/>
			<point x="205" y="663"/>
			<point x="342" y="673" type="curve"/>
			<point x="348" y="679"/>
			<point x="348" y="697"/>
			<point x="342" y="703" type="curve"/>
			<point x="97" y="703" type="line"/>
		</contour>
	</outline>
</glyph>
<glyph name="backslash" format="2">
	<unicode hex="005C"/>
	<advance width="307"/>
	<outline>
		<contour>
			<point x="76" y="698" type="line"/>
			<point x="11" y="698" type="line"/>
			<point x="241" y="-48" type="line"/>
			<point x="306" y="-48" type="line"/>
		</contour>
	</outline>
</glyph>
<glyph name="bracketright" format="2">
	<unicode hex="005D"/>
	<advance width="397"/>
	<outline>
		<contour>
			<point x="302" y="701" type="line"/>
			<point x="57" y="701" type="line"/>
			<point x="51" y="695"/>
			<point x="51" y="677"/>
			<point x="57" y="671" type="curve"/>
			<point x="195" y="660"/>
			<point x="202" y="645"/>
			<point x="202" y="558" type="curve" smooth="yes"/>
			<point x="202" y="-53" type="line" smooth="yes"/>
			<point x="202" y="-140"/>
			<point x="194" y="-155"/>
			<point x="57" y="-165" type="curve"/>
			<point x="51" y="-171"/>
			<point x="51" y="-189"/>
			<point x="57" y="-195" type="curve"/>
			<point x="302" y="-195" type="line"/>
		</contour>
	</outline>
</glyph>
<glyph name="underscore" format="2">
	<unicode hex="005F"/>
	<advance width="486"/>
	<outline>
		<contour>
			<point x="482" y="-103" type="curve"/>
			<point x="5" y="-103" type="line"/>
			<point x="5" y="-109.098"/>
			<point x="5" y="-147.902"/>
			<point x="5" y="-154" type="curve"/>
			<point x="482" y="-154" type="line"/>
			<point x="482" y="-147.902"/>
			<point x="482" y="-109.098"/>
		</contour>
	</outline>
</glyph>
<glyph name="a" format="2">
	<unicode hex="0061"/>
	<advance width="506"/>
	<outline>
		<contour>
			<point x="295" y="49" type="line"/>
			<point x="302" y="8"/>
			<point x="329" y="-10"/>
			<point x="373" y="-10" type="curve" smooth="yes"/>
			<point x="428" y="-10"/>
			<point x="467" y="11"/>
			<point x="504" y="46" type="curve"/>
			<point x="502" y="58"/>
			<point x="498" y="66"/>
			<point x="486" y="74" type="curve"/>
			<point x="473" y="64"/>
			<point name=".hr01" x="463" y="60"/>
			<point x="444" y="60" type="curve" smooth="yes"/>
			<point x="422" y="60"/>
			<point x="417" y="78"/>
			<point x="417" y="127" type="curve" smooth="yes"/>
			<point x="417" y="271" type="line" smooth="yes"/>
			<point x="417" y="415"/>
			<point x="329" y="444"/>
			<point x="247" y="444" type="curve" smooth="yes"/>
			<point x="174" y="444"/>
			<point x="62" y="402"/>
			<point x="62" y="336" type="curve" smooth="yes"/>
			<point x="62" y="308"/>
			<point x="74" y="286"/>
			<point x="113" y="286" type="curve" smooth="yes"/>
			<point x="149" y="286"/>
			<point x="175" y="308"/>
			<point x="175" y="332" type="curve" smooth="yes"/>
			<point x="175" y="337"/>
			<point x="174" y="343"/>
			<point x="173" y="349" type="curve"/>
			<point x="171" y="359"/>
			<point x="171" y="369"/>
			<point x="171" y="379" type="curve" smooth="yes"/>
			<point x="171" y="390"/>
			<point x="180" y="402"/>
			<point x="213" y="402" type="curve" smooth="yes"/>
			<point x="255" y="402"/>
			<point x="290" y="384"/>
			<point x="290" y="257" type="curve"/>
			<point x="223" y="236" type="line" smooth="yes"/>
			<point x="87" y="193"/>
			<point name=".hr02" x="44" y="159"/>
			<point x="44" y="95" type="curve" smooth="yes"/>
			<point x="44" y="28"/>
			<point x="86" y="-10"/>
			<point x="156" y="-10" type="curve" smooth="yes"/>
			<point x="191" y="-10"/>
			<point x="231" y="6"/>
			<point x="259" y="27" type="curve" smooth="yes"/>
			<point x="289" y="49" type="line"/>
		</contour>
		<contour>
			<point x="290" y="218" type="line"/>
			<point x="290" y="86" type="line"/>
			<point x="265" y="66"/>
			<point x="240" y="50"/>
			<point x="222" y="50" type="curve" smooth="yes"/>
			<point x="190" y="50"/>
			<point x="164" y="76"/>
			<point x="164" y="110" type="curve" smooth="yes"/>
			<point x="164" y="156"/>
			<point x="187" y="184"/>
			<point x="238" y="201" type="curve" smooth="yes"/>
		</contour>
	</outline>
	<anchor name="t.uni0302" x="233" y="500"/>
	<anchor name="m.uni0316_2" x="196" y="-110"/>
	<anchor name="b.uni0321_4" x="410" y="16"/>
</glyph>
<glyph name="c" format="2">
	<unicode hex="0063"/>
	<advance width="456"/>
	<outline>
		<contour>
			<point x="422" y="87" type="curve"/>
			<point x="422" y="99"/>
			<point x="420" y="118"/>
			<point x="409" y="118" type="curve"/>
			<point x="369" y="81"/>
			<point x="335" y="62"/>
			<point x="306" y="62" type="curve" smooth="yes"/>
			<point x="231" y="62"/>
			<point x="172" y="116"/>
			<point x="172" y="236" type="curve" smooth="yes"/>
			<point x="172" y="347"/>
			<point x="197" y="402"/>
			<point x="250" y="402" type="curve" smooth="yes"/>
			<point x="287" y="402"/>
			<point x="302" y="363"/>
			<point x="305" y="331" type="curve" smooth="yes"/>
			<point x="308" y="304"/>
			<point x="335" y="284"/>
			<point x="367" y="284" type="curve" smooth="yes"/>
			<point x="399" y="284"/>
			<point x="422" y="309"/>
			<point x="422" y="340" type="curve" smooth="yes"/>
			<point x="422" y="385"/>
			<point x="368" y="444"/>
			<point x="259" y="444" type="curve" smooth="yes"/>
			<point x="141" y="444"/>
			<point x="37" y="349"/>
			<point x="37" y="201" type="curve" smooth="yes"/>
			<point x="37" y="64"/>
			<point x="123" y="-10"/>
			<point x="255" y="-10" type="curve" smooth="yes"/>
			<point x="315" y="-10"/>
			<point x="384" y="32"/>
		</contour>
	</outline>
	<anchor name="t.uni0302" x="242" y="500"/>
	<anchor name="m.uni0316_2" x="236" y="-110"/>
	<anchor name="b.uni0321_4" x="361" y="42"/>
</glyph>
<glyph name="d" format="2">
	<unicode hex="0064"/>
	<advance width="561"/>
	<outline>
		<contour>
			<point x="359" y="7" type="curve"/>
			<point x="361" y="-5"/>
			<point x="368" y="-10"/>
			<point x="382" y="-10" type="curve"/>
			<point x="419" y="0"/>
			<point x="479" y="14"/>
			<point name=".hr01" x="548" y="23" type="curve"/>
			<point x="550" y="29"/>
			<point x="548" y="49"/>
			<point x="546" y="55" type="curve"/>
			<point x="492" y="60"/>
			<point x="481" y="76"/>
			<point x="481" y="133" type="curve" smooth="yes"/>
			<point x="481" y="583" type="line" smooth="yes"/>
			<point x="481" y="648"/>
			<point x="484" y="685"/>
			<point x="484" y="685" type="curve"/>
			<point x="484" y="694"/>
			<point x="477" y="698"/>
			<point x="468" y="698" type="curve"/>
			<point x="431" y="686"/>
			<point x="351" y="675"/>
			<point x="280" y="672" type="curve"/>
			<point x="277" y="660"/>
			<point x="278" y="647"/>
			<point x="283" y="638" type="curve"/>
			<point x="346" y="633"/>
			<point x="351" y="632"/>
			<point x="351" y="563" type="curve" smooth="yes"/>
			<point x="351" y="120" type="line" smooth="yes"/>
			<point x="351" y="83"/>
			<point x="354" y="44"/>
		</contour>
		<contour>
			<point x="363" y="429" type="line"/>
			<point x="343" y="437"/>
			<point x="314" y="444"/>
			<point x="279" y="444" type="curve" smooth="yes"/>
			<point x="150" y="444"/>
			<point x="37" y="331"/>
			<point x="37" y="198" type="curve" smooth="yes"/>
			<point x="37" y="85"/>
			<point x="107" y="-10"/>
			<point name=".hr02" x="224" y="-10" type="curve" smooth="yes"/>
			<point x="259" y="-10"/>
			<point x="311" y="16"/>
			<point x="361" y="59" type="curve"/>
			<point x="359" y="103" type="line"/>
			<point x="329" y="73"/>
			<point x="295" y="56"/>
			<point x="266" y="56" type="curve" smooth="yes"/>
			<point x="216" y="56"/>
			<point x="177" y="112"/>
			<point x="177" y="229" type="curve" smooth="yes"/>
			<point x="177" y="294"/>
			<point x="187" y="402"/>
			<point x="276" y="402" type="curve" smooth="yes"/>
			<point x="306" y="402"/>
			<point x="337" y="398"/>
			<point x="363" y="346" type="curve"/>
		</contour>
	</outline>
	<anchor name="m.uni0302" x="218" y="645"/>
	<anchor name="t.uni0315_1" x="500" y="466"/>
	<anchor name="m.uni0316_2" x="221" y="-110"/>
	<anchor name="m.uni031A_3" x="490" y="580"/>
	<anchor name="b.uni0321_4" x="312" y="20"/>
</glyph>
<glyph name="e" format="2">
	<unicode hex="0065"/>
	<advance width="489"/>
	<outline>
		<contour>
			<point x="431" y="129" type="curve"/>
			<point x="390" y="87"/>
			<point x="336" y="76"/>
			<point x="298" y="76" type="curve" smooth="yes"/>
			<point x="194" y="76"/>
			<point x="173" y="147"/>
			<point x="173" y="235" type="curve"/>
			<point x="413" y="235" type="line" smooth="yes"/>
			<point x="437" y="235"/>
			<point x="442" y="252"/>
			<point x="442" y="266" type="curve" smooth="yes"/>
			<point x="442" y="351"/>
			<point x="409" y="444"/>
			<point x="262" y="444" type="curve" smooth="yes"/>
			<point x="157" y="444"/>
			<point x="37" y="351"/>
			<point x="37" y="198" type="curve" smooth="yes"/>
			<point x="37" y="60"/>
			<point x="128" y="-10"/>
			<point x="259" y="-10" type="curve" smooth="yes"/>
			<point x="328" y="-10"/>
			<point x="396" y="25"/>
			<point x="446" y="98" type="curve"/>
			<point x="446" y="111"/>
			<point x="441" y="129"/>
		</contour>
		<contour>
			<point x="175" y="275" type="line"/>
			<point x="186" y="359"/>
			<point x="212" y="402"/>
			<point x="249" y="402" type="curve" smooth="yes"/>
			<point x="278" y="402"/>
			<point x="315" y="376"/>
			<point x="315" y="296" type="curve" smooth="yes"/>
			<point x="315" y="289"/>
			<point x="311" y="275"/>
			<point x="300" y="275" type="curve" smooth="yes"/>
		</contour>
	</outline>
	<anchor name="t.uni0302" x="248" y="500"/>
	<anchor name="t.uni0315_1" x="425" y="396"/>
	<anchor name="m.uni0316_2" x="239" y="-110"/>
	<anchor name="b.uni0321_4" x="389" y="41"/>
</glyph>
<glyph name="g" format="2">
	<unicode hex="0067"/>
	<advance width="521"/>
	<outline>
		<contour>
			<point x="46" y="296" type="curve" smooth="yes"/>
			<point x="46" y="195"/>
			<point x="141" y="142"/>
			<point x="231" y="142" type="curve" smooth="yes"/>
			<point x="321" y="142"/>
			<point x="412" y="191"/>
			<point x="412" y="291" type="curve" smooth="yes"/>
			<point x="412" y="347"/>
			<point x="384" y="384"/>
			<point x="350" y="412" type="curve"/>
			<point x="358" y="422"/>
			<point x="391" y="440"/>
			<point x="401" y="440" type="curve" smooth="yes"/>
			<point x="410" y="440"/>
			<point x="417" y="434"/>
			<point x="420" y="428" type="curve"/>
			<point x="424" y="415"/>
			<point x="442" y="394"/>
			<point x="467" y="394" type="curve" smooth="yes"/>
			<point x="495" y="394"/>
			<point name=".hr01" x="511" y="406"/>
			<point x="511" y="443" type="curve" smooth="yes"/>
			<point x="511" y="462"/>
			<point name=".hr02" x="485" y="491"/>
			<point x="447" y="491" type="curve" smooth="yes"/>
			<point x="403" y="491"/>
			<point x="345" y="458"/>
			<point x="316" y="432" type="curve"/>
			<point x="298" y="442"/>
			<point name=".hr03" x="277" y="444"/>
			<point x="232" y="444" type="curve" smooth="yes"/>
			<point x="145" y="444"/>
			<point x="46" y="395"/>
		</contour>
		<contour>
			<point x="11" y="-106" type="curve" smooth="yes"/>
			<point name=".hr04" x="11" y="-225"/>
			<point x="104" y="-238"/>
			<point x="203" y="-238" type="curve" smooth="yes"/>
			<point x="342" y="-238"/>
			<point x="501" y="-165"/>
			<point x="501" y="-55" type="curve" smooth="yes"/>
			<point x="501" y="67"/>
			<point x="328" y="72"/>
			<point x="242" y="72" type="curve" smooth="yes"/>
			<point x="222" y="72"/>
			<point x="203" y="71"/>
			<point x="188" y="69" type="curve"/>
			<point x="170" y="66"/>
			<point x="143" y="71"/>
			<point x="143" y="111" type="curve" smooth="yes"/>
			<point x="143" y="132"/>
			<point x="149" y="150"/>
			<point x="161" y="164" type="curve"/>
			<point x="133" y="176" type="line"/>
			<point x="104" y="154"/>
			<point x="44" y="90"/>
			<point x="44" y="68" type="curve" smooth="yes"/>
			<point x="44" y="2"/>
			<point x="119" y="-25"/>
			<point x="175" y="-25" type="curve" smooth="yes"/>
			<point x="252" y="-25"/>
			<point x="400" y="-28"/>
			<point x="400" y="-81" type="curve" smooth="yes"/>
			<point x="400" y="-117"/>
			<point x="384" y="-158"/>
			<point x="351" y="-176" type="curve"/>
			<point x="320" y="-194"/>
			<point x="269" y="-196"/>
			<point x="231" y="-196" type="curve" smooth="yes"/>
			<point x="165" y="-196"/>
			<point x="120" y="-147"/>
			<point x="120" y="-96" type="curve" smooth="yes"/>
			<point x="120" y="-56"/>
			<point x="120" y="-31"/>
			<point x="139" y="-8" type="curve"/>
			<point x="112" y="1" type="line"/>
			<point x="65" y="-19"/>
			<point x="11" y="-87"/>
		</contour>
		<contour>
			<point x="166" y="305" type="curve" smooth="yes"/>
			<point x="166" y="379"/>
			<point name=".hr05" x="184" y="406"/>
			<point x="223" y="406" type="curve" smooth="yes"/>
			<point x="270" y="406"/>
			<point x="290" y="367"/>
			<point x="290" y="288" type="curve" smooth="yes"/>
			<point x="290" y="192"/>
			<point x="262" y="180"/>
			<point x="236" y="180" type="curve" smooth="yes"/>
			<point x="174" y="180"/>
			<point x="166" y="254"/>
		</contour>
	</outline>
	<anchor name="m.uni0302" x="231" y="645"/>
	<anchor name="m.uni0316_2" x="229" y="-319"/>
	<anchor name="m.uni031A_3" x="492" y="580"/>
</glyph>
<glyph name="j" format="2">
	<unicode hex="006A"/>
	<advance width="312"/>
	<outline>
		<component base="uni0237"/>
		<contour>
			<point x="95" y="596" type="curve" smooth="yes"/>
			<point x="95" y="563"/>
			<point x="119" y="530"/>
			<point x="159" y="530" type="curve" smooth="yes"/>
			<point x="204" y="530"/>
			<point x="230" y="566"/>
			<point x="230" y="592" type="curve" smooth="yes"/>
			<point x="230" y="622"/>
			<point x="207" y="658"/>
			<point x="165" y="658" type="curve" smooth="yes"/>
			<point x="118" y="658"/>
			<point x="95" y="626"/>
		</contour>
	</outline>
	<anchor name="m.uni0316_2" x="109" y="-319"/>
</glyph>
<glyph name="l" format="2">
	<unicode hex="006C"/>
	<advance width="325"/>
	<outline>
		<contour>
			<point x="100" y="127" type="line" smooth="yes"/>
			<point x="100" y="44"/>
			<point x="84" y="35"/>
			<point x="23" y="32" type="curve"/>
			<point x="17" y="26"/>
			<point x="17" y="4"/>
			<point x="23" y="-2" type="curve"/>
			<point x="65" y="-1"/>
			<point x="110" y="0"/>
			<point x="165" y="0" type="curve" smooth="yes"/>
			<point x="220" y="0"/>
			<point x="264" y="-1"/>
			<point x="307" y="-2" type="curve"/>
			<point x="313" y="4"/>
			<point x="313" y="26"/>
			<point x="307" y="32" type="curve"/>
			<point x="246" y="35"/>
			<point x="230" y="44"/>
			<point x="230" y="127" type="curve" smooth="yes"/>
			<point x="230" y="581" type="line" smooth="yes"/>
			<point x="230" y="647"/>
			<point x="233" y="681"/>
			<point x="233" y="686" type="curve" smooth="yes"/>
			<point x="233" y="694"/>
			<point x="226" y="698"/>
			<point x="217" y="698" type="curve"/>
			<point x="180" y="686"/>
			<point x="100" y="675"/>
			<point x="29" y="672" type="curve"/>
			<point x="26" y="659"/>
			<point x="27" y="648"/>
			<point x="32" y="638" type="curve"/>
			<point x="95" y="633"/>
			<point x="100" y="632"/>
			<point x="100" y="563" type="curve" smooth="yes"/>
		</contour>
	</outline>
	<anchor name="m.uni0302" x="125" y="885"/>
	<anchor name="m.uni0316_2" x="135" y="-110"/>
	<anchor name="m.uni031A_3" x="249" y="733"/>
</glyph>
<glyph name="m" format="2">
	<unicode hex="006D"/>
	<advance width="905"/>
	<outline>
		<contour>
			<point x="810" y="130" type="line"/>
			<point x="810" y="282" type="line" smooth="yes"/>
			<point x="810" y="392"/>
			<point x="770" y="442"/>
			<point x="684" y="442" type="curve" smooth="yes"/>
			<point x="644" y="442"/>
			<point x="550" y="396"/>
			<point x="492" y="363" type="curve"/>
			<point x="499" y="328" type="line"/>
			<point x="540" y="352"/>
			<point x="594" y="368"/>
			<point x="612" y="368" type="curve" smooth="yes"/>
			<point x="652" y="368"/>
			<point x="680" y="350"/>
			<point x="680" y="293" type="curve" smooth="yes"/>
			<point x="680" y="130" type="line"/>
		</contour>
		<contour>
			<point x="519" y="130" type="line"/>
			<point x="519" y="282" type="line" smooth="yes"/>
			<point x="519" y="367"/>
			<point x="492" y="442"/>
			<point x="391" y="442" type="curve" smooth="yes"/>
			<point x="352" y="442"/>
			<point x="271" y="397"/>
			<point x="212" y="364" type="curve"/>
			<point x="210" y="322" type="line"/>
			<point x="256" y="355"/>
			<point x="299" y="368"/>
			<point x="319" y="368" type="curve" smooth="yes"/>
			<point x="359" y="368"/>
			<point x="389" y="350"/>
			<point x="389" y="293" type="curve" smooth="yes"/>
			<point x="389" y="130" type="line"/>
		</contour>
		<contour>
			<point x="228" y="130" type="line"/>
			<point x="228" y="319" type="line" smooth="yes"/>
			<point x="228" y="355"/>
			<point x="224" y="405"/>
			<point x="221" y="421" type="curve" smooth="yes"/>
			<point x="218" y="437"/>
			<point x="211" y="442"/>
			<point x="197" y="442" type="curve"/>
			<point x="160" y="432"/>
			<point x="100" y="418"/>
			<point x="31" y="409" type="curve"/>
			<point x="29" y="403"/>
			<point x="31" y="383"/>
			<point x="33" y="377" type="curve"/>
			<point x="88" y="372"/>
			<point x="98" y="364"/>
			<point x="98" y="307" type="curve" smooth="yes"/>
			<point x="98" y="130" type="line"/>
		</contour>
		<contour>
			<point x="98" y="130" type="line"/>
			<point x="98" y="40"/>
			<point x="87" y="38"/>
			<point x="26" y="32" type="curve"/>
			<point x="20" y="26"/>
			<point x="20" y="4"/>
			<point x="26" y="-2" type="curve"/>
			<point x="68" y="-1"/>
			<point x="110" y="0"/>
			<point x="163" y="0" type="curve" smooth="yes"/>
			<point x="209" y="0"/>
			<point x="237" y="-1"/>
			<point x="280" y="-2" type="curve"/>
			<point x="286" y="4"/>
			<point x="286" y="26"/>
			<point x="280" y="32" type="curve"/>
			<point x="238" y="36"/>
			<point x="228" y="40"/>
			<point x="228" y="130" type="curve"/>
		</contour>
		<contour>
			<point x="389" y="130" type="line"/>
			<point x="389" y="40"/>
			<point x="381" y="38"/>
			<point x="337" y="32" type="curve"/>
			<point x="331" y="26"/>
			<point x="331" y="4"/>
			<point x="337" y="-2" type="curve"/>
			<point x="373" y="-1"/>
			<point x="409" y="0"/>
			<point x="454" y="0" type="curve" smooth="yes"/>
			<point x="500" y="0"/>
			<point x="528" y="-1"/>
			<point x="571" y="-2" type="curve"/>
			<point x="577" y="4"/>
			<point x="577" y="26"/>
			<point x="571" y="32" type="curve"/>
			<point x="529" y="36"/>
			<point x="519" y="40"/>
			<point x="519" y="130" type="curve"/>
		</contour>
		<contour>
			<point x="680" y="130" type="line"/>
			<point x="680" y="40"/>
			<point x="672" y="38"/>
			<point x="628" y="32" type="curve"/>
			<point x="622" y="26"/>
			<point x="622" y="4"/>
			<point x="628" y="-2" type="curve"/>
			<point x="664" y="-1"/>
			<point x="700" y="0"/>
			<point x="745" y="0" type="curve" smooth="yes"/>
			<point x="799" y="0"/>
			<point x="831" y="-1"/>
			<point x="882" y="-2" type="curve"/>
			<point x="888" y="4"/>
			<point x="888" y="26"/>
			<point x="882" y="32" type="curve"/>
			<point x="824" y="36"/>
			<point x="810" y="40"/>
			<point x="810" y="130" type="curve"/>
		</contour>
	</outline>
	<anchor name="m.uni0302" x="392" y="645"/>
	<anchor name="m.uni0316_2" x="455" y="-110"/>
</glyph>
<glyph name="n" format="2">
	<unicode hex="006E"/>
	<advance width="616"/>
	<outline>
		<contour>
			<point x="26" y="-2" type="curve"/>
			<point x="68" y="-1"/>
			<point x="110" y="0"/>
			<point x="163" y="0" type="curve" smooth="yes"/>
			<point x="209" y="0"/>
			<point x="237" y="-1"/>
			<point x="280" y="-2" type="curve"/>
			<point x="286" y="4"/>
			<point x="286" y="26"/>
			<point x="280" y="32" type="curve"/>
			<point x="238" y="36"/>
			<point x="228" y="39"/>
			<point x="228" y="122" type="curve" smooth="yes"/>
			<point x="228" y="323" type="line"/>
			<point x="268" y="350"/>
			<point x="308" y="370"/>
			<point x="326" y="370" type="curve" smooth="yes"/>
			<point x="366" y="370"/>
			<point x="396" y="352"/>
			<point x="396" y="295" type="curve" smooth="yes"/>
			<point x="396" y="128" type="line" smooth="yes"/>
			<point x="396" y="44"/>
			<point x="380" y="35"/>
			<point x="339" y="32" type="curve"/>
			<point x="333" y="26"/>
			<point x="333" y="4"/>
			<point x="339" y="-2" type="curve"/>
			<point x="381" y="-1"/>
			<point x="413" y="0"/>
			<point x="461" y="0" type="curve" smooth="yes"/>
			<point x="516" y="0"/>
			<point x="560" y="-1"/>
			<point x="603" y="-2" type="curve"/>
			<point x="609" y="4"/>
			<point x="609" y="26"/>
			<point x="603" y="32" type="curve"/>
			<point x="542" y="35"/>
			<point x="526" y="44"/>
			<point x="526" y="128" type="curve" smooth="yes"/>
			<point x="526" y="284" type="line" smooth="yes"/>
			<point x="526" y="394"/>
			<point x="479" y="444"/>
			<point x="393" y="444" type="curve" smooth="yes"/>
			<point x="350" y="444"/>
			<point x="273" y="394"/>
			<point x="217" y="355" type="curve"/>
			<point x="229" y="341" type="line"/>
			<point x="225" y="388"/>
			<point x="221" y="418"/>
			<point x="220" y="427" type="curve"/>
			<point x="219" y="439"/>
			<point x="211" y="444"/>
			<point x="197" y="444" type="curve"/>
			<point x="160" y="434"/>
			<point x="100" y="420"/>
			<point x="31" y="411" type="curve"/>
			<point x="29" y="405"/>
			<point x="31" y="385"/>
			<point x="33" y="379" type="curve"/>
			<point x="88" y="374"/>
			<point x="98" y="366"/>
			<point x="98" y="309" type="curve" smooth="yes"/>
			<point x="98" y="122" type="line" smooth="yes"/>
			<point x="98" y="39"/>
			<point x="87" y="37"/>
			<point x="26" y="32" type="curve"/>
			<point x="20" y="26"/>
			<point x="20" y="4"/>
		</contour>
	</outline>
	<anchor name="t.uni0302" x="277" y="500"/>
	<anchor name="m.uni0316_2" x="265" y="-110"/>
</glyph>
<glyph name="p" format="2">
	<unicode hex="0070"/>
	<advance width="581"/>
	<outline>
		<contour>
			<point x="23" y="-234" type="curve"/>
			<point x="65" y="-233"/>
			<point x="107" y="-232"/>
			<point x="160" y="-232" type="curve" smooth="yes"/>
			<point x="213" y="-232"/>
			<point x="254" y="-233"/>
			<point x="297" y="-234" type="curve"/>
			<point x="303" y="-228"/>
			<point x="303" y="-206"/>
			<point x="297" y="-200" type="curve"/>
			<point x="236" y="-196"/>
			<point x="225" y="-193"/>
			<point x="225" y="-110" type="curve" smooth="yes"/>
			<point x="225" y="321" type="line" smooth="yes"/>
			<point x="225" y="356"/>
			<point x="221" y="392"/>
			<point x="217" y="427" type="curve"/>
			<point x="215" y="439"/>
			<point x="208" y="444"/>
			<point x="194" y="444" type="curve"/>
			<point x="157" y="434"/>
			<point x="97" y="420"/>
			<point x="28" y="411" type="curve"/>
			<point x="26" y="405"/>
			<point x="28" y="385"/>
			<point x="30" y="379" type="curve"/>
			<point x="85" y="374"/>
			<point x="95" y="366"/>
			<point x="95" y="309" type="curve" smooth="yes"/>
			<point x="95" y="-110" type="line" smooth="yes"/>
			<point x="95" y="-193"/>
			<point x="84" y="-195"/>
			<point x="23" y="-200" type="curve"/>
			<point x="17" y="-206"/>
			<point x="17" y="-228"/>
		</contour>
		<contour>
			<point x="210" y="15" type="line"/>
			<point x="238" y="-1"/>
			<point x="263" y="-10"/>
			<point x="292" y="-10" type="curve" smooth="yes"/>
			<point x="444" y="-10"/>
			<point x="543" y="90"/>
			<point x="543" y="237" type="curve" smooth="yes"/>
			<point x="543" y="358"/>
			<point x="468" y="444"/>
			<point x="346" y="444" type="curve" smooth="yes"/>
			<point x="317" y="444"/>
			<point x="263" y="409"/>
			<point x="228" y="377" type="curve"/>
			<point x="212" y="377" type="line"/>
			<point x="212" y="325" type="line"/>
			<point x="242" y="360"/>
			<point x="288" y="377"/>
			<point x="314" y="377" type="curve" smooth="yes"/>
			<point x="355" y="377"/>
			<point x="403" y="327"/>
			<point x="403" y="210" type="curve" smooth="yes"/>
			<point x="403" y="126"/>
			<point x="373" y="32"/>
			<point x="286" y="32" type="curve" smooth="yes"/>
			<point x="273" y="32"/>
			<point x="239" y="41"/>
			<point x="210" y="85" type="curve"/>
		</contour>
	</outline>
	<anchor name="m.uni0302" x="271" y="646"/>
	<anchor name="m.uni0316_2" x="179" y="-319"/>
	<anchor name="m.uni031A_3" x="429" y="580"/>
	<anchor name="t.uni0302" x="276" y="500"/>
</glyph>
<glyph name="q" format="2">
	<unicode hex="0071"/>
	<advance width="573"/>
	<outline>
		<contour>
			<point x="36" y="208" type="curve" smooth="yes"/>
			<point x="36" y="80"/>
			<point x="112" y="-10"/>
			<point x="241" y="-10" type="curve" smooth="yes"/>
			<point x="268" y="-10"/>
			<point x="331" y="17"/>
			<point x="348" y="28" type="curve"/>
			<point x="353" y="28" type="line"/>
			<point x="353" y="-110" type="line" smooth="yes"/>
			<point x="353" y="-193"/>
			<point x="342" y="-195"/>
			<point x="281" y="-200" type="curve"/>
			<point x="275" y="-206"/>
			<point x="275" y="-228"/>
			<point x="281" y="-234" type="curve"/>
			<point x="323" y="-233"/>
			<point x="365" y="-232"/>
			<point x="418" y="-232" type="curve" smooth="yes"/>
			<point x="471" y="-232"/>
			<point x="512" y="-233"/>
			<point x="555" y="-234" type="curve"/>
			<point x="561" y="-228"/>
			<point x="561" y="-206"/>
			<point x="555" y="-200" type="curve"/>
			<point x="494" y="-196"/>
			<point x="483" y="-193"/>
			<point x="483" y="-110" type="curve" smooth="yes"/>
			<point x="483" y="321" type="line" smooth="yes"/>
			<point x="483" y="371"/>
			<point x="487" y="421"/>
			<point x="487" y="427" type="curve" smooth="yes"/>
			<point x="487" y="438"/>
			<point x="478" y="444"/>
			<point x="464" y="444" type="curve" smooth="yes"/>
			<point x="451" y="444"/>
			<point x="414" y="427"/>
			<point x="392" y="407" type="curve"/>
			<point x="370" y="424"/>
			<point x="336" y="444"/>
			<point x="288" y="444" type="curve" smooth="yes"/>
			<point x="155" y="444"/>
			<point x="36" y="341"/>
		</contour>
		<contour>
			<point x="176" y="229" type="curve" smooth="yes"/>
			<point x="176" y="329"/>
			<point x="220" y="402"/>
			<point x="285" y="402" type="curve" smooth="yes"/>
			<point x="309" y="402"/>
			<point x="331" y="393"/>
			<point x="353" y="366" type="curve"/>
			<point x="353" y="71" type="line"/>
			<point x="334" y="56"/>
			<point x="300" y="46"/>
			<point x="288" y="46" type="curve" smooth="yes"/>
			<point x="238" y="46"/>
			<point x="176" y="82"/>
		</contour>
	</outline>
	<anchor name="m.uni0302" x="238" y="645"/>
	<anchor name="m.uni0316_2" x="348" y="-319"/>
	<anchor name="m.uni031A_3" x="469" y="732"/>
</glyph>
<glyph name="s" format="2">
	<unicode hex="0073"/>
	<advance width="427"/>
	<outline>
		<contour>
			<point x="48" y="146" type="curve"/>
			<point x="52" y="97"/>
			<point x="52" y="36"/>
			<point x="60" y="-2" type="curve"/>
			<point x="65" y="0"/>
			<point x="72" y="1"/>
			<point x="81" y="1" type="curve" smooth="yes"/>
			<point x="95" y="1"/>
			<point x="113" y="-1"/>
			<point x="132" y="-4" type="curve" smooth="yes"/>
			<point x="154" y="-7"/>
			<point x="178" y="-10"/>
			<point x="199" y="-10" type="curve" smooth="yes"/>
			<point x="281" y="-10"/>
			<point x="377" y="32"/>
			<point x="377" y="126" type="curve" smooth="yes"/>
			<point x="377" y="189"/>
			<point x="330" y="228"/>
			<point x="280" y="257" type="curve" smooth="yes"/>
			<point x="238" y="281"/>
			<point name=".hr01" x="176" y="295"/>
			<point x="176" y="355" type="curve" smooth="yes"/>
			<point x="176" y="383"/>
			<point x="195" y="402"/>
			<point x="223" y="402" type="curve" smooth="yes"/>
			<point x="259" y="402"/>
			<point x="293" y="370"/>
			<point x="318" y="309" type="curve"/>
			<point x="331" y="306"/>
			<point x="339" y="307"/>
			<point x="347" y="314" type="curve"/>
			<point x="354" y="349"/>
			<point x="357" y="385"/>
			<point x="360" y="416" type="curve"/>
			<point x="319" y="423"/>
			<point x="288" y="444"/>
			<point x="218" y="444" type="curve" smooth="yes"/>
			<point x="122" y="444"/>
			<point x="63" y="395"/>
			<point x="63" y="314" type="curve" smooth="yes"/>
			<point x="63" y="256"/>
			<point x="112" y="217"/>
			<point x="156" y="187" type="curve" smooth="yes"/>
			<point x="197" y="159"/>
			<point x="261" y="141"/>
			<point x="261" y="81" type="curve" smooth="yes"/>
			<point x="261" y="46"/>
			<point x="229" y="29"/>
			<point x="202" y="29" type="curve" smooth="yes"/>
			<point x="157" y="29"/>
			<point x="109" y="75"/>
			<point name=".hr02" x="88" y="148" type="curve"/>
			<point x="72" y="151"/>
			<point x="64" y="150"/>
		</contour>
	</outline>
	<anchor name="t.uni0302" x="206" y="500"/>
	<anchor name="m.uni0316_2" x="196" y="-110"/>
	<anchor name="m.uni031A_3" x="366" y="580"/>
	<anchor name="b.uni0321_4" x="290" y="13"/>
</glyph>
<glyph name="u" format="2">
	<unicode hex="0075"/>
	<advance width="598"/>
	<outline>
		<contour>
			<point x="217" y="-10" type="curve" smooth="yes"/>
			<point x="256" y="-10"/>
			<point x="338" y="24"/>
			<point x="398" y="59" type="curve"/>
			<point x="401" y="104" type="line"/>
			<point x="351" y="67"/>
			<point x="310" y="64"/>
			<point x="289" y="64" type="curve" smooth="yes"/>
			<point x="249" y="64"/>
			<point x="219" y="69"/>
			<point x="219" y="139" type="curve" smooth="yes"/>
			<point x="219" y="306" type="line" smooth="yes"/>
			<point x="219" y="390"/>
			<point x="221" y="378"/>
			<point x="221" y="402" type="curve" smooth="yes"/>
			<point x="221" y="419"/>
			<point x="217" y="430"/>
			<point x="211" y="436" type="curve"/>
			<point x="193" y="435"/>
			<point x="172" y="434"/>
			<point x="154" y="434" type="curve" smooth="yes"/>
			<point x="103" y="434"/>
			<point x="65" y="435"/>
			<point x="22" y="436" type="curve"/>
			<point x="16" y="430"/>
			<point x="16" y="408"/>
			<point x="22" y="402" type="curve"/>
			<point x="68" y="400"/>
			<point x="89" y="390"/>
			<point x="89" y="306" type="curve" smooth="yes"/>
			<point x="89" y="150" type="line" smooth="yes"/>
			<point x="89" y="44"/>
			<point x="131" y="-10"/>
		</contour>
		<contour>
			<point x="388" y="7" type="curve"/>
			<point x="389" y="-5"/>
			<point x="397" y="-10"/>
			<point x="411" y="-10" type="curve"/>
			<point x="448" y="0"/>
			<point x="508" y="14"/>
			<point x="577" y="23" type="curve"/>
			<point name=".hr01" x="579" y="29"/>
			<point x="577" y="49"/>
			<point x="575" y="55" type="curve"/>
			<point x="521" y="60"/>
			<point x="510" y="76"/>
			<point x="510" y="133" type="curve" smooth="yes"/>
			<point x="510" y="306" type="line" smooth="yes"/>
			<point x="510" y="390"/>
			<point x="512" y="378"/>
			<point x="512" y="402" type="curve" smooth="yes"/>
			<point x="512" y="419"/>
			<point x="508" y="430"/>
			<point x="502" y="436" type="curve"/>
			<point x="484" y="435"/>
			<point x="464" y="434"/>
			<point x="445" y="434" type="curve" smooth="yes"/>
			<point x="417" y="434"/>
			<point x="352" y="435"/>
			<point x="313" y="436" type="curve"/>
			<point x="307" y="430"/>
			<point x="307" y="408"/>
			<point x="313" y="402" type="curve"/>
			<point x="364" y="397"/>
			<point x="380" y="390"/>
			<point x="380" y="306" type="curve" smooth="yes"/>
			<point x="380" y="121" type="line" smooth="yes"/>
			<point x="380" y="83"/>
			<point x="383" y="45"/>
		</contour>
	</outline>
	<anchor name="t.uni0302" x="266" y="500"/>
	<anchor name="m.uni0316_2" x="239" y="-110"/>
	<anchor name="b.uni0321_4" x="293" y="7"/>
</glyph>
<glyph name="w" format="2">
	<unicode hex="0077"/>
	<advance width="777"/>
	<outline>
		<contour>
			<point x="249" y="-12" type="curve" smooth="yes"/>
			<point x="259" y="-12"/>
			<point x="278" y="-10"/>
			<point x="286" y="11" type="curve" smooth="yes"/>
			<point x="380" y="257" type="line"/>
			<point x="476" y="9" type="line" smooth="yes"/>
			<point x="483" y="-9"/>
			<point x="502" y="-12"/>
			<point x="515" y="-12" type="curve" smooth="yes"/>
			<point x="525" y="-12"/>
			<point x="542" y="-9"/>
			<point x="550" y="11" type="curve" smooth="yes"/>
			<point x="673" y="316" type="line" smooth="yes"/>
			<point x="690" y="359"/>
			<point x="707" y="397"/>
			<point x="763" y="402" type="curve"/>
			<point x="769" y="408"/>
			<point x="769" y="430"/>
			<point x="763" y="436" type="curve"/>
			<point x="741" y="435"/>
			<point x="723" y="434"/>
			<point x="697" y="434" type="curve" smooth="yes"/>
			<point x="660" y="434"/>
			<point x="617" y="435"/>
			<point x="580" y="436" type="curve"/>
			<point x="574" y="430"/>
			<point x="574" y="408"/>
			<point x="580" y="402" type="curve"/>
			<point x="634" y="398"/>
			<point x="638" y="372"/>
			<point x="620" y="323" type="curve" smooth="yes"/>
			<point x="562" y="165" type="line"/>
			<point x="558" y="153"/>
			<point x="552" y="154"/>
			<point x="548" y="164" type="curve"/>
			<point x="489" y="339" type="line" smooth="yes"/>
			<point x="475" y="381"/>
			<point x="469" y="397"/>
			<point x="528" y="402" type="curve"/>
			<point x="534" y="408"/>
			<point x="534" y="430"/>
			<point x="528" y="436" type="curve"/>
			<point x="491" y="435"/>
			<point x="448" y="434"/>
			<point x="397" y="434" type="curve" smooth="yes"/>
			<point x="365" y="434"/>
			<point x="319" y="435"/>
			<point x="285" y="436" type="curve"/>
			<point x="279" y="430"/>
			<point x="279" y="408"/>
			<point x="285" y="402" type="curve"/>
			<point x="335" y="395"/>
			<point x="334" y="376"/>
			<point x="354" y="325" type="curve" smooth="yes"/>
			<point x="357" y="317" type="line"/>
			<point x="300" y="160" type="line"/>
			<point x="297" y="153"/>
			<point x="293" y="151"/>
			<point x="289" y="161" type="curve"/>
			<point x="229" y="339" type="line" smooth="yes"/>
			<point x="215" y="380"/>
			<point x="215" y="397"/>
			<point x="257" y="402" type="curve"/>
			<point x="263" y="408"/>
			<point x="263" y="430"/>
			<point x="257" y="436" type="curve"/>
			<point x="223" y="435"/>
			<point x="184" y="434"/>
			<point x="137" y="434" type="curve" smooth="yes"/>
			<point x="102" y="434"/>
			<point x="51" y="435"/>
			<point x="14" y="436" type="curve"/>
			<point x="8" y="430"/>
			<point x="8" y="408"/>
			<point x="14" y="402" type="curve"/>
			<point x="72" y="395"/>
			<point x="75" y="376"/>
			<point x="94" y="325" type="curve" smooth="yes"/>
			<point x="216" y="9" type="line" smooth="yes"/>
			<point x="223" y="-10"/>
			<point x="236" y="-12"/>
		</contour>
	</outline>
	<anchor name="m.uni0302" x="345" y="646"/>
	<anchor name="m.uni0316_2" x="352" y="-110"/>
	<anchor name="m.uni031A_3" x="719" y="580"/>
</glyph>
<glyph name="bar" format="2">
	<unicode hex="007C"/>
	<advance width="220"/>
	<outline>
		<contour>
			<point x="140" y="-233" type="line"/>
			<point x="140" y="698" type="line"/>
			<point x="80" y="698" type="line"/>
			<point x="80" y="-233" type="line"/>
		</contour>
	</outline>
</glyph>
<glyph name="asciitilde" format="2">
	<unicode hex="007E"/>
	<advance width="473"/>
	<outline>
		<contour>
			<point x="152" y="268" type="curve" smooth="yes"/>
			<point x="175" y="268"/>
			<point x="190" y="263"/>
			<point x="211" y="244" type="curve" smooth="yes"/>
			<point x="237" y="220"/>
			<point name=".hr01" x="278" y="207"/>
			<point x="303" y="207" type="curve" smooth="yes"/>
			<point x="342" y="207"/>
			<point x="421" y="224"/>
			<point x="450" y="312" type="curve"/>
			<point x="448" y="318"/>
			<point x="442" y="332"/>
			<point name=".hr02" x="434" y="341" type="curve"/>
			<point x="431" y="342"/>
			<point x="427" y="343"/>
			<point x="424" y="344" type="curve"/>
			<point x="400" y="287"/>
			<point name=".hr03" x="346" y="280"/>
			<point x="318" y="280" type="curve" smooth="yes"/>
			<point x="307" y="280"/>
			<point x="283" y="290"/>
			<point x="263" y="309" type="curve" smooth="yes"/>
			<point x="261" y="311"/>
			<point x="258" y="313"/>
			<point x="256" y="315" type="curve"/>
			<point x="233" y="333"/>
			<point name=".hr04" x="197" y="341"/>
			<point x="167" y="341" type="curve" smooth="yes"/>
			<point x="165" y="341"/>
			<point x="163" y="341"/>
			<point x="160" y="341" type="curve"/>
			<point x="119" y="339"/>
			<point x="47" y="319"/>
			<point x="20" y="236" type="curve"/>
			<point x="22" y="230"/>
			<point x="28" y="216"/>
			<point name=".hr05" x="36" y="207" type="curve"/>
			<point x="39" y="206"/>
			<point x="43" y="205"/>
			<point x="46" y="204" type="curve"/>
			<point x="70" y="261"/>
			<point name=".hr06" x="124" y="268"/>
		</contour>
	</outline>
</glyph>
<glyph name="sterling" format="2">
	<unicode hex="00A3"/>
	<advance width="540"/>
	<outline>
		<contour>
			<point x="82" y="292" type="curve" smooth="yes"/>
			<point x="132" y="292" type="line"/>
			<point x="132" y="284" type="line" smooth="yes"/>
			<point x="132" y="165"/>
			<point x="115" y="121"/>
			<point x="97" y="100" type="curve"/>
			<point x="93" y="98"/>
			<point x="88" y="96"/>
			<point x="84" y="94" type="curve" smooth="yes"/>
			<point x="78" y="91"/>
			<point x="71" y="87"/>
			<point x="65" y="82" type="curve"/>
			<point x="40" y="65"/>
			<point x="18" y="38"/>
			<point x="18" y="15" type="curve" smooth="yes"/>
			<point x="18" y="-2"/>
			<point x="30" y="-18"/>
			<point x="52" y="-18" type="curve" smooth="yes"/>
			<point x="82" y="-18"/>
			<point x="113" y="-4"/>
			<point x="113" y="25" type="curve" smooth="yes"/>
			<point x="113" y="38"/>
			<point x="116" y="52"/>
			<point x="151" y="52" type="curve" smooth="yes"/>
			<point x="170" y="52"/>
			<point x="192" y="44"/>
			<point x="215" y="29" type="curve" smooth="yes"/>
			<point x="244" y="11"/>
			<point name=".hr01" x="283" y="-10"/>
			<point x="327" y="-10" type="curve" smooth="yes"/>
			<point x="402" y="-10"/>
			<point x="449" y="53"/>
			<point x="468" y="105" type="curve"/>
			<point x="464" y="112"/>
			<point x="454" y="118"/>
			<point x="445" y="120" type="curve"/>
			<point x="419" y="85"/>
			<point x="375" y="64"/>
			<point x="345" y="64" type="curve" smooth="yes"/>
			<point x="325" y="64"/>
			<point x="311" y="71"/>
			<point x="295" y="80" type="curve" smooth="yes"/>
			<point x="271" y="93"/>
			<point name=".hr02" x="240" y="109"/>
			<point x="171" y="109" type="curve"/>
			<point x="209" y="138"/>
			<point x="258" y="184"/>
			<point x="262" y="292" type="curve"/>
			<point x="335" y="292" type="line" smooth="yes"/>
			<point x="338" y="292"/>
			<point x="342" y="292"/>
			<point x="346" y="293" type="curve"/>
			<point x="364" y="294"/>
			<point x="383" y="300"/>
			<point x="383" y="312" type="curve" smooth="yes"/>
			<point x="383" y="328" type="line" smooth="yes"/>
			<point x="383" y="331"/>
			<point x="380" y="334"/>
			<point x="375" y="336" type="curve"/>
			<point x="369" y="338"/>
			<point x="362" y="339"/>
			<point x="352" y="339" type="curve" smooth="yes"/>
			<point x="262" y="339" type="line"/>
			<point x="262" y="414" type="line" smooth="yes"/>
			<point x="262" y="502"/>
			<point x="274" y="574"/>
			<point x="321" y="574" type="curve" smooth="yes"/>
			<point x="343" y="574"/>
			<point x="342" y="548"/>
			<point x="358" y="531" type="curve"/>
			<point x="372" y="517"/>
			<point x="388" y="505"/>
			<point x="406" y="505" type="curve" smooth="yes"/>
			<point x="440" y="505"/>
			<point x="463" y="528"/>
			<point x="463" y="562" type="curve" smooth="yes"/>
			<point x="463" y="609"/>
			<point x="392" y="614"/>
			<point x="369" y="614" type="curve" smooth="yes"/>
			<point x="315" y="614"/>
			<point x="259" y="597"/>
			<point x="218" y="560" type="curve"/>
			<point x="168" y="512"/>
			<point x="132" y="459"/>
			<point x="132" y="363" type="curve" smooth="yes"/>
			<point x="132" y="339" type="line"/>
			<point x="101" y="339" type="line" smooth="yes"/>
			<point x="95" y="339"/>
			<point x="90" y="339"/>
			<point x="85" y="338" type="curve"/>
			<point x="62" y="336"/>
			<point x="54" y="327"/>
			<point x="54" y="319" type="curve" smooth="yes"/>
			<point x="54" y="303" type="line" smooth="yes"/>
			<point x="54" y="300"/>
			<point x="55" y="297"/>
			<point x="59" y="295" type="curve"/>
			<point x="64" y="293"/>
			<point x="71" y="292"/>
		</contour>
	</outline>
</glyph>
<glyph name="currency" format="2">
	<unicode hex="00A4"/>
	<advance width="463"/>
	<outline>
		<contour>
			<point x="230" y="122" type="curve" smooth="yes"/>
			<point x="269" y="122"/>
			<point x="303" y="132"/>
			<point x="333" y="149" type="curve"/>
			<point x="384" y="91" type="line"/>
			<point x="438" y="149" type="line"/>
			<point x="423" y="162"/>
			<point x="402" y="180"/>
			<point x="386" y="193" type="curve"/>
			<point x="412" y="228"/>
			<point x="427" y="263"/>
			<point x="427" y="299" type="curve" smooth="yes"/>
			<point x="427" y="337"/>
			<point x="413" y="372"/>
			<point x="385" y="406" type="curve"/>
			<point x="440" y="451" type="line"/>
			<point x="382" y="512" type="line"/>
			<point x="371" y="498"/>
			<point x="347" y="470"/>
			<point x="331" y="451" type="curve"/>
			<point x="302" y="467"/>
			<point x="272" y="477"/>
			<point x="232" y="477" type="curve" smooth="yes"/>
			<point x="193" y="477"/>
			<point x="160" y="468"/>
			<point x="130" y="452" type="curve"/>
			<point x="80" y="507" type="line"/>
			<point x="25" y="450" type="line"/>
			<point x="40" y="437"/>
			<point x="61" y="421"/>
			<point x="77" y="409" type="curve"/>
			<point x="48" y="374"/>
			<point x="33" y="338"/>
			<point x="33" y="299" type="curve" smooth="yes"/>
			<point x="33" y="261"/>
			<point x="48" y="226"/>
			<point x="76" y="191" type="curve"/>
			<point x="23" y="148" type="line"/>
			<point x="84" y="89" type="line"/>
			<point x="95" y="103"/>
			<point x="116" y="129"/>
			<point x="130" y="147" type="curve"/>
			<point x="159" y="131"/>
			<point x="192" y="122"/>
		</contour>
		<contour>
			<point x="114" y="300" type="curve" smooth="yes"/>
			<point x="114" y="369"/>
			<point x="167" y="422"/>
			<point x="232" y="422" type="curve" smooth="yes"/>
			<point x="290" y="422"/>
			<point x="346" y="371"/>
			<point x="346" y="299" type="curve" smooth="yes"/>
			<point x="346" y="231"/>
			<point x="297" y="177"/>
			<point x="230" y="177" type="curve" smooth="yes"/>
			<point x="164" y="177"/>
			<point x="114" y="230"/>
		</contour>
	</outline>
</glyph>
<glyph name="yen" format="2">
	<unicode hex="00A5"/>
	<advance width="540"/>
	<outline>
		<contour>
			<point x="478" y="177" type="line"/>
			<point x="473" y="177"/>
			<point x="468" y="177"/>
			<point x="464" y="177" type="curve" smooth="yes"/>
			<point x="349" y="177" type="line"/>
			<point x="349" y="245" type="line"/>
			<point x="449" y="245" type="line" smooth="yes"/>
			<point x="459" y="245"/>
			<point x="468" y="245"/>
			<point x="478" y="245" type="curve"/>
			<point x="478" y="273" type="line" smooth="yes"/>
			<point x="478" y="278"/>
			<point x="478" y="282"/>
			<point x="478" y="287" type="curve"/>
			<point x="473" y="287"/>
			<point x="468" y="287"/>
			<point x="464" y="287" type="curve" smooth="yes"/>
			<point x="349" y="287" type="line"/>
			<point x="350" y="312"/>
			<point x="353" y="323"/>
			<point x="367" y="351" type="curve" smooth="yes"/>
			<point x="432" y="484" type="line" smooth="yes"/>
			<point x="436" y="492"/>
			<point x="441" y="501"/>
			<point x="445" y="510" type="curve" smooth="yes"/>
			<point x="463" y="549"/>
			<point x="487" y="564"/>
			<point x="532" y="568" type="curve"/>
			<point x="538" y="574"/>
			<point x="538" y="596"/>
			<point x="532" y="602" type="curve"/>
			<point x="507" y="601"/>
			<point x="482" y="600"/>
			<point x="461" y="600" type="curve" smooth="yes"/>
			<point x="457" y="600"/>
			<point x="453" y="600"/>
			<point x="449" y="600" type="curve" smooth="yes"/>
			<point x="426" y="600"/>
			<point x="388" y="601"/>
			<point x="348" y="602" type="curve"/>
			<point x="342" y="596"/>
			<point x="342" y="574"/>
			<point x="348" y="568" type="curve"/>
			<point x="392" y="565"/>
			<point x="410" y="560"/>
			<point x="398" y="531" type="curve" smooth="yes"/>
			<point x="394" y="521"/>
			<point x="390" y="511"/>
			<point x="385" y="502" type="curve"/>
			<point x="383" y="497"/>
			<point x="381" y="492"/>
			<point x="379" y="487" type="curve" smooth="yes"/>
			<point x="329" y="370" type="line"/>
			<point x="329" y="370" type="line"/>
			<point x="324" y="359"/>
			<point x="319" y="353"/>
			<point x="314" y="354" type="curve" smooth="yes"/>
			<point x="309" y="355"/>
			<point x="304" y="361"/>
			<point x="298" y="373" type="curve" smooth="yes"/>
			<point x="223" y="531" type="line"/>
			<point x="223" y="531" type="line"/>
			<point x="211" y="555"/>
			<point x="213" y="565"/>
			<point x="269" y="568" type="curve"/>
			<point x="275" y="574"/>
			<point x="275" y="596"/>
			<point x="269" y="602" type="curve"/>
			<point x="229" y="601"/>
			<point x="190" y="600"/>
			<point x="150" y="600" type="curve" smooth="yes"/>
			<point x="141" y="600"/>
			<point x="131" y="600"/>
			<point x="120" y="600" type="curve" smooth="yes"/>
			<point x="83" y="600"/>
			<point x="36" y="601"/>
			<point x="13" y="602" type="curve"/>
			<point x="7" y="596"/>
			<point x="8" y="574"/>
			<point x="14" y="568" type="curve"/>
			<point x="51" y="565"/>
			<point x="75" y="548"/>
			<point x="98" y="510" type="curve"/>
			<point x="102" y="504"/>
			<point x="105" y="498"/>
			<point x="108" y="492" type="curve"/>
			<point x="195" y="332" type="line" smooth="yes"/>
			<point x="207" y="309"/>
			<point x="213" y="297"/>
			<point x="216" y="287" type="curve"/>
			<point x="98" y="287" type="line"/>
			<point x="98" y="278"/>
			<point x="98" y="268"/>
			<point x="98" y="259" type="curve"/>
			<point x="98" y="259" type="line"/>
			<point x="98" y="254"/>
			<point x="98" y="250"/>
			<point x="98" y="245" type="curve"/>
			<point x="103" y="245"/>
			<point x="108" y="245"/>
			<point x="113" y="245" type="curve" smooth="yes"/>
			<point x="219" y="245" type="line"/>
			<point x="219" y="177" type="line"/>
			<point x="98" y="177" type="line"/>
			<point x="98" y="168"/>
			<point x="98" y="158"/>
			<point x="98" y="149" type="curve"/>
			<point x="98" y="149" type="line"/>
			<point x="98" y="144"/>
			<point x="98" y="140"/>
			<point x="98" y="135" type="curve"/>
			<point x="103" y="135"/>
			<point x="108" y="135"/>
			<point x="113" y="135" type="curve" smooth="yes"/>
			<point x="219" y="135" type="line"/>
			<point x="219" y="122" type="line" smooth="yes"/>
			<point x="219" y="39"/>
			<point x="202" y="35"/>
			<point x="122" y="32" type="curve"/>
			<point x="116" y="26"/>
			<point x="116" y="4"/>
			<point x="122" y="-2" type="curve"/>
			<point x="167" y="-1"/>
			<point x="216" y="0"/>
			<point x="274" y="0" type="curve" smooth="yes"/>
			<point x="292" y="0" type="line" smooth="yes"/>
			<point x="352" y="0"/>
			<point x="396" y="-1"/>
			<point x="446" y="-2" type="curve"/>
			<point x="452" y="4"/>
			<point x="452" y="26"/>
			<point x="446" y="32" type="curve"/>
			<point x="366" y="35"/>
			<point x="349" y="39"/>
			<point x="349" y="122" type="curve" smooth="yes"/>
			<point x="349" y="135" type="line"/>
			<point x="449" y="135" type="line" smooth="yes"/>
			<point x="459" y="135"/>
			<point x="468" y="135"/>
			<point x="478" y="135" type="curve"/>
		</contour>
	</outline>
</glyph>
<glyph name="section" format="2">
	<unicode hex="00A7"/>
	<advance width="466"/>
	<outline>
		<contour>
			<point x="409" y="-26" type="curve" smooth="yes"/>
			<point x="409" y="14"/>
			<point x="392" y="53"/>
			<point x="364" y="88" type="curve"/>
			<point x="401" y="120"/>
			<point name=".hr01" x="437" y="164"/>
			<point x="437" y="219" type="curve" smooth="yes"/>
			<point x="437" y="342"/>
			<point x="356" y="382"/>
			<point x="244" y="437" type="curve" smooth="yes"/>
			<point x="238" y="440"/>
			<point x="233" y="442"/>
			<point x="228" y="445" type="curve"/>
			<point x="191" y="464"/>
			<point x="168" y="483"/>
			<point x="168" y="524" type="curve"/>
			<point x="168" y="524"/>
			<point x="168" y="524"/>
			<point x="168" y="524" type="curve"/>
			<point x="168" y="570"/>
			<point x="186" y="612"/>
			<point x="230" y="621" type="curve"/>
			<point x="236" y="622"/>
			<point x="242" y="623"/>
			<point x="248" y="623" type="curve" smooth="yes"/>
			<point x="300" y="623"/>
			<point x="313" y="599"/>
			<point x="313" y="577" type="curve" smooth="yes"/>
			<point x="313" y="561"/>
			<point name=".hr02" x="299" y="560"/>
			<point x="299" y="529" type="curve" smooth="yes"/>
			<point x="299" y="518"/>
			<point x="316" y="478"/>
			<point x="359" y="478" type="curve" smooth="yes"/>
			<point x="382" y="478"/>
			<point x="415" y="500"/>
			<point x="415" y="528" type="curve" smooth="yes"/>
			<point x="415" y="613"/>
			<point x="342" y="658"/>
			<point x="244" y="658" type="curve" smooth="yes"/>
			<point x="196" y="658"/>
			<point x="149" y="643"/>
			<point x="116" y="613" type="curve" smooth="yes"/>
			<point x="87" y="587"/>
			<point x="69" y="548"/>
			<point x="65" y="517" type="curve"/>
			<point x="64" y="512"/>
			<point x="64" y="508"/>
			<point x="64" y="504" type="curve" smooth="yes"/>
			<point x="64" y="462"/>
			<point x="78" y="428"/>
			<point x="99" y="402" type="curve"/>
			<point x="63" y="371"/>
			<point name=".hr03" x="30" y="327"/>
			<point x="30" y="276" type="curve" smooth="yes"/>
			<point x="30" y="271"/>
			<point x="30" y="267"/>
			<point x="30" y="262" type="curve"/>
			<point x="35" y="191"/>
			<point x="77" y="141"/>
			<point x="181" y="83" type="curve" smooth="yes"/>
			<point x="200" y="73"/>
			<point x="220" y="61"/>
			<point x="239" y="49" type="curve"/>
			<point x="272" y="26"/>
			<point x="299" y="-1"/>
			<point x="299" y="-33" type="curve"/>
			<point x="299" y="-33"/>
			<point x="299" y="-33"/>
			<point x="299" y="-33" type="curve"/>
			<point x="299" y="-93"/>
			<point x="273" y="-126"/>
			<point x="236" y="-133" type="curve" smooth="yes"/>
			<point x="231" y="-134"/>
			<point x="226" y="-134"/>
			<point x="221" y="-134" type="curve" smooth="yes"/>
			<point x="163" y="-134"/>
			<point x="153" y="-94"/>
			<point x="153" y="-87" type="curve" smooth="yes"/>
			<point x="153" y="-73"/>
			<point x="169" y="-65"/>
			<point x="169" y="-39" type="curve" smooth="yes"/>
			<point x="169" y="-30"/>
			<point x="154" y="-1"/>
			<point x="124" y="9" type="curve" smooth="yes"/>
			<point x="118" y="11"/>
			<point x="112" y="12"/>
			<point x="105" y="12" type="curve" smooth="yes"/>
			<point x="83" y="12"/>
			<point x="52" y="-11"/>
			<point x="52" y="-37" type="curve" smooth="yes"/>
			<point x="52" y="-125"/>
			<point x="150" y="-169"/>
			<point x="223" y="-169" type="curve" smooth="yes"/>
			<point name=".hr04" x="360" y="-169"/>
			<point name=".hr05" x="409" y="-95"/>
		</contour>
		<contour>
			<point x="118" y="381" type="curve"/>
			<point x="132" y="368"/>
			<point x="147" y="359"/>
			<point x="161" y="352" type="curve"/>
			<point x="181" y="343"/>
			<point x="199" y="334"/>
			<point x="216" y="326" type="curve" smooth="yes"/>
			<point x="307" y="282"/>
			<point x="354" y="247"/>
			<point x="360" y="183" type="curve"/>
			<point name=".hr06" x="360" y="179"/>
			<point x="360" y="175"/>
			<point x="360" y="171" type="curve" smooth="yes"/>
			<point x="360" y="148"/>
			<point x="355" y="128"/>
			<point x="343" y="111" type="curve"/>
			<point x="320" y="133"/>
			<point x="292" y="153"/>
			<point x="261" y="169" type="curve"/>
			<point x="256" y="172"/>
			<point x="252" y="174"/>
			<point x="247" y="176" type="curve"/>
			<point x="152" y="222"/>
			<point x="116" y="263"/>
			<point x="109" y="305" type="curve" smooth="yes"/>
			<point x="108" y="311"/>
			<point x="107" y="317"/>
			<point x="107" y="324" type="curve" smooth="yes"/>
			<point x="107" y="345"/>
			<point x="110" y="364"/>
		</contour>
	</outline>
</glyph>
<glyph name="copyright" format="2">
	<unicode hex="00A9"/>
	<advance width="641"/>
	<outline>
		<contour>
			<point x="321" y="17" type="curve" smooth="yes"/>
			<point x="480" y="17"/>
			<point x="609" y="147"/>
			<point x="609" y="306" type="curve" smooth="yes"/>
			<point x="609" y="465"/>
			<point x="480" y="594"/>
			<point x="321" y="594" type="curve" smooth="yes"/>
			<point x="162" y="594"/>
			<point x="32" y="465"/>
			<point x="32" y="306" type="curve" smooth="yes"/>
			<point x="32" y="148"/>
			<point x="161" y="17"/>
		</contour>
		<contour>
			<point x="321" y="545" type="curve" smooth="yes"/>
			<point x="451" y="545"/>
			<point x="557" y="437"/>
			<point x="557" y="306" type="curve" smooth="yes"/>
			<point x="557" y="175"/>
			<point x="451" y="67"/>
			<point x="321" y="67" type="curve" smooth="yes"/>
			<point x="189" y="67"/>
			<point x="84" y="176"/>
			<point x="84" y="306" type="curve" smooth="yes"/>
			<point x="84" y="436"/>
			<point x="190" y="545"/>
		</contour>
		<contour>
			<point x="439" y="218" type="curve"/>
			<point x="435" y="224"/>
			<point x="431" y="230"/>
			<point x="422" y="233" type="curve"/>
			<point x="412" y="218"/>
			<point x="393" y="198"/>
			<point x="347" y="198" type="curve"/>
			<point x="347" y="198"/>
			<point x="347" y="198"/>
			<point x="347" y="198" type="curve"/>
			<point x="296" y="198"/>
			<point x="274" y="235"/>
			<point x="274" y="305" type="curve" smooth="yes"/>
			<point x="274" y="392"/>
			<point x="308" y="417"/>
			<point x="338" y="417" type="curve" smooth="yes"/>
			<point x="381" y="417"/>
			<point x="393" y="402"/>
			<point x="416" y="357" type="curve"/>
			<point x="423" y="357"/>
			<point x="430" y="357"/>
			<point x="434" y="360" type="curve"/>
			<point x="434" y="364"/>
			<point x="434" y="367"/>
			<point x="433" y="371" type="curve"/>
			<point x="432" y="388"/>
			<point x="429" y="405"/>
			<point x="425" y="430" type="curve"/>
			<point x="407" y="436"/>
			<point x="391" y="450"/>
			<point x="328" y="450" type="curve" smooth="yes"/>
			<point x="286" y="450"/>
			<point x="250" y="433"/>
			<point x="224" y="404" type="curve" smooth="yes"/>
			<point x="201" y="379"/>
			<point x="187" y="344"/>
			<point x="187" y="306" type="curve" smooth="yes"/>
			<point x="187" y="267"/>
			<point x="200" y="229"/>
			<point x="227" y="200" type="curve"/>
			<point x="230" y="197"/>
			<point x="232" y="195"/>
			<point x="235" y="192" type="curve"/>
			<point x="261" y="170"/>
			<point x="300" y="158"/>
			<point x="334" y="158" type="curve" smooth="yes"/>
			<point x="383" y="158"/>
			<point x="421" y="188"/>
		</contour>
	</outline>
</glyph>
<glyph name="ordfeminine" format="2">
	<unicode hex="00AA"/>
	<advance width="297"/>
	<outline>
		<contour>
			<point x="169" y="519" type="curve"/>
			<point x="128" y="509" type="line" smooth="yes"/>
			<point x="67" y="494"/>
			<point x="20" y="462"/>
			<point name=".hr01" x="15" y="425" type="curve"/>
			<point x="15" y="422"/>
			<point x="15" y="420"/>
			<point x="15" y="418" type="curve" smooth="yes"/>
			<point x="15" y="398"/>
			<point name=".hr02" x="20" y="375"/>
			<point x="37" y="363" type="curve"/>
			<point x="53" y="351"/>
			<point x="71" y="348"/>
			<point x="92" y="348" type="curve" smooth="yes"/>
			<point x="111" y="348"/>
			<point x="146" y="357"/>
			<point x="170" y="381" type="curve"/>
			<point x="173" y="357"/>
			<point x="188" y="348"/>
			<point x="215" y="348" type="curve" smooth="yes"/>
			<point x="219" y="348"/>
			<point x="224" y="349"/>
			<point name=".hr03" x="229" y="350" type="curve" smooth="yes"/>
			<point x="247" y="354"/>
			<point x="270" y="364"/>
			<point x="283" y="376" type="curve"/>
			<point x="280" y="381"/>
			<point x="276" y="387"/>
			<point x="273" y="392" type="curve"/>
			<point x="270" y="390"/>
			<point x="261" y="386"/>
			<point x="257" y="386" type="curve" smooth="yes"/>
			<point x="248" y="386"/>
			<point x="242" y="390"/>
			<point x="243" y="433" type="curve"/>
			<point x="243" y="436"/>
			<point x="243" y="439"/>
			<point x="243" y="442" type="curve"/>
			<point x="245" y="513" type="line"/>
			<point x="245" y="518"/>
			<point x="245" y="522"/>
			<point x="245" y="526" type="curve"/>
			<point x="246" y="582"/>
			<point x="240" y="607"/>
			<point x="213" y="626" type="curve"/>
			<point x="192" y="642"/>
			<point x="161" y="645"/>
			<point x="137" y="645" type="curve"/>
			<point x="137" y="645"/>
			<point x="137" y="645"/>
			<point x="137" y="645" type="curve"/>
			<point x="86" y="645"/>
			<point x="20" y="609"/>
			<point x="20" y="569" type="curve" smooth="yes"/>
			<point x="20" y="550"/>
			<point x="33" y="540"/>
			<point x="46" y="538" type="curve"/>
			<point x="49" y="537"/>
			<point x="52" y="537"/>
			<point x="54" y="537" type="curve" smooth="yes"/>
			<point x="70" y="537"/>
			<point x="86" y="546"/>
			<point x="91" y="558" type="curve"/>
			<point x="92" y="560"/>
			<point x="93" y="563"/>
			<point x="93" y="565" type="curve" smooth="yes"/>
			<point x="93" y="569"/>
			<point x="92" y="572"/>
			<point x="92" y="575" type="curve"/>
			<point x="90" y="579"/>
			<point x="88" y="582"/>
			<point x="88" y="590" type="curve" smooth="yes"/>
			<point x="88" y="603"/>
			<point x="105" y="615"/>
			<point x="135" y="615" type="curve" smooth="yes"/>
			<point x="158" y="615"/>
			<point x="170" y="592"/>
		</contour>
		<contour>
			<point x="167" y="408" type="line"/>
			<point x="149" y="391"/>
			<point x="140" y="385"/>
			<point name=".hr04" x="122" y="385" type="curve" smooth="yes"/>
			<point x="96" y="385"/>
			<point x="89" y="400"/>
			<point x="89" y="421" type="curve" smooth="yes"/>
			<point x="89" y="440"/>
			<point x="104" y="471"/>
			<point x="169" y="492" type="curve"/>
		</contour>
	</outline>
</glyph>
<glyph name="guillemotleft" format="2">
	<unicode hex="00AB"/>
	<advance width="555"/>
	<outline>
		<contour>
			<point x="262" y="207" type="curve"/>
			<point x="330" y="146"/>
			<point x="375" y="107"/>
			<point x="446" y="23" type="curve"/>
			<point x="456" y="26"/>
			<point x="470" y="35"/>
			<point x="475" y="45" type="curve"/>
			<point x="436" y="121"/>
			<point x="402" y="176"/>
			<point x="371" y="215" type="curve"/>
			<point x="402" y="254"/>
			<point x="436" y="310"/>
			<point x="475" y="385" type="curve"/>
			<point x="470" y="395"/>
			<point x="456" y="404"/>
			<point x="446" y="407" type="curve"/>
			<point x="375" y="323"/>
			<point x="330" y="284"/>
			<point x="262" y="223" type="curve"/>
			<point x="262" y="219.438"/>
			<point x="262" y="209.133"/>
		</contour>
		<contour>
			<point x="74" y="207" type="curve"/>
			<point x="142" y="146"/>
			<point x="187" y="107"/>
			<point x="258" y="23" type="curve"/>
			<point x="268" y="26"/>
			<point x="282" y="35"/>
			<point x="287" y="45" type="curve"/>
			<point x="248" y="121"/>
			<point x="214" y="176"/>
			<point x="183" y="215" type="curve"/>
			<point x="214" y="254"/>
			<point x="248" y="310"/>
			<point x="287" y="385" type="curve"/>
			<point x="282" y="395"/>
			<point x="268" y="404"/>
			<point x="258" y="407" type="curve"/>
			<point x="187" y="323"/>
			<point x="142" y="284"/>
			<point x="74" y="223" type="curve"/>
			<point x="74" y="219.438"/>
			<point x="74" y="209.133"/>
		</contour>
	</outline>
</glyph>
<glyph name="logicalnot" format="2">
	<unicode hex="00AC"/>
	<advance width="560"/>
	<outline>
		<contour>
			<point x="463" y="133" type="line"/>
			<point x="476.978" y="133"/>
			<point x="525.014" y="133"/>
			<point x="537" y="133" type="curve"/>
			<point x="537" y="401" type="line"/>
			<point x="24" y="401" type="line"/>
			<point x="24" y="389.445"/>
			<point x="24" y="355.138"/>
			<point x="24" y="347" type="curve"/>
			<point x="463" y="347" type="line"/>
		</contour>
	</outline>
</glyph>
<glyph name="registered" format="2">
	<unicode hex="00AE"/>
	<advance width="641"/>
	<outline>
		<contour>
			<point x="321" y="17" type="curve" smooth="yes"/>
			<point x="480" y="17"/>
			<point x="609" y="147"/>
			<point x="609" y="306" type="curve" smooth="yes"/>
			<point x="609" y="465"/>
			<point x="480" y="594"/>
			<point x="321" y="594" type="curve" smooth="yes"/>
			<point x="162" y="594"/>
			<point x="32" y="465"/>
			<point x="32" y="306" type="curve" smooth="yes"/>
			<point x="32" y="148"/>
			<point x="161" y="17"/>
		</contour>
		<contour>
			<point x="321" y="545" type="curve" smooth="yes"/>
			<point x="451" y="545"/>
			<point x="557" y="437"/>
			<point x="557" y="306" type="curve" smooth="yes"/>
			<point x="557" y="175"/>
			<point x="451" y="67"/>
			<point x="321" y="67" type="curve" smooth="yes"/>
			<point x="189" y="67"/>
			<point x="84" y="176"/>
			<point x="84" y="306" type="curve" smooth="yes"/>
			<point x="84" y="436"/>
			<point x="190" y="545"/>
		</contour>
		<contour>
			<point x="423" y="372" type="curve" smooth="yes"/>
			<point x="423" y="402"/>
			<point x="403" y="447"/>
			<point x="328" y="447" type="curve" smooth="yes"/>
			<point x="298" y="447"/>
			<point x="273" y="447"/>
			<point x="254" y="446" type="curve" smooth="yes"/>
			<point x="226" y="445"/>
			<point x="207" y="444"/>
			<point x="195" y="442" type="curve"/>
			<point x="195" y="438"/>
			<point x="195" y="433"/>
			<point x="195" y="429" type="curve" smooth="yes"/>
			<point x="195" y="427"/>
			<point x="196" y="426"/>
			<point x="197" y="425" type="curve"/>
			<point x="199" y="424"/>
			<point x="202" y="423"/>
			<point x="205" y="423" type="curve" smooth="yes"/>
			<point x="210" y="423"/>
			<point x="216" y="424"/>
			<point x="221" y="424" type="curve" smooth="yes"/>
			<point x="224" y="424"/>
			<point x="225" y="418"/>
			<point x="225" y="413" type="curve" smooth="yes"/>
			<point x="225" y="403"/>
			<point x="225" y="392"/>
			<point x="225" y="382" type="curve" smooth="yes"/>
			<point x="225" y="234" type="line" smooth="yes"/>
			<point x="225" y="221"/>
			<point x="225" y="208"/>
			<point x="225" y="195" type="curve" smooth="yes"/>
			<point x="225" y="188"/>
			<point x="223" y="187"/>
			<point x="217" y="187" type="curve" smooth="yes"/>
			<point x="213" y="187"/>
			<point x="209" y="187"/>
			<point x="205" y="187" type="curve" smooth="yes"/>
			<point x="202" y="187"/>
			<point x="199" y="187"/>
			<point x="197" y="186" type="curve" smooth="yes"/>
			<point x="195" y="185"/>
			<point x="194" y="183"/>
			<point x="194" y="181" type="curve" smooth="yes"/>
			<point x="194" y="176"/>
			<point x="194" y="172"/>
			<point x="194" y="167" type="curve"/>
			<point x="213" y="168"/>
			<point x="231" y="168"/>
			<point x="250" y="169" type="curve"/>
			<point x="256" y="169" type="line" smooth="yes"/>
			<point x="273" y="169"/>
			<point x="308" y="167"/>
			<point x="316" y="167" type="curve" smooth="yes"/>
			<point x="318" y="167" type="line"/>
			<point x="318" y="172"/>
			<point x="318" y="176"/>
			<point x="318" y="181" type="curve" smooth="yes"/>
			<point x="318" y="183"/>
			<point x="317" y="185"/>
			<point x="316" y="186" type="curve"/>
			<point x="314" y="187"/>
			<point x="311" y="187"/>
			<point x="307" y="187" type="curve" smooth="yes"/>
			<point x="303" y="187"/>
			<point x="299" y="187"/>
			<point x="295" y="187" type="curve" smooth="yes"/>
			<point x="288" y="187"/>
			<point x="288" y="189"/>
			<point x="288" y="194" type="curve" smooth="yes"/>
			<point x="288" y="207"/>
			<point x="288" y="219"/>
			<point x="288" y="232" type="curve" smooth="yes"/>
			<point x="288" y="285" type="line"/>
			<point x="293" y="285"/>
			<point x="311" y="284"/>
			<point x="315" y="282" type="curve"/>
			<point x="363" y="204" type="line"/>
			<point x="373" y="183"/>
			<point x="393" y="171"/>
			<point x="415" y="167" type="curve" smooth="yes"/>
			<point x="421" y="166"/>
			<point x="426" y="166"/>
			<point x="431" y="166" type="curve" smooth="yes"/>
			<point x="436" y="166"/>
			<point x="444" y="167"/>
			<point x="454" y="170" type="curve"/>
			<point x="454" y="174"/>
			<point x="454" y="179"/>
			<point x="454" y="183" type="curve"/>
			<point x="438" y="183"/>
			<point x="427" y="192"/>
			<point x="414" y="214" type="curve" smooth="yes"/>
			<point x="366" y="296" type="line"/>
			<point x="366" y="296"/>
			<point x="423" y="320"/>
		</contour>
		<contour>
			<point x="361" y="372" type="curve" smooth="yes"/>
			<point x="361" y="333"/>
			<point x="344" y="318"/>
			<point x="324" y="312" type="curve"/>
			<point x="312" y="309"/>
			<point x="299" y="309"/>
			<point name=".hr01" x="288" y="309" type="curve"/>
			<point name=".hr02" x="288" y="393" type="line"/>
			<point x="288" y="424" type="line"/>
			<point x="293" y="426"/>
			<point x="305" y="427"/>
			<point x="316" y="427" type="curve" smooth="yes"/>
			<point x="350" y="427"/>
			<point x="361" y="406"/>
		</contour>
	</outline>
</glyph>
<glyph name="degree" format="2">
	<unicode hex="00B0"/>
	<advance width="267"/>
	<outline>
		<contour>
			<point x="28" y="525" type="curve" smooth="yes"/>
			<point x="28" y="467"/>
			<point x="76" y="420"/>
			<point x="134" y="420" type="curve" smooth="yes"/>
			<point x="192" y="420"/>
			<point x="239" y="467"/>
			<point x="239" y="525" type="curve" smooth="yes"/>
			<point x="239" y="584"/>
			<point x="192" y="631"/>
			<point x="134" y="631" type="curve" smooth="yes"/>
			<point x="76" y="631"/>
			<point x="28" y="584"/>
		</contour>
		<contour>
			<point x="196" y="524" type="curve" smooth="yes"/>
			<point x="196" y="492"/>
			<point x="173" y="458"/>
			<point x="134" y="458" type="curve" smooth="yes"/>
			<point x="95" y="458"/>
			<point x="71" y="491"/>
			<point x="71" y="524" type="curve" smooth="yes"/>
			<point x="71" y="558"/>
			<point x="94" y="593"/>
			<point x="134" y="593" type="curve" smooth="yes"/>
			<point x="176" y="593"/>
			<point x="196" y="555"/>
		</contour>
	</outline>
</glyph>
<glyph name="plusminus" format="2">
	<unicode hex="00B1"/>
	<advance width="527"/>
	<outline>
		<contour>
			<point x="306" y="354" type="line"/>
			<point x="306" y="477" type="line" smooth="yes"/>
			<point x="306" y="491"/>
			<point x="306" y="504"/>
			<point x="306" y="518" type="curve"/>
			<point x="281" y="518"/>
			<point x="257" y="518"/>
			<point x="232" y="518" type="curve"/>
			<point x="232" y="354" type="line"/>
			<point x="61" y="354" type="line"/>
			<point x="61" y="329"/>
			<point x="61" y="305"/>
			<point x="61" y="280" type="curve"/>
			<point x="75" y="280"/>
			<point x="90" y="280"/>
			<point x="104" y="280" type="curve" smooth="yes"/>
			<point x="232" y="280" type="line"/>
			<point x="232" y="158" type="line" smooth="yes"/>
			<point x="232" y="144"/>
			<point x="232" y="131"/>
			<point x="232" y="117" type="curve"/>
			<point x="257" y="117"/>
			<point x="281" y="117"/>
			<point x="306" y="117" type="curve"/>
			<point x="306" y="280" type="line"/>
			<point x="477" y="280" type="line"/>
			<point x="477" y="305"/>
			<point x="477" y="329"/>
			<point x="477" y="354" type="curve"/>
			<point x="463" y="354"/>
			<point x="449" y="354"/>
			<point x="434" y="354" type="curve" smooth="yes"/>
		</contour>
		<contour>
			<point x="473" y="77" type="curve"/>
			<point x="451" y="77"/>
			<point x="429" y="77"/>
			<point x="407" y="77" type="curve" smooth="yes"/>
			<point x="74" y="77" type="line"/>
			<point x="71" y="57"/>
			<point x="67" y="37"/>
			<point x="64" y="17" type="curve"/>
			<point x="86" y="17"/>
			<point x="108" y="17"/>
			<point x="131" y="17" type="curve" smooth="yes"/>
			<point x="463" y="17" type="line"/>
			<point x="466" y="37"/>
			<point x="470" y="57"/>
		</contour>
	</outline>
</glyph>
<glyph name="uni00B3" format="2">
	<unicode hex="00B3"/>
	<advance width="340"/>
	<outline>
		<contour>
			<point x="197" y="635" type="curve" smooth="yes"/>
			<point x="197" y="592"/>
			<point x="149" y="562"/>
			<point x="105" y="556" type="curve"/>
			<point x="105" y="546"/>
			<point x="105" y="536"/>
			<point x="105" y="526" type="curve"/>
			<point x="118" y="529"/>
			<point x="130" y="530"/>
			<point x="139" y="530" type="curve" smooth="yes"/>
			<point x="180" y="530"/>
			<point name=".hr01" x="214" y="518"/>
			<point x="214" y="474" type="curve" smooth="yes"/>
			<point x="214" y="412"/>
			<point x="168" y="389"/>
			<point x="148" y="389" type="curve" smooth="yes"/>
			<point x="127" y="389"/>
			<point x="114" y="399"/>
			<point x="106" y="408" type="curve"/>
			<point x="104" y="411"/>
			<point x="101" y="416"/>
			<point x="97" y="422" type="curve" smooth="yes"/>
			<point x="90" y="433"/>
			<point x="80" y="445"/>
			<point x="61" y="445" type="curve" smooth="yes"/>
			<point x="57" y="445"/>
			<point x="54" y="445"/>
			<point x="51" y="444" type="curve"/>
			<point x="34" y="439"/>
			<point x="24" y="425"/>
			<point x="24" y="409" type="curve" smooth="yes"/>
			<point x="24" y="406"/>
			<point x="25" y="403"/>
			<point x="26" y="400" type="curve" smooth="yes"/>
			<point x="36" y="368"/>
			<point x="92" y="359"/>
			<point x="138" y="359" type="curve"/>
			<point x="138" y="359"/>
			<point x="138" y="359"/>
			<point x="138" y="359" type="curve"/>
			<point x="228" y="359"/>
			<point x="309" y="406"/>
			<point x="309" y="482" type="curve" smooth="yes"/>
			<point x="309" y="536"/>
			<point x="273" y="556"/>
			<point name=".hr02" x="236" y="567" type="curve"/>
			<point x="234" y="568"/>
			<point x="235" y="570"/>
			<point x="236" y="571" type="curve"/>
			<point x="265" y="590"/>
			<point x="283" y="615"/>
			<point x="283" y="640" type="curve" smooth="yes"/>
			<point x="283" y="682"/>
			<point x="237" y="709"/>
			<point x="172" y="709" type="curve" smooth="yes"/>
			<point x="69" y="709"/>
			<point x="35" y="647"/>
			<point x="35" y="628" type="curve" smooth="yes"/>
			<point x="35" y="624"/>
			<point x="36" y="600"/>
			<point x="68" y="600" type="curve" smooth="yes"/>
			<point x="97" y="600"/>
			<point x="108" y="626"/>
			<point x="108" y="640" type="curve"/>
			<point x="110" y="663"/>
			<point x="133" y="679"/>
			<point x="155" y="679" type="curve" smooth="yes"/>
			<point x="177" y="679"/>
			<point x="197" y="664"/>
		</contour>
	</outline>
</glyph>
<glyph name="acute" format="2">
	<unicode hex="00B4"/>
	<advance width="341"/>
	<outline>
		<contour>
			<point x="187" y="669" type="curve"/>
			<point x="104" y="538" type="line" smooth="yes"/>
			<point x="98" y="529"/>
			<point x="96" y="520"/>
			<point x="96" y="514" type="curve" smooth="yes"/>
			<point x="96" y="508"/>
			<point x="104" y="500"/>
			<point x="112" y="500" type="curve" smooth="yes"/>
			<point x="122" y="500"/>
			<point x="136" y="504"/>
			<point x="150" y="516" type="curve" smooth="yes"/>
			<point x="270" y="624" type="line"/>
			<point x="260" y="647" type="line"/>
			<point x="252" y="657"/>
			<point x="233" y="671"/>
			<point x="203" y="671" type="curve" smooth="yes"/>
			<point x="198" y="671"/>
			<point x="190" y="670"/>
		</contour>
	</outline>
	<anchor name="_t.uni0302" x="175" y="500"/>
</glyph>
<glyph name="mu" format="2">
	<unicode hex="00B5"/>
	<advance width="559"/>
	<outline>
		<contour>
			<point x="343" y="49" type="line"/>
			<point x="350" y="8"/>
			<point x="377" y="-10"/>
			<point x="421" y="-10" type="curve" smooth="yes"/>
			<point x="431" y="-10"/>
			<point x="441" y="-9"/>
			<point name=".hr01" x="450" y="-8" type="curve"/>
			<point x="491" y="-2"/>
			<point x="526" y="17"/>
			<point x="556" y="46" type="curve"/>
			<point x="556" y="58"/>
			<point x="550" y="64"/>
			<point x="538" y="74" type="curve"/>
			<point x="528" y="67"/>
			<point x="520" y="62"/>
			<point x="509" y="61" type="curve"/>
			<point x="505" y="60"/>
			<point x="501" y="60"/>
			<point x="496" y="60" type="curve" smooth="yes"/>
			<point x="474" y="60"/>
			<point x="464" y="78"/>
			<point x="464" y="127" type="curve" smooth="yes"/>
			<point x="464" y="448" type="line"/>
			<point x="421" y="443"/>
			<point x="377" y="439"/>
			<point x="334" y="434" type="curve"/>
			<point x="334" y="98" type="line"/>
			<point x="312" y="68"/>
			<point name=".hr02" x="261" y="53"/>
			<point x="220" y="53" type="curve" smooth="yes"/>
			<point x="185" y="53"/>
			<point x="177" y="97"/>
			<point x="177" y="160" type="curve" smooth="yes"/>
			<point x="177" y="343" type="line" smooth="yes"/>
			<point x="177" y="375"/>
			<point x="174" y="447"/>
			<point x="174" y="447" type="curve"/>
			<point x="128" y="443"/>
			<point x="82" y="438"/>
			<point x="36" y="434" type="curve"/>
			<point x="36" y="434"/>
			<point x="47" y="348"/>
			<point x="47" y="323" type="curve" smooth="yes"/>
			<point x="47" y="137" type="line" smooth="yes"/>
			<point x="47" y="112"/>
			<point x="58" y="72"/>
			<point x="61" y="46" type="curve"/>
			<point x="62" y="26"/>
			<point name=".hr03" x="64" y="10"/>
			<point x="64" y="-4" type="curve" smooth="yes"/>
			<point x="64" y="-40"/>
			<point x="58" y="-66"/>
			<point x="54" y="-92" type="curve" smooth="yes"/>
			<point x="50" y="-118"/>
			<point name=".hr04" x="47" y="-142"/>
			<point x="47" y="-163" type="curve" smooth="yes"/>
			<point x="47" y="-201"/>
			<point x="88" y="-225"/>
			<point x="111" y="-231" type="curve"/>
			<point x="114" y="-232"/>
			<point x="118" y="-232"/>
			<point x="120" y="-232" type="curve" smooth="yes"/>
			<point x="147" y="-232"/>
			<point x="174" y="-217"/>
			<point x="181" y="-185" type="curve" smooth="yes"/>
			<point x="182" y="-180"/>
			<point x="183" y="-174"/>
			<point x="183" y="-168" type="curve" smooth="yes"/>
			<point x="183" y="-151"/>
			<point x="177" y="-122"/>
			<point x="171" y="-96" type="curve" smooth="yes"/>
			<point name=".hr05" x="167" y="-77"/>
			<point x="167" y="-57"/>
			<point x="167" y="-37" type="curve" smooth="yes"/>
			<point x="167" y="-30"/>
			<point x="167" y="-22"/>
			<point x="167" y="-14" type="curve" smooth="yes"/>
			<point x="167" y="-10"/>
			<point x="166" y="-7"/>
			<point x="166" y="-3" type="curve"/>
			<point name=".hr06" x="177" y="-8"/>
			<point x="188" y="-9"/>
			<point name=".hr07" x="200" y="-10" type="curve"/>
			<point x="204" y="-10"/>
			<point x="208" y="-10"/>
			<point x="212" y="-10" type="curve" smooth="yes"/>
			<point x="267" y="-10"/>
			<point x="294" y="15"/>
			<point x="335" y="48" type="curve"/>
		</contour>
	</outline>
</glyph>
<glyph name="paragraph" format="2">
	<unicode hex="00B6"/>
	<advance width="602"/>
	<outline>
		<contour>
			<point x="498" y="-144" type="curve" smooth="yes"/>
			<point x="498" y="556" type="line" smooth="yes"/>
			<point x="498" y="602"/>
			<point x="502" y="618"/>
			<point x="538" y="618" type="curve" smooth="yes"/>
			<point x="567" y="618" type="line" smooth="yes"/>
			<point x="571" y="618"/>
			<point x="573" y="621"/>
			<point x="573" y="625" type="curve"/>
			<point x="573" y="625" type="line"/>
			<point x="573" y="646" type="line"/>
			<point x="536" y="645"/>
			<point x="499" y="645"/>
			<point x="462" y="644" type="curve"/>
			<point x="462" y="644"/>
			<point name=".hr01" x="428" y="641"/>
			<point x="393" y="641" type="curve" smooth="yes"/>
			<point x="366" y="641"/>
			<point x="305" y="646"/>
			<point x="230" y="646" type="curve" smooth="yes"/>
			<point x="116" y="646"/>
			<point x="47" y="583"/>
			<point x="31" y="486" type="curve"/>
			<point x="28" y="471"/>
			<point x="27" y="455"/>
			<point x="27" y="439" type="curve" smooth="yes"/>
			<point x="27" y="261"/>
			<point x="158" y="215"/>
			<point x="241" y="215" type="curve" smooth="yes"/>
			<point x="273" y="215"/>
			<point x="304" y="220"/>
			<point x="318" y="227" type="curve"/>
			<point x="318" y="-143" type="line" smooth="yes"/>
			<point x="318" y="-156"/>
			<point x="318" y="-166"/>
			<point x="317" y="-175" type="curve"/>
			<point x="313" y="-199"/>
			<point x="304" y="-205"/>
			<point x="279" y="-206" type="curve"/>
			<point x="279" y="-206"/>
			<point x="279" y="-206"/>
			<point x="279" y="-206" type="curve"/>
			<point x="250" y="-206" type="line" smooth="yes"/>
			<point x="246" y="-206"/>
			<point x="244" y="-208"/>
			<point x="244" y="-213" type="curve" smooth="yes"/>
			<point x="244" y="-234" type="line"/>
			<point x="244" y="-234" type="line"/>
			<point x="288" y="-234"/>
			<point x="332" y="-234"/>
			<point x="376" y="-234" type="curve" smooth="yes"/>
			<point x="441" y="-234"/>
			<point x="507" y="-234"/>
			<point x="573" y="-234" type="curve"/>
			<point x="573" y="-234" type="line"/>
			<point x="573" y="-213" type="line" smooth="yes"/>
			<point x="573" y="-209"/>
			<point x="571" y="-206"/>
			<point x="567" y="-206" type="curve" smooth="yes"/>
			<point x="538" y="-206" type="line"/>
			<point x="506" y="-205"/>
			<point x="498" y="-200"/>
		</contour>
		<contour>
			<point x="407" y="-207" type="curve" smooth="yes"/>
			<point x="381" y="-207"/>
			<point x="377" y="-172"/>
			<point x="377" y="-143" type="curve" smooth="yes"/>
			<point x="377" y="553" type="line"/>
			<point x="377" y="553" type="line"/>
			<point x="377" y="584"/>
			<point x="378" y="616"/>
			<point x="410" y="616" type="curve"/>
			<point x="426" y="615"/>
			<point x="439" y="614"/>
			<point x="439" y="556" type="curve" smooth="yes"/>
			<point x="439" y="-145" type="line" smooth="yes"/>
			<point x="439" y="-187"/>
			<point x="436" y="-207"/>
		</contour>
	</outline>
</glyph>
<glyph name="cedilla" format="2">
	<unicode hex="00B8"/>
	<advance width="541"/>
	<outline>
		<contour>
			<point x="236" y="-101" type="line"/>
			<point x="254" y="-102"/>
			<point x="276" y="-104"/>
			<point x="294" y="-110" type="curve" smooth="yes"/>
			<point x="312" y="-116"/>
			<point x="325" y="-126"/>
			<point x="325" y="-145" type="curve" smooth="yes"/>
			<point x="325" y="-172"/>
			<point x="305" y="-186"/>
			<point x="275" y="-186" type="curve" smooth="yes"/>
			<point x="255" y="-186"/>
			<point x="244" y="-182"/>
			<point x="217" y="-172" type="curve"/>
			<point x="208" y="-176"/>
			<point x="207" y="-188"/>
			<point x="207" y="-198" type="curve"/>
			<point x="230" y="-210"/>
			<point x="239" y="-215"/>
			<point x="271" y="-215" type="curve" smooth="yes"/>
			<point x="275" y="-215"/>
			<point x="280" y="-215"/>
			<point x="284" y="-214" type="curve"/>
			<point x="338" y="-210"/>
			<point x="381" y="-177"/>
			<point x="387" y="-135" type="curve"/>
			<point x="388" y="-132"/>
			<point x="388" y="-128"/>
			<point x="388" y="-125" type="curve" smooth="yes"/>
			<point x="388" y="-83"/>
			<point x="360" y="-61"/>
			<point x="326" y="-49" type="curve"/>
			<point x="316" y="-46"/>
			<point x="305" y="-43"/>
			<point x="295" y="-41" type="curve"/>
			<point x="315" y="7" type="line"/>
			<point x="281" y="7" type="line"/>
			<point x="230" y="-95" type="line"/>
		</contour>
	</outline>
</glyph>
<glyph name="guillemotright" format="2">
	<unicode hex="00BB"/>
	<advance width="555"/>
	<outline>
		<contour>
			<point x="293" y="223" type="curve"/>
			<point x="225" y="284"/>
			<point x="180" y="323"/>
			<point x="109" y="407" type="curve"/>
			<point x="100" y="404"/>
			<point x="85" y="395"/>
			<point x="80" y="385" type="curve"/>
			<point x="120" y="310"/>
			<point x="153" y="254"/>
			<point x="184" y="215" type="curve"/>
			<point x="153" y="176"/>
			<point x="120" y="121"/>
			<point x="80" y="45" type="curve"/>
			<point x="85" y="35"/>
			<point x="100" y="26"/>
			<point x="109" y="23" type="curve"/>
			<point x="180" y="107"/>
			<point x="225" y="146"/>
			<point x="293" y="207" type="curve"/>
			<point x="293" y="210.563"/>
			<point x="293" y="220.863"/>
		</contour>
		<contour>
			<point x="481" y="223" type="curve"/>
			<point x="413" y="284"/>
			<point x="368" y="323"/>
			<point x="297" y="407" type="curve"/>
			<point x="288" y="404"/>
			<point x="273" y="395"/>
			<point x="268" y="385" type="curve"/>
			<point x="308" y="310"/>
			<point x="341" y="254"/>
			<point x="372" y="215" type="curve"/>
			<point x="341" y="176"/>
			<point x="308" y="121"/>
			<point x="268" y="45" type="curve"/>
			<point x="273" y="35"/>
			<point x="288" y="26"/>
			<point x="297" y="23" type="curve"/>
			<point x="368" y="107"/>
			<point x="413" y="146"/>
			<point x="481" y="207" type="curve"/>
			<point x="481" y="210.563"/>
			<point x="481" y="220.863"/>
		</contour>
	</outline>
</glyph>
<glyph name="onehalf" format="2">
	<unicode hex="00BD"/>
	<advance width="700"/>
	<outline>
		<contour>
			<point x="391" y="183" type="curve" smooth="yes"/>
			<point x="391" y="158"/>
			<point x="398" y="140"/>
			<point x="425" y="140" type="curve" smooth="yes"/>
			<point x="446" y="140"/>
			<point x="465" y="153"/>
			<point x="468" y="169" type="curve"/>
			<point x="469" y="172"/>
			<point x="469" y="176"/>
			<point x="469" y="180" type="curve" smooth="yes"/>
			<point x="469" y="185"/>
			<point x="469" y="190"/>
			<point x="469" y="195" type="curve" smooth="yes"/>
			<point x="469" y="197"/>
			<point x="469" y="200"/>
			<point x="469" y="203" type="curve" smooth="yes"/>
			<point x="469" y="209"/>
			<point x="469" y="215"/>
			<point x="470" y="218" type="curve"/>
			<point x="475" y="231"/>
			<point x="486" y="236"/>
			<point x="508" y="236" type="curve" smooth="yes"/>
			<point x="516" y="236"/>
			<point x="530" y="231"/>
			<point x="536" y="221" type="curve" smooth="yes"/>
			<point x="544" y="208"/>
			<point x="548" y="189"/>
			<point x="548" y="165" type="curve" smooth="yes"/>
			<point x="548" y="143"/>
			<point x="537" y="114"/>
			<point x="511" y="90" type="curve"/>
			<point x="504" y="83"/>
			<point x="496" y="77"/>
			<point x="489" y="70" type="curve"/>
			<point x="477" y="59"/>
			<point x="464" y="47"/>
			<point x="452" y="36" type="curve"/>
			<point x="418" y="2"/>
			<point x="393" y="-37"/>
			<point x="393" y="-79" type="curve"/>
			<point x="629" y="-79" type="line"/>
			<point x="638" y="-50"/>
			<point x="654" y="-5"/>
			<point x="658" y="34" type="curve"/>
			<point x="653" y="38"/>
			<point x="641" y="40"/>
			<point x="630" y="40" type="curve"/>
			<point x="619" y="10"/>
			<point x="595" y="-22"/>
			<point x="564" y="-22" type="curve" smooth="yes"/>
			<point x="482" y="-22" type="line"/>
			<point x="484" y="-9"/>
			<point x="491" y="8"/>
			<point x="509" y="23" type="curve" smooth="yes"/>
			<point x="519" y="31"/>
			<point x="528" y="39"/>
			<point x="538" y="48" type="curve" smooth="yes"/>
			<point x="552" y="60" type="line" smooth="yes"/>
			<point x="570" y="76"/>
			<point x="594" y="98"/>
			<point x="608" y="113" type="curve" smooth="yes"/>
			<point x="630" y="137"/>
			<point x="637" y="155"/>
			<point x="637" y="179" type="curve" smooth="yes"/>
			<point x="637" y="211"/>
			<point x="629" y="230"/>
			<point x="608" y="246" type="curve" smooth="yes"/>
			<point x="584" y="265"/>
			<point x="549" y="266"/>
			<point x="522" y="266" type="curve" smooth="yes"/>
			<point x="443" y="266"/>
			<point x="391" y="211"/>
		</contour>
		<contour>
			<point x="134" y="591" type="curve" smooth="yes"/>
			<point x="146" y="591"/>
			<point x="148" y="582"/>
			<point x="148" y="550" type="curve" smooth="yes"/>
			<point x="148" y="400" type="line" smooth="yes"/>
			<point x="148" y="349"/>
			<point x="117" y="346"/>
			<point x="77" y="344" type="curve"/>
			<point x="72" y="336"/>
			<point x="73" y="320"/>
			<point x="77" y="314" type="curve"/>
			<point x="107" y="315"/>
			<point x="157" y="315"/>
			<point x="192" y="315" type="curve" smooth="yes"/>
			<point x="231" y="315"/>
			<point x="261" y="315"/>
			<point x="291" y="314" type="curve"/>
			<point x="295" y="321"/>
			<point x="295" y="336"/>
			<point x="291" y="344" type="curve"/>
			<point x="257" y="346"/>
			<point x="236" y="349"/>
			<point x="236" y="400" type="curve"/>
			<point x="236" y="400"/>
			<point x="236" y="400"/>
			<point x="236" y="400" type="curve"/>
			<point x="236" y="665" type="line"/>
			<point x="233" y="668"/>
			<point x="222" y="669"/>
			<point x="213" y="667" type="curve"/>
			<point x="209" y="667"/>
			<point x="206" y="666"/>
			<point x="204" y="665" type="curve" smooth="yes"/>
			<point x="159" y="642"/>
			<point x="114" y="626"/>
			<point x="67" y="609" type="curve"/>
			<point x="67" y="597"/>
			<point x="69" y="582"/>
			<point x="77" y="576" type="curve"/>
			<point x="102" y="585"/>
			<point x="121" y="591"/>
		</contour>
		<contour>
			<point x="552" y="601" type="line"/>
			<point x="94" y="-54" type="line"/>
			<point x="135" y="-62" type="line"/>
			<point x="594" y="593" type="line"/>
		</contour>
	</outline>
</glyph>
<glyph name="threequarters" format="2">
	<unicode hex="00BE"/>
	<advance width="700"/>
	<outline>
		<contour>
			<point x="610" y="-48" type="curve" smooth="yes"/>
			<point x="610" y="-27" type="line"/>
			<point x="667" y="-27" type="line"/>
			<point x="670" y="15" type="line"/>
			<point x="610" y="15" type="line"/>
			<point x="610" y="211" type="line" smooth="yes"/>
			<point x="610" y="220"/>
			<point x="603" y="221"/>
			<point x="598" y="221" type="curve" smooth="yes"/>
			<point x="581" y="221"/>
			<point x="565" y="221"/>
			<point x="548" y="221" type="curve"/>
			<point x="541" y="211"/>
			<point x="531" y="198"/>
			<point x="521" y="185" type="curve" smooth="yes"/>
			<point x="482" y="135"/>
			<point x="428" y="67"/>
			<point x="390" y="14" type="curve" smooth="yes"/>
			<point x="385" y="7"/>
			<point x="380" y="1"/>
			<point x="375" y="-6" type="curve"/>
			<point x="369" y="-15" type="line"/>
			<point x="373" y="-19"/>
			<point x="377" y="-23"/>
			<point x="381" y="-27" type="curve"/>
			<point x="385" y="-27"/>
			<point x="390" y="-27"/>
			<point x="394" y="-27" type="curve" smooth="yes"/>
			<point x="527" y="-27" type="line"/>
			<point x="527" y="-48" type="line" smooth="yes"/>
			<point x="527" y="-99"/>
			<point x="496" y="-102"/>
			<point x="456" y="-104" type="curve"/>
			<point x="451" y="-112"/>
			<point x="452" y="-128"/>
			<point x="456" y="-134" type="curve"/>
			<point x="486" y="-133"/>
			<point x="517" y="-133"/>
			<point x="552" y="-133" type="curve" smooth="yes"/>
			<point x="567" y="-133" type="line" smooth="yes"/>
			<point x="603" y="-133"/>
			<point x="634" y="-133"/>
			<point x="660" y="-134" type="curve"/>
			<point x="664" y="-127"/>
			<point x="664" y="-112"/>
			<point x="660" y="-104" type="curve"/>
			<point x="626" y="-102"/>
			<point x="610" y="-99"/>
		</contour>
		<contour>
			<point x="195" y="584" type="curve" smooth="yes"/>
			<point x="195" y="541"/>
			<point x="147" y="511"/>
			<point x="103" y="505" type="curve"/>
			<point x="103" y="495"/>
			<point x="103" y="485"/>
			<point x="103" y="475" type="curve"/>
			<point x="116" y="478"/>
			<point x="128" y="479"/>
			<point x="137" y="479" type="curve" smooth="yes"/>
			<point x="178" y="479"/>
			<point x="212" y="467"/>
			<point name=".hr01" x="212" y="423" type="curve" smooth="yes"/>
			<point x="212" y="361"/>
			<point x="166" y="338"/>
			<point x="146" y="338" type="curve" smooth="yes"/>
			<point x="125" y="338"/>
			<point x="112" y="348"/>
			<point x="104" y="357" type="curve"/>
			<point x="102" y="360"/>
			<point x="99" y="365"/>
			<point x="95" y="371" type="curve" smooth="yes"/>
			<point x="88" y="382"/>
			<point x="78" y="394"/>
			<point x="59" y="394" type="curve" smooth="yes"/>
			<point x="55" y="394"/>
			<point x="52" y="394"/>
			<point x="49" y="393" type="curve"/>
			<point x="32" y="388"/>
			<point x="22" y="374"/>
			<point x="22" y="358" type="curve" smooth="yes"/>
			<point x="22" y="355"/>
			<point x="23" y="352"/>
			<point x="24" y="349" type="curve" smooth="yes"/>
			<point x="34" y="317"/>
			<point x="90" y="308"/>
			<point x="136" y="308" type="curve"/>
			<point x="136" y="308"/>
			<point x="136" y="308"/>
			<point x="136" y="308" type="curve"/>
			<point x="226" y="308"/>
			<point x="307" y="355"/>
			<point x="307" y="431" type="curve" smooth="yes"/>
			<point x="307" y="485"/>
			<point x="271" y="505"/>
			<point x="234" y="516" type="curve"/>
			<point name=".hr02" x="232" y="517"/>
			<point x="233" y="519"/>
			<point x="234" y="520" type="curve"/>
			<point x="263" y="539"/>
			<point x="281" y="564"/>
			<point x="281" y="589" type="curve" smooth="yes"/>
			<point x="281" y="631"/>
			<point x="235" y="658"/>
			<point x="170" y="658" type="curve" smooth="yes"/>
			<point x="67" y="658"/>
			<point x="33" y="596"/>
			<point x="33" y="577" type="curve" smooth="yes"/>
			<point x="33" y="573"/>
			<point x="34" y="549"/>
			<point x="66" y="549" type="curve" smooth="yes"/>
			<point x="95" y="549"/>
			<point x="106" y="575"/>
			<point x="106" y="589" type="curve"/>
			<point x="108" y="612"/>
			<point x="131" y="628"/>
			<point x="153" y="628" type="curve" smooth="yes"/>
			<point x="175" y="628"/>
			<point x="195" y="613"/>
		</contour>
		<contour>
			<point x="582" y="601" type="line"/>
			<point x="124" y="-54" type="line"/>
			<point x="165" y="-62" type="line"/>
			<point x="624" y="593" type="line"/>
		</contour>
		<contour>
			<point x="527" y="142" type="curve"/>
			<point x="527" y="15" type="line"/>
			<point x="432" y="15" type="line"/>
			<point x="464" y="57"/>
			<point x="495" y="100"/>
		</contour>
	</outline>
</glyph>
<glyph name="questiondown" format="2">
	<unicode hex="00BF"/>
	<advance width="430"/>
	<outline>
		<contour>
			<point x="279" y="-140" type="curve" smooth="yes"/>
			<point x="279" y="-168"/>
			<point x="244" y="-192"/>
			<point x="200" y="-192" type="curve" smooth="yes"/>
			<point x="144" y="-192"/>
			<point x="120" y="-140"/>
			<point x="120" y="-82" type="curve"/>
			<point x="120" y="-82"/>
			<point x="120" y="-82"/>
			<point x="120" y="-82" type="curve"/>
			<point x="120" y="-37"/>
			<point x="136" y="-3"/>
			<point x="165" y="27" type="curve" smooth="yes"/>
			<point x="168" y="30"/>
			<point x="172" y="33"/>
			<point x="175" y="36" type="curve"/>
			<point x="246" y="101"/>
			<point x="246" y="158"/>
			<point x="246" y="199" type="curve" smooth="yes"/>
			<point x="246" y="214" type="line" smooth="yes"/>
			<point x="246" y="225"/>
			<point x="245" y="234"/>
			<point x="240" y="239" type="curve"/>
			<point x="236" y="245"/>
			<point x="228" y="248"/>
			<point x="214" y="248" type="curve" smooth="yes"/>
			<point x="197" y="248"/>
			<point x="189" y="245"/>
			<point x="185" y="237" type="curve" smooth="yes"/>
			<point x="182" y="231"/>
			<point x="181" y="224"/>
			<point x="181" y="214" type="curve" smooth="yes"/>
			<point x="181" y="201" type="line" smooth="yes"/>
			<point x="181" y="168"/>
			<point x="174" y="145"/>
			<point x="163" y="127" type="curve"/>
			<point x="151" y="106"/>
			<point x="133" y="93"/>
			<point x="118" y="82" type="curve" smooth="yes"/>
			<point x="68" y="45"/>
			<point x="5" y="-1"/>
			<point x="5" y="-75" type="curve" smooth="yes"/>
			<point x="5" y="-167"/>
			<point x="76" y="-228"/>
			<point x="190" y="-228" type="curve" smooth="yes"/>
			<point x="251" y="-228"/>
			<point x="297" y="-214"/>
			<point x="327" y="-189" type="curve" smooth="yes"/>
			<point x="361" y="-161"/>
			<point x="380" y="-138"/>
			<point x="380" y="-103" type="curve" smooth="yes"/>
			<point x="380" y="-70"/>
			<point x="356" y="-51"/>
			<point x="334" y="-46" type="curve" smooth="yes"/>
			<point x="330" y="-45"/>
			<point x="326" y="-45"/>
			<point x="323" y="-45" type="curve" smooth="yes"/>
			<point x="293" y="-45"/>
			<point name=".hr01" x="270" y="-61"/>
			<point x="270" y="-86" type="curve" smooth="yes"/>
			<point x="270" y="-100"/>
			<point x="272" y="-108"/>
			<point x="275" y="-115" type="curve"/>
			<point x="277" y="-123"/>
			<point name=".hr02" x="279" y="-130"/>
		</contour>
		<contour>
			<point x="285" y="372" type="curve" smooth="yes"/>
			<point name=".hr03" x="285" y="410"/>
			<point x="253" y="440"/>
			<point x="213" y="440" type="curve" smooth="yes"/>
			<point x="173" y="440"/>
			<point x="139" y="408"/>
			<point x="139" y="370" type="curve" smooth="yes"/>
			<point x="139" y="331"/>
			<point x="171" y="301"/>
			<point x="211" y="301" type="curve" smooth="yes"/>
			<point x="251" y="301"/>
			<point x="285" y="333"/>
		</contour>
	</outline>
</glyph>
<glyph name="Eth" format="2">
	<unicode hex="00D0"/>
	<advance width="734"/>
	<outline>
		<contour>
			<point x="185" y="0" type="curve" smooth="yes"/>
			<point x="225" y="0"/>
			<point x="307" y="-2"/>
			<point x="347" y="-2" type="curve" smooth="yes"/>
			<point x="435" y="-2"/>
			<point x="534" y="20"/>
			<point x="605" y="82" type="curve" smooth="yes"/>
			<point x="653" y="124"/>
			<point x="686" y="207"/>
			<point x="686" y="309" type="curve" smooth="yes"/>
			<point x="686" y="494"/>
			<point x="566" y="646"/>
			<point x="320" y="646" type="curve" smooth="yes"/>
			<point x="267" y="646"/>
			<point x="225" y="645"/>
			<point x="185" y="645" type="curve" smooth="yes"/>
			<point x="180" y="645"/>
			<point x="174" y="645"/>
			<point x="167" y="645" type="curve" smooth="yes"/>
			<point x="118" y="645"/>
			<point x="31" y="647"/>
			<point x="31" y="647" type="curve"/>
			<point x="21" y="641"/>
			<point x="21" y="619"/>
			<point x="31" y="613" type="curve"/>
			<point x="86" y="610"/>
			<point x="114" y="606"/>
			<point x="114" y="523" type="curve" smooth="yes"/>
			<point x="114" y="327" type="line"/>
			<point x="84" y="328"/>
			<point x="54" y="329"/>
			<point x="27" y="330" type="curve"/>
			<point x="24" y="313"/>
			<point x="20" y="297"/>
			<point x="17" y="280" type="curve"/>
			<point x="23" y="280"/>
			<point x="29" y="281"/>
			<point x="35" y="281" type="curve"/>
			<point x="60" y="282"/>
			<point x="87" y="283"/>
			<point x="114" y="283" type="curve"/>
			<point x="114" y="122" type="line" smooth="yes"/>
			<point x="114" y="39"/>
			<point x="86" y="35"/>
			<point x="31" y="32" type="curve"/>
			<point x="21" y="26"/>
			<point x="21" y="4"/>
			<point x="31" y="-2" type="curve"/>
			<point x="31" y="-2"/>
			<point x="145" y="0"/>
		</contour>
		<contour>
			<point x="254" y="119" type="curve" smooth="yes"/>
			<point x="254" y="283" type="line"/>
			<point x="287" y="283"/>
			<point x="319" y="282"/>
			<point x="348" y="280" type="curve"/>
			<point x="351" y="297"/>
			<point x="355" y="313"/>
			<point x="358" y="330" type="curve"/>
			<point x="345" y="329"/>
			<point x="332" y="329"/>
			<point x="318" y="328" type="curve" smooth="yes"/>
			<point x="298" y="327"/>
			<point x="276" y="327"/>
			<point x="254" y="327" type="curve"/>
			<point x="254" y="529" type="line" smooth="yes"/>
			<point x="254" y="540"/>
			<point x="255" y="550"/>
			<point x="257" y="558" type="curve" smooth="yes"/>
			<point x="265" y="591"/>
			<point x="287" y="604"/>
			<point x="316" y="604" type="curve" smooth="yes"/>
			<point x="513" y="604"/>
			<point x="535" y="435"/>
			<point x="535" y="284" type="curve" smooth="yes"/>
			<point x="535" y="102"/>
			<point x="426" y="40"/>
			<point x="350" y="40" type="curve" smooth="yes"/>
			<point x="338" y="40"/>
			<point x="328" y="40"/>
			<point x="319" y="41" type="curve" smooth="yes"/>
			<point x="272" y="46"/>
			<point x="254" y="63"/>
		</contour>
	</outline>
	<anchor name="m.uni0302" x="341" y="850"/>
</glyph>
<glyph name="germandbls" format="2">
	<unicode hex="00DF"/>
	<advance width="615"/>
	<outline>
		<contour>
			<point x="100" y="126" type="line" smooth="yes"/>
			<point x="100" y="44"/>
			<point x="84" y="35"/>
			<point x="23" y="32" type="curve"/>
			<point x="17" y="26"/>
			<point x="17" y="4"/>
			<point name=".hr01" x="23" y="-2" type="curve"/>
			<point x="60" y="-1"/>
			<point x="100" y="0"/>
			<point x="147" y="0" type="curve" smooth="yes"/>
			<point x="153" y="0"/>
			<point x="159" y="0"/>
			<point x="165" y="0" type="curve" smooth="yes"/>
			<point x="201" y="0"/>
			<point x="234" y="0"/>
			<point x="257" y="-2" type="curve"/>
			<point x="263" y="4"/>
			<point x="263" y="26"/>
			<point name=".hr02" x="257" y="32" type="curve"/>
			<point x="246" y="36"/>
			<point x="230" y="44"/>
			<point x="230" y="128" type="curve" smooth="yes"/>
			<point x="230" y="447" type="line" smooth="yes"/>
			<point x="230" y="555"/>
			<point x="254" y="656"/>
			<point x="326" y="656" type="curve" smooth="yes"/>
			<point x="379" y="656"/>
			<point x="386" y="604"/>
			<point x="386" y="564" type="curve" smooth="yes"/>
			<point x="386" y="491"/>
			<point x="386" y="461"/>
			<point x="319" y="409" type="curve"/>
			<point x="319" y="386" type="line"/>
			<point x="403" y="322"/>
			<point name=".hr03" x="432" y="249"/>
			<point x="432" y="156" type="curve" smooth="yes"/>
			<point x="432" y="105"/>
			<point x="431" y="32"/>
			<point x="403" y="32" type="curve"/>
			<point x="403" y="32"/>
			<point x="403" y="32"/>
			<point x="403" y="32" type="curve"/>
			<point x="385" y="32"/>
			<point x="364" y="41"/>
			<point x="364" y="53" type="curve" smooth="yes"/>
			<point x="364" y="59"/>
			<point x="365" y="63"/>
			<point x="366" y="68" type="curve"/>
			<point x="371" y="81"/>
			<point x="379" y="91"/>
			<point x="379" y="106" type="curve" smooth="yes"/>
			<point x="379" y="116"/>
			<point x="375" y="124"/>
			<point x="369" y="130" type="curve" smooth="yes"/>
			<point x="359" y="140"/>
			<point x="344" y="146"/>
			<point x="330" y="146" type="curve" smooth="yes"/>
			<point x="302" y="146"/>
			<point x="286" y="116"/>
			<point x="286" y="98" type="curve" smooth="yes"/>
			<point x="286" y="45"/>
			<point x="320" y="-10"/>
			<point x="403" y="-10" type="curve" smooth="yes"/>
			<point x="495" y="-10"/>
			<point x="574" y="68"/>
			<point x="574" y="173" type="curve" smooth="yes"/>
			<point x="574" y="289"/>
			<point x="477" y="376"/>
			<point x="380" y="409" type="curve"/>
			<point x="380" y="411" type="line"/>
			<point x="415" y="427"/>
			<point x="450" y="441"/>
			<point x="476" y="467" type="curve" smooth="yes"/>
			<point x="504" y="495"/>
			<point name=".hr04" x="521" y="537"/>
			<point x="521" y="577" type="curve" smooth="yes"/>
			<point x="521" y="607"/>
			<point x="499" y="655"/>
			<point x="456" y="678" type="curve" smooth="yes"/>
			<point x="430" y="692"/>
			<point x="384" y="698"/>
			<point x="345" y="698" type="curve" smooth="yes"/>
			<point x="267" y="698"/>
			<point x="100" y="646"/>
			<point x="100" y="482" type="curve" smooth="yes"/>
			<point x="100" y="455"/>
			<point x="89" y="434"/>
			<point x="58" y="434" type="curve" smooth="yes"/>
			<point x="52" y="434"/>
			<point x="47" y="433"/>
			<point x="43" y="431" type="curve"/>
			<point x="35" y="426"/>
			<point x="30" y="419"/>
			<point x="30" y="414" type="curve" smooth="yes"/>
			<point x="30" y="407"/>
			<point x="30" y="401"/>
			<point x="30" y="394" type="curve" smooth="yes"/>
			<point x="30" y="390"/>
			<point x="35" y="390"/>
			<point x="41" y="389" type="curve"/>
			<point x="85" y="384" type="line"/>
			<point x="99" y="382"/>
			<point x="100" y="380"/>
			<point x="100" y="368" type="curve" smooth="yes"/>
		</contour>
	</outline>
</glyph>
<glyph name="eth" format="2">
	<unicode hex="00F0"/>
	<advance width="559"/>
	<outline>
		<contour>
			<point x="35" y="209" type="curve" smooth="yes"/>
			<point x="35" y="105"/>
			<point x="131" y="-10"/>
			<point x="269" y="-10" type="curve" smooth="yes"/>
			<point x="332" y="-10"/>
			<point x="402" y="9"/>
			<point x="449" y="52" type="curve" smooth="yes"/>
			<point x="493" y="93"/>
			<point x="516" y="156"/>
			<point x="516" y="239" type="curve" smooth="yes"/>
			<point x="516" y="324"/>
			<point x="494" y="400"/>
			<point x="453" y="462" type="curve" smooth="yes"/>
			<point x="422" y="510"/>
			<point x="375" y="553"/>
			<point x="336" y="588" type="curve"/>
			<point x="332" y="592"/>
			<point x="327" y="596"/>
			<point x="323" y="600" type="curve"/>
			<point x="422" y="666" type="line"/>
			<point x="398" y="702" type="line"/>
			<point x="367" y="681"/>
			<point x="320" y="651"/>
			<point x="286" y="627" type="curve"/>
			<point x="257" y="650"/>
			<point x="217" y="673"/>
			<point x="170" y="698" type="curve"/>
			<point x="145" y="664" type="line"/>
			<point x="168" y="648"/>
			<point x="192" y="625"/>
			<point x="215" y="603" type="curve" smooth="yes"/>
			<point x="220" y="598"/>
			<point x="225" y="594"/>
			<point x="229" y="589" type="curve"/>
			<point x="124" y="519" type="line"/>
			<point x="148" y="483" type="line"/>
			<point x="179" y="503"/>
			<point x="224" y="533"/>
			<point x="258" y="557" type="curve"/>
			<point x="289" y="526"/>
			<point x="317" y="485"/>
			<point x="337" y="439" type="curve"/>
			<point x="320" y="442"/>
			<point x="302" y="444"/>
			<point x="286" y="444" type="curve" smooth="yes"/>
			<point x="237" y="444"/>
			<point x="168" y="425"/>
			<point x="115" y="382" type="curve" smooth="yes"/>
			<point x="69" y="345"/>
			<point x="35" y="290"/>
		</contour>
		<contour>
			<point x="285" y="32" type="curve" smooth="yes"/>
			<point x="228" y="32"/>
			<point x="175" y="116"/>
			<point x="175" y="227" type="curve" smooth="yes"/>
			<point x="175" y="300"/>
			<point x="201" y="402"/>
			<point x="284" y="402" type="curve" smooth="yes"/>
			<point x="313" y="402"/>
			<point x="343" y="385"/>
			<point x="365" y="361" type="curve"/>
			<point x="371" y="320"/>
			<point x="376" y="271"/>
			<point x="376" y="225" type="curve" smooth="yes"/>
			<point x="376" y="67"/>
			<point x="323" y="32"/>
		</contour>
	</outline>
</glyph>
<glyph name="divide" format="2">
	<unicode hex="00F7"/>
	<advance width="540"/>
	<outline>
		<contour>
			<point x="473" y="266" type="curve"/>
			<point x="451" y="266"/>
			<point x="429" y="266"/>
			<point x="407" y="266" type="curve" smooth="yes"/>
			<point x="74" y="266" type="line"/>
			<point x="71" y="246"/>
			<point x="67" y="226"/>
			<point x="64" y="206" type="curve"/>
			<point x="86" y="206"/>
			<point x="108" y="206"/>
			<point x="131" y="206" type="curve" smooth="yes"/>
			<point x="463" y="206" type="line"/>
			<point x="466" y="226"/>
			<point x="470" y="246"/>
		</contour>
		<contour>
			<point x="207" y="85" type="curve" smooth="yes"/>
			<point x="207" y="53"/>
			<point x="234" y="28"/>
			<point x="267" y="28" type="curve" smooth="yes"/>
			<point x="301" y="28"/>
			<point x="330" y="55"/>
			<point x="330" y="86" type="curve" smooth="yes"/>
			<point x="330" y="119"/>
			<point x="303" y="144"/>
			<point x="269" y="144" type="curve" smooth="yes"/>
			<point x="236" y="144"/>
			<point x="207" y="117"/>
		</contour>
		<contour>
			<point x="207" y="385" type="curve" smooth="yes"/>
			<point x="207" y="353"/>
			<point x="234" y="328"/>
			<point x="267" y="328" type="curve" smooth="yes"/>
			<point x="301" y="328"/>
			<point x="330" y="355"/>
			<point x="330" y="386" type="curve" smooth="yes"/>
			<point x="330" y="419"/>
			<point x="303" y="444"/>
			<point x="269" y="444" type="curve" smooth="yes"/>
			<point x="236" y="444"/>
			<point x="207" y="417"/>
		</contour>
	</outline>
</glyph>
<glyph name="Aogonek" format="2">
	<unicode hex="0104"/>
	<advance width="740"/>
	<outline>
		<contour>
			<point x="677" y="-177" type="curve"/>
			<point x="672" y="-169"/>
			<point x="667" y="-162"/>
			<point x="662" y="-154" type="curve"/>
			<point x="651" y="-165"/>
			<point x="634" y="-170"/>
			<point x="620" y="-171" type="curve"/>
			<point x="615" y="-172"/>
			<point x="610" y="-172"/>
			<point x="606" y="-172" type="curve" smooth="yes"/>
			<point x="589" y="-172"/>
			<point x="571" y="-162"/>
			<point x="571" y="-130" type="curve" smooth="yes"/>
			<point x="571" y="-69"/>
			<point x="609" y="-10"/>
			<point x="655" y="0" type="curve"/>
			<point x="682" y="-1"/>
			<point x="709" y="-1"/>
			<point x="730" y="-2" type="curve"/>
			<point x="736" y="4"/>
			<point x="736" y="26"/>
			<point x="730" y="32" type="curve"/>
			<point x="691" y="36"/>
			<point x="658" y="35"/>
			<point x="640" y="86" type="curve" smooth="yes"/>
			<point x="434" y="658" type="line"/>
			<point x="419" y="649"/>
			<point x="359" y="614"/>
			<point x="324" y="614" type="curve"/>
			<point x="107" y="102" type="line"/>
			<point x="107" y="102" type="line"/>
			<point x="81" y="40"/>
			<point x="51" y="35"/>
			<point x="7" y="32" type="curve"/>
			<point x="1" y="26"/>
			<point x="1" y="4"/>
			<point x="7" y="-2" type="curve"/>
			<point x="44" y="-1"/>
			<point x="62" y="0"/>
			<point x="101" y="0" type="curve" smooth="yes"/>
			<point x="142" y="0"/>
			<point x="197" y="-1"/>
			<point x="234" y="-2" type="curve"/>
			<point x="240" y="4"/>
			<point x="240" y="26"/>
			<point x="234" y="32" type="curve"/>
			<point x="196" y="35"/>
			<point x="149" y="38"/>
			<point x="165" y="79" type="curve" smooth="yes"/>
			<point x="218" y="218" type="line" smooth="yes"/>
			<point x="223" y="231"/>
			<point x="229" y="235"/>
			<point x="253" y="235" type="curve" smooth="yes"/>
			<point x="443" y="235" type="line"/>
			<point x="499" y="72" type="line"/>
			<point x="499" y="72" type="line"/>
			<point x="511" y="36"/>
			<point x="482" y="35"/>
			<point x="444" y="33" type="curve"/>
			<point x="438" y="33"/>
			<point x="431" y="32"/>
			<point x="425" y="32" type="curve"/>
			<point x="419" y="26"/>
			<point x="419" y="4"/>
			<point x="425" y="-2" type="curve"/>
			<point x="454" y="-1"/>
			<point x="518" y="0"/>
			<point x="564" y="0" type="curve" smooth="yes"/>
			<point x="578" y="0" type="line"/>
			<point x="526" y="-31"/>
			<point x="479" y="-88"/>
			<point x="479" y="-136" type="curve" smooth="yes"/>
			<point x="479" y="-176"/>
			<point x="495" y="-201"/>
			<point x="518" y="-216" type="curve" smooth="yes"/>
			<point x="532" y="-225"/>
			<point x="549" y="-232"/>
			<point x="568" y="-232" type="curve" smooth="yes"/>
			<point x="583" y="-232"/>
			<point x="598" y="-229"/>
			<point x="613" y="-224" type="curve"/>
			<point x="637" y="-215"/>
			<point x="661" y="-200"/>
		</contour>
		<contour>
			<point x="273" y="283" type="line" smooth="yes"/>
			<point x="251" y="283"/>
			<point x="244" y="286"/>
			<point x="248" y="296" type="curve" smooth="yes"/>
			<point x="336" y="520" type="line"/>
			<point x="343" y="520" type="line"/>
			<point x="425" y="283" type="line"/>
		</contour>
	</outline>
	<anchor name="m.uni0302" x="365" y="850"/>
</glyph>
<glyph name="aogonek" format="2">
	<unicode hex="0105"/>
	<advance width="506"/>
	<outline>
		<contour>
			<point x="487" y="-177" type="curve"/>
			<point x="487" y="-163"/>
			<point x="483" y="-151"/>
			<point x="472" y="-144" type="curve"/>
			<point x="457" y="-159"/>
			<point x="433" y="-162"/>
			<point x="416" y="-162" type="curve" smooth="yes"/>
			<point x="399" y="-162"/>
			<point x="381" y="-151"/>
			<point x="381" y="-125" type="curve"/>
			<point x="381" y="-125"/>
			<point x="381" y="-125"/>
			<point x="381" y="-125" type="curve"/>
			<point x="381" y="-65"/>
			<point x="412" y="-32"/>
			<point x="458" y="10" type="curve"/>
			<point x="457" y="11" type="line"/>
			<point x="474" y="20"/>
			<point x="489" y="32"/>
			<point x="504" y="46" type="curve"/>
			<point x="502" y="58"/>
			<point x="498" y="66"/>
			<point x="486" y="74" type="curve"/>
			<point x="473" y="64"/>
			<point x="463" y="60"/>
			<point x="444" y="60" type="curve" smooth="yes"/>
			<point x="422" y="60"/>
			<point x="416" y="78"/>
			<point x="416" y="127" type="curve"/>
			<point name=".hr01" x="418" y="271" type="line"/>
			<point x="418" y="415"/>
			<point x="329" y="444"/>
			<point x="247" y="444" type="curve" smooth="yes"/>
			<point x="174" y="444"/>
			<point x="62" y="402"/>
			<point x="62" y="336" type="curve" smooth="yes"/>
			<point x="62" y="332"/>
			<point x="62" y="328"/>
			<point x="63" y="324" type="curve"/>
			<point x="65" y="306"/>
			<point x="75" y="292"/>
			<point x="98" y="287" type="curve"/>
			<point x="102" y="286"/>
			<point x="107" y="286"/>
			<point x="113" y="286" type="curve" smooth="yes"/>
			<point x="149" y="286"/>
			<point x="175" y="308"/>
			<point x="175" y="332" type="curve" smooth="yes"/>
			<point x="175" y="337"/>
			<point x="174" y="343"/>
			<point x="173" y="349" type="curve" smooth="yes"/>
			<point x="172" y="356"/>
			<point x="170" y="362"/>
			<point x="170" y="369" type="curve" smooth="yes"/>
			<point x="170" y="372"/>
			<point x="170" y="376"/>
			<point x="171" y="379" type="curve"/>
			<point x="172" y="390"/>
			<point x="180" y="402"/>
			<point x="213" y="402" type="curve" smooth="yes"/>
			<point x="219" y="402"/>
			<point x="224" y="402"/>
			<point x="229" y="401" type="curve"/>
			<point x="261" y="396"/>
			<point x="286" y="371"/>
			<point x="290" y="281" type="curve"/>
			<point x="290" y="273"/>
			<point x="290" y="265"/>
			<point x="290" y="257" type="curve"/>
			<point x="223" y="236" type="line" smooth="yes"/>
			<point x="118" y="203"/>
			<point x="44" y="174"/>
			<point x="44" y="95" type="curve" smooth="yes"/>
			<point x="44" y="90"/>
			<point x="44" y="86"/>
			<point name=".hr02" x="45" y="82" type="curve"/>
			<point x="49" y="21"/>
			<point x="88" y="-10"/>
			<point x="169" y="-10" type="curve" smooth="yes"/>
			<point x="172" y="-10"/>
			<point x="175" y="-10"/>
			<point x="178" y="-9" type="curve"/>
			<point x="205" y="-5"/>
			<point x="249" y="19"/>
			<point x="279" y="41" type="curve"/>
			<point x="283" y="43"/>
			<point x="286" y="46"/>
			<point x="289" y="48" type="curve"/>
			<point x="295" y="49" type="line"/>
			<point x="302" y="8"/>
			<point x="329" y="-10"/>
			<point x="373" y="-10" type="curve" smooth="yes"/>
			<point x="375" y="-10"/>
			<point x="377" y="-10"/>
			<point x="379" y="-10" type="curve"/>
			<point x="328" y="-48"/>
			<point x="279" y="-96"/>
			<point x="279" y="-146" type="curve" smooth="yes"/>
			<point x="279" y="-201"/>
			<point x="321" y="-232"/>
			<point x="371" y="-232" type="curve" smooth="yes"/>
			<point x="375" y="-232"/>
			<point x="378" y="-232"/>
			<point x="382" y="-232" type="curve"/>
			<point x="419" y="-228"/>
			<point x="463" y="-210"/>
		</contour>
		<contour>
			<point x="290" y="218" type="line"/>
			<point name=".hr03" x="290" y="115" type="line"/>
			<point x="290" y="86" type="line"/>
			<point x="286" y="83"/>
			<point x="282" y="79"/>
			<point x="278" y="76" type="curve" smooth="yes"/>
			<point x="257" y="61"/>
			<point x="237" y="50"/>
			<point x="222" y="50" type="curve" smooth="yes"/>
			<point x="179" y="50"/>
			<point x="164" y="79"/>
			<point x="164" y="110" type="curve" smooth="yes"/>
			<point x="164" y="147"/>
			<point x="167" y="178"/>
			<point x="238" y="201" type="curve" smooth="yes"/>
		</contour>
	</outline>
	<anchor name="m.uni0302" x="209" y="645"/>
	<anchor name="m.uni0316_2" x="146" y="-108"/>
</glyph>
<glyph name="dcaron" format="2">
	<unicode hex="010F"/>
	<advance width="594"/>
	<outline>
		<contour>
			<point x="355" y="48" type="curve"/>
			<point x="357" y="24"/>
			<point x="359" y="7"/>
			<point x="359" y="7" type="curve"/>
			<point x="360" y="-5"/>
			<point x="368" y="-10"/>
			<point x="382" y="-10" type="curve"/>
			<point x="419" y="0"/>
			<point x="479" y="14"/>
			<point name=".hr01" x="548" y="23" type="curve"/>
			<point x="550" y="29"/>
			<point x="548" y="49"/>
			<point x="546" y="55" type="curve"/>
			<point x="492" y="60"/>
			<point x="481" y="76"/>
			<point x="481" y="133" type="curve" smooth="yes"/>
			<point x="481" y="583" type="line" smooth="yes"/>
			<point x="481" y="648"/>
			<point x="484" y="685"/>
			<point x="484" y="685" type="curve"/>
			<point x="484" y="694"/>
			<point x="477" y="698"/>
			<point x="468" y="698" type="curve"/>
			<point x="431" y="686"/>
			<point x="351" y="675"/>
			<point x="280" y="672" type="curve"/>
			<point x="277" y="660"/>
			<point x="278" y="647"/>
			<point x="283" y="638" type="curve"/>
			<point x="291" y="637"/>
			<point x="298" y="637"/>
			<point x="304" y="636" type="curve"/>
			<point x="347" y="632"/>
			<point name=".hr02" x="351" y="623"/>
			<point x="351" y="563" type="curve" smooth="yes"/>
			<point x="351" y="447" type="line" smooth="yes"/>
			<point x="351" y="443"/>
			<point x="351" y="438"/>
			<point x="351" y="433" type="curve"/>
			<point x="347" y="434"/>
			<point x="343" y="435"/>
			<point x="339" y="436" type="curve"/>
			<point x="322" y="441"/>
			<point x="302" y="444"/>
			<point x="279" y="444" type="curve" smooth="yes"/>
			<point x="220" y="444"/>
			<point x="164" y="420"/>
			<point x="121" y="382" type="curve" smooth="yes"/>
			<point x="70" y="336"/>
			<point x="37" y="270"/>
			<point x="37" y="198" type="curve" smooth="yes"/>
			<point x="37" y="139"/>
			<point x="58" y="70"/>
			<point x="107" y="32" type="curve" smooth="yes"/>
			<point x="143" y="4"/>
			<point x="168" y="-10"/>
			<point x="224" y="-10" type="curve" smooth="yes"/>
			<point x="251" y="-10"/>
			<point x="325" y="34"/>
			<point x="346" y="48" type="curve"/>
			<point x="349" y="48"/>
			<point x="352" y="48"/>
		</contour>
		<contour>
			<point x="352" y="95" type="curve"/>
			<point x="331" y="78"/>
			<point x="278" y="56"/>
			<point x="266" y="56" type="curve" smooth="yes"/>
			<point x="216" y="56"/>
			<point x="177" y="112"/>
			<point x="177" y="229" type="curve" smooth="yes"/>
			<point x="177" y="282"/>
			<point x="183" y="328"/>
			<point x="202" y="359" type="curve" smooth="yes"/>
			<point x="219" y="386"/>
			<point x="246" y="402"/>
			<point x="276" y="402" type="curve" smooth="yes"/>
			<point x="302" y="402"/>
			<point x="327" y="399"/>
			<point x="351" y="366" type="curve"/>
			<point x="351" y="351"/>
			<point x="351" y="335"/>
			<point x="351" y="320" type="curve" smooth="yes"/>
			<point x="351" y="135" type="line" smooth="yes"/>
			<point x="351" y="130"/>
			<point x="351" y="125"/>
			<point x="351" y="120" type="curve" smooth="yes"/>
			<point x="351" y="112"/>
			<point x="351" y="103"/>
		</contour>
		<contour>
			<point x="569" y="698" type="curve" smooth="yes"/>
			<point x="533" y="698"/>
			<point x="522" y="680"/>
			<point x="522" y="664" type="curve" smooth="yes"/>
			<point x="522" y="648"/>
			<point x="527" y="623"/>
			<point x="568" y="623" type="curve" smooth="yes"/>
			<point x="575" y="623"/>
			<point x="579" y="615"/>
			<point x="579" y="605" type="curve" smooth="yes"/>
			<point x="579" y="582"/>
			<point x="561" y="545"/>
			<point x="519" y="536" type="curve"/>
			<point x="523" y="519" type="line"/>
			<point x="614" y="524"/>
			<point x="629" y="599"/>
			<point x="629" y="625" type="curve" smooth="yes"/>
			<point x="629" y="661"/>
			<point x="607" y="698"/>
		</contour>
	</outline>
</glyph>
<glyph name="Dcroat" format="2">
	<unicode hex="0110"/>
	<advance width="734"/>
	<outline>
		<contour>
			<point x="185" y="0" type="curve" smooth="yes"/>
			<point x="225" y="0"/>
			<point x="307" y="-2"/>
			<point x="347" y="-2" type="curve" smooth="yes"/>
			<point x="435" y="-2"/>
			<point x="534" y="20"/>
			<point x="605" y="82" type="curve" smooth="yes"/>
			<point x="653" y="124"/>
			<point x="686" y="207"/>
			<point x="686" y="309" type="curve" smooth="yes"/>
			<point x="686" y="494"/>
			<point x="566" y="646"/>
			<point x="320" y="646" type="curve" smooth="yes"/>
			<point x="267" y="646"/>
			<point x="225" y="645"/>
			<point x="185" y="645" type="curve" smooth="yes"/>
			<point x="180" y="645"/>
			<point x="174" y="645"/>
			<point x="167" y="645" type="curve" smooth="yes"/>
			<point x="118" y="645"/>
			<point x="31" y="647"/>
			<point x="31" y="647" type="curve"/>
			<point x="21" y="641"/>
			<point x="21" y="619"/>
			<point x="31" y="613" type="curve"/>
			<point x="86" y="610"/>
			<point x="114" y="606"/>
			<point x="114" y="523" type="curve" smooth="yes"/>
			<point x="114" y="327" type="line"/>
			<point x="84" y="328"/>
			<point x="54" y="329"/>
			<point x="27" y="330" type="curve"/>
			<point x="25" y="319"/>
			<point x="23" y="308"/>
			<point x="20" y="297" type="curve"/>
			<point x="19" y="291"/>
			<point x="18" y="286"/>
			<point x="17" y="280" type="curve"/>
			<point x="47" y="282"/>
			<point x="80" y="283"/>
			<point x="114" y="283" type="curve"/>
			<point x="114" y="122" type="line" smooth="yes"/>
			<point x="114" y="39"/>
			<point x="86" y="35"/>
			<point x="31" y="32" type="curve"/>
			<point x="21" y="26"/>
			<point x="21" y="4"/>
			<point x="31" y="-2" type="curve"/>
			<point x="31" y="-2"/>
			<point x="145" y="0"/>
		</contour>
		<contour>
			<point x="254" y="119" type="curve" smooth="yes"/>
			<point x="254" y="283" type="line"/>
			<point x="287" y="283"/>
			<point x="319" y="282"/>
			<point x="348" y="280" type="curve"/>
			<point x="351" y="297"/>
			<point x="355" y="313"/>
			<point x="358" y="330" type="curve"/>
			<point x="352" y="330"/>
			<point x="345" y="329"/>
			<point x="338" y="329" type="curve"/>
			<point x="312" y="328"/>
			<point x="284" y="327"/>
			<point x="254" y="327" type="curve"/>
			<point x="254" y="529" type="line" smooth="yes"/>
			<point x="254" y="540"/>
			<point x="255" y="550"/>
			<point x="257" y="558" type="curve" smooth="yes"/>
			<point x="265" y="591"/>
			<point x="287" y="604"/>
			<point x="316" y="604" type="curve" smooth="yes"/>
			<point x="513" y="604"/>
			<point x="535" y="435"/>
			<point x="535" y="284" type="curve" smooth="yes"/>
			<point x="535" y="102"/>
			<point x="426" y="40"/>
			<point x="350" y="40" type="curve" smooth="yes"/>
			<point x="280" y="40"/>
			<point x="254" y="52"/>
		</contour>
	</outline>
</glyph>
<glyph name="eogonek" format="2">
	<unicode hex="0119"/>
	<advance width="489"/>
	<outline>
		<contour>
			<point x="431" y="129" type="curve"/>
			<point x="390" y="87"/>
			<point x="336" y="76"/>
			<point x="298" y="76" type="curve" smooth="yes"/>
			<point x="248" y="76"/>
			<point x="210" y="95"/>
			<point x="190" y="134" type="curve" smooth="yes"/>
			<point x="178" y="156"/>
			<point x="172" y="184"/>
			<point x="172" y="219" type="curve" smooth="yes"/>
			<point x="172" y="226"/>
			<point x="173" y="230"/>
			<point x="173" y="235" type="curve"/>
			<point x="413" y="235" type="line" smooth="yes"/>
			<point x="419" y="235"/>
			<point x="424" y="236"/>
			<point x="428" y="238" type="curve"/>
			<point x="435" y="242"/>
			<point x="439" y="248"/>
			<point x="441" y="255" type="curve"/>
			<point x="442" y="259"/>
			<point x="442" y="263"/>
			<point x="442" y="266" type="curve" smooth="yes"/>
			<point x="442" y="351"/>
			<point x="409" y="444"/>
			<point x="262" y="444" type="curve" smooth="yes"/>
			<point x="157" y="444"/>
			<point x="37" y="351"/>
			<point x="37" y="198" type="curve" smooth="yes"/>
			<point x="37" y="145"/>
			<point x="54" y="90"/>
			<point x="90" y="51" type="curve"/>
			<point x="93" y="47"/>
			<point x="97" y="44"/>
			<point x="101" y="40" type="curve"/>
			<point x="135" y="9"/>
			<point x="177" y="-6"/>
			<point x="237" y="-9" type="curve"/>
			<point x="243" y="-10"/>
			<point x="250" y="-10"/>
			<point x="256" y="-10" type="curve"/>
			<point x="212" y="-46"/>
			<point x="174" y="-88"/>
			<point x="174" y="-132" type="curve" smooth="yes"/>
			<point x="174" y="-187"/>
			<point x="216" y="-218"/>
			<point x="266" y="-218" type="curve" smooth="yes"/>
			<point x="270" y="-218"/>
			<point x="275" y="-218"/>
			<point x="279" y="-217" type="curve"/>
			<point x="316" y="-214"/>
			<point x="359" y="-195"/>
			<point x="382" y="-163" type="curve"/>
			<point x="382" y="-149"/>
			<point x="378" y="-137"/>
			<point x="367" y="-130" type="curve"/>
			<point x="352" y="-145"/>
			<point x="328" y="-148"/>
			<point x="311" y="-148" type="curve" smooth="yes"/>
			<point x="294" y="-148"/>
			<point x="276" y="-137"/>
			<point x="276" y="-111" type="curve"/>
			<point x="276" y="-111"/>
			<point x="276" y="-111"/>
			<point x="276" y="-111" type="curve"/>
			<point x="276" y="-61"/>
			<point x="297" y="-30"/>
			<point x="331" y="3" type="curve"/>
			<point x="340" y="6"/>
			<point x="348" y="10"/>
			<point x="356" y="15" type="curve"/>
			<point x="390" y="32"/>
			<point x="420" y="60"/>
			<point x="446" y="98" type="curve"/>
			<point x="446" y="111"/>
			<point x="441" y="129"/>
		</contour>
		<contour>
			<point x="177" y="275" type="line"/>
			<point x="178" y="310"/>
			<point x="183" y="348"/>
			<point x="197" y="368" type="curve" smooth="yes"/>
			<point x="213" y="392"/>
			<point x="240" y="402"/>
			<point x="251" y="402" type="curve" smooth="yes"/>
			<point x="253" y="402"/>
			<point x="256" y="402"/>
			<point x="258" y="401" type="curve"/>
			<point x="284" y="397"/>
			<point x="315" y="369"/>
			<point x="315" y="296" type="curve" smooth="yes"/>
			<point x="315" y="290"/>
			<point x="315" y="277"/>
			<point x="313" y="275" type="curve"/>
		</contour>
	</outline>
	<anchor name="m.uni0302" x="231" y="645"/>
	<anchor name="m.uni0316_2" x="70" y="-108"/>
</glyph>
<glyph name="uni0122" format="2">
	<unicode hex="0122"/>
	<advance width="732"/>
	<outline>
		<contour>
			<point x="395" y="658" type="curve" smooth="yes"/>
			<point x="297" y="658"/>
			<point x="208" y="627"/>
			<point x="139" y="565" type="curve" smooth="yes"/>
			<point x="72" y="505"/>
			<point x="33" y="415"/>
			<point x="33" y="307" type="curve" smooth="yes"/>
			<point x="33" y="217"/>
			<point x="69" y="124"/>
			<point x="138" y="66" type="curve" smooth="yes"/>
			<point x="196" y="16"/>
			<point x="268" y="-6"/>
			<point x="361" y="-10" type="curve"/>
			<point x="369" y="-10"/>
			<point x="377" y="-10"/>
			<point x="385" y="-10" type="curve" smooth="yes"/>
			<point x="497" y="-10"/>
			<point x="605" y="24"/>
			<point x="669" y="78" type="curve"/>
			<point x="659" y="87"/>
			<point x="654" y="95"/>
			<point x="654" y="106" type="curve" smooth="yes"/>
			<point x="654" y="223" type="line" smooth="yes"/>
			<point x="654" y="258"/>
			<point x="669" y="268"/>
			<point x="697" y="271" type="curve"/>
			<point x="703" y="277"/>
			<point x="703" y="302"/>
			<point x="697" y="308" type="curve"/>
			<point x="674" y="307"/>
			<point x="637" y="306"/>
			<point x="604" y="306" type="curve" smooth="yes"/>
			<point x="597" y="306"/>
			<point x="590" y="306"/>
			<point x="584" y="306" type="curve" smooth="yes"/>
			<point x="547" y="306"/>
			<point x="481" y="307"/>
			<point x="436" y="308" type="curve"/>
			<point x="430" y="302"/>
			<point x="430" y="277"/>
			<point x="436" y="271" type="curve"/>
			<point x="488" y="267"/>
			<point x="514" y="263"/>
			<point x="514" y="223" type="curve" smooth="yes"/>
			<point x="514" y="74" type="line"/>
			<point x="482" y="42"/>
			<point x="458" y="32"/>
			<point x="407" y="32" type="curve"/>
			<point x="407" y="32"/>
			<point x="407" y="32"/>
			<point x="407" y="32" type="curve"/>
			<point x="238" y="32"/>
			<point x="184" y="195"/>
			<point x="184" y="327" type="curve" smooth="yes"/>
			<point x="184" y="413"/>
			<point x="197" y="491"/>
			<point x="234" y="542" type="curve" smooth="yes"/>
			<point x="273" y="595"/>
			<point x="328" y="616"/>
			<point x="381" y="616" type="curve" smooth="yes"/>
			<point x="511" y="616"/>
			<point x="577" y="539"/>
			<point x="602" y="453" type="curve"/>
			<point x="618" y="451"/>
			<point x="634" y="453"/>
			<point x="646" y="459" type="curve"/>
			<point x="637" y="501"/>
			<point x="632" y="551"/>
			<point x="625" y="623" type="curve"/>
			<point x="573" y="623"/>
			<point x="520" y="658"/>
		</contour>
		<contour>
			<point x="371" y="-51" type="curve" smooth="yes"/>
			<point x="348" y="-51"/>
			<point x="320" y="-72"/>
			<point x="320" y="-89" type="curve" smooth="yes"/>
			<point x="320" y="-93"/>
			<point x="320" y="-96"/>
			<point x="321" y="-99" type="curve"/>
			<point x="323" y="-118"/>
			<point x="334" y="-130"/>
			<point x="353" y="-134" type="curve"/>
			<point x="355" y="-134"/>
			<point x="357" y="-135"/>
			<point x="359" y="-135" type="curve"/>
			<point x="369" y="-137"/>
			<point x="382" y="-141"/>
			<point x="382" y="-157" type="curve"/>
			<point x="382" y="-157"/>
			<point x="382" y="-157"/>
			<point x="382" y="-157" type="curve"/>
			<point x="382" y="-175"/>
			<point x="357" y="-199"/>
			<point x="317" y="-210" type="curve"/>
			<point x="313" y="-222"/>
			<point x="313" y="-232"/>
			<point x="323" y="-238" type="curve"/>
			<point x="388" y="-227"/>
			<point x="438" y="-190"/>
			<point x="443" y="-137" type="curve"/>
			<point x="443" y="-135"/>
			<point x="443" y="-132"/>
			<point x="443" y="-129" type="curve" smooth="yes"/>
			<point x="443" y="-66"/>
			<point x="403" y="-51"/>
		</contour>
	</outline>
</glyph>
<glyph name="uni0123" format="2">
	<unicode hex="0123"/>
	<advance width="521"/>
	<outline>
		<contour>
			<point x="467" y="394" type="curve" smooth="yes"/>
			<point x="495" y="394"/>
			<point name=".hr01" x="511" y="406"/>
			<point x="511" y="443" type="curve" smooth="yes"/>
			<point x="511" y="459"/>
			<point x="492" y="483"/>
			<point name=".hr02" x="463" y="489" type="curve" smooth="yes"/>
			<point x="458" y="490"/>
			<point x="452" y="491"/>
			<point x="447" y="491" type="curve" smooth="yes"/>
			<point x="403" y="491"/>
			<point x="345" y="458"/>
			<point x="316" y="432" type="curve"/>
			<point x="298" y="442"/>
			<point name=".hr03" x="277" y="444"/>
			<point x="232" y="444" type="curve" smooth="yes"/>
			<point x="189" y="444"/>
			<point x="147" y="434"/>
			<point x="114" y="412" type="curve" smooth="yes"/>
			<point x="77" y="388"/>
			<point x="51" y="354"/>
			<point x="47" y="310" type="curve"/>
			<point x="46" y="305"/>
			<point x="46" y="301"/>
			<point x="46" y="296" type="curve" smooth="yes"/>
			<point x="46" y="247"/>
			<point x="75" y="194"/>
			<point x="123" y="168" type="curve"/>
			<point x="95" y="144"/>
			<point x="53" y="98"/>
			<point name=".hr04" x="45" y="75" type="curve" smooth="yes"/>
			<point x="44" y="72"/>
			<point x="44" y="70"/>
			<point x="44" y="68" type="curve" smooth="yes"/>
			<point x="44" y="49"/>
			<point name=".hr05" x="47" y="37"/>
			<point x="57" y="22" type="curve" smooth="yes"/>
			<point x="66" y="8"/>
			<point x="78" y="0"/>
			<point x="98" y="-6" type="curve"/>
			<point x="55" y="-32"/>
			<point name=".hr06" x="11" y="-89"/>
			<point x="11" y="-106" type="curve" smooth="yes"/>
			<point x="11" y="-110"/>
			<point x="11" y="-114"/>
			<point x="11" y="-119" type="curve"/>
			<point x="14" y="-152"/>
			<point x="26" y="-188"/>
			<point x="50" y="-205" type="curve" smooth="yes"/>
			<point x="86" y="-230"/>
			<point x="145" y="-237"/>
			<point x="192" y="-238" type="curve"/>
			<point x="196" y="-238"/>
			<point x="199" y="-238"/>
			<point x="203" y="-238" type="curve" smooth="yes"/>
			<point x="342" y="-238"/>
			<point x="501" y="-165"/>
			<point x="501" y="-55" type="curve" smooth="yes"/>
			<point x="501" y="-34"/>
			<point x="491" y="9"/>
			<point x="451" y="36" type="curve" smooth="yes"/>
			<point x="427" y="52"/>
			<point x="360" y="61"/>
			<point x="295" y="65" type="curve" smooth="yes"/>
			<point x="265" y="67"/>
			<point x="236" y="68"/>
			<point x="211" y="69" type="curve"/>
			<point x="203" y="69"/>
			<point x="195" y="69"/>
			<point x="188" y="69" type="curve"/>
			<point x="188" y="69"/>
			<point x="188" y="69"/>
			<point x="188" y="69" type="curve"/>
			<point x="170" y="69"/>
			<point name=".hr07" x="143" y="71"/>
			<point x="143" y="111" type="curve"/>
			<point x="143" y="111"/>
			<point x="143" y="111"/>
			<point x="143" y="111" type="curve"/>
			<point x="143" y="127"/>
			<point x="153" y="141"/>
			<point x="158" y="153" type="curve"/>
			<point x="179" y="143"/>
			<point x="200" y="142"/>
			<point x="231" y="142" type="curve" smooth="yes"/>
			<point x="282" y="142"/>
			<point x="329" y="155"/>
			<point x="363" y="185" type="curve" smooth="yes"/>
			<point x="392" y="211"/>
			<point x="412" y="246"/>
			<point x="412" y="291" type="curve" smooth="yes"/>
			<point x="412" y="296"/>
			<point x="412" y="301"/>
			<point x="411" y="306" type="curve"/>
			<point x="407" y="354"/>
			<point x="381" y="387"/>
			<point x="350" y="412" type="curve"/>
			<point x="358" y="422"/>
			<point x="391" y="440"/>
			<point x="401" y="440" type="curve" smooth="yes"/>
			<point x="410" y="440"/>
			<point x="417" y="434"/>
			<point x="420" y="428" type="curve"/>
			<point x="421" y="425"/>
			<point x="422" y="422"/>
			<point x="424" y="419" type="curve"/>
			<point x="431" y="407"/>
			<point x="447" y="394"/>
		</contour>
		<contour>
			<point x="175" y="-25" type="curve" smooth="yes"/>
			<point x="196" y="-25"/>
			<point x="223" y="-25"/>
			<point x="251" y="-27" type="curve" smooth="yes"/>
			<point x="290" y="-29"/>
			<point x="330" y="-33"/>
			<point x="359" y="-43" type="curve" smooth="yes"/>
			<point x="384" y="-51"/>
			<point x="400" y="-63"/>
			<point x="400" y="-81" type="curve" smooth="yes"/>
			<point x="400" y="-86"/>
			<point x="400" y="-90"/>
			<point x="399" y="-95" type="curve"/>
			<point name=".hr08" x="396" y="-127"/>
			<point x="380" y="-160"/>
			<point x="351" y="-176" type="curve" smooth="yes"/>
			<point x="320" y="-194"/>
			<point x="269" y="-196"/>
			<point x="231" y="-196" type="curve" smooth="yes"/>
			<point x="171" y="-196"/>
			<point x="128" y="-155"/>
			<point x="121" y="-109" type="curve"/>
			<point x="120" y="-104"/>
			<point x="120" y="-100"/>
			<point x="120" y="-96" type="curve" smooth="yes"/>
			<point x="120" y="-62"/>
			<point x="120" y="-39"/>
			<point x="131" y="-19" type="curve"/>
			<point x="141" y="-23"/>
			<point x="154" y="-25"/>
		</contour>
		<contour>
			<point x="290" y="288" type="curve" smooth="yes"/>
			<point x="290" y="192"/>
			<point name=".hr09" x="262" y="180"/>
			<point x="236" y="180" type="curve" smooth="yes"/>
			<point x="174" y="180"/>
			<point x="166" y="254"/>
			<point x="166" y="305" type="curve" smooth="yes"/>
			<point x="166" y="379"/>
			<point x="184" y="406"/>
			<point x="223" y="406" type="curve" smooth="yes"/>
			<point x="270" y="406"/>
			<point x="290" y="367"/>
		</contour>
		<contour>
			<point x="232" y="508" type="curve" smooth="yes"/>
			<point x="255" y="508"/>
			<point x="283" y="529"/>
			<point x="283" y="546" type="curve"/>
			<point x="283" y="546"/>
			<point x="283" y="546"/>
			<point x="283" y="546" type="curve"/>
			<point x="283" y="571"/>
			<point x="272" y="586"/>
			<point x="250" y="591" type="curve"/>
			<point x="247" y="592"/>
			<point x="242" y="592"/>
			<point x="236" y="594" type="curve"/>
			<point x="234" y="595"/>
			<point x="231" y="596"/>
			<point x="229" y="598" type="curve"/>
			<point x="224" y="601"/>
			<point x="221" y="606"/>
			<point x="221" y="614" type="curve" smooth="yes"/>
			<point x="221" y="632"/>
			<point name=".hr10" x="246" y="656"/>
			<point x="286" y="667" type="curve"/>
			<point x="290" y="679"/>
			<point x="290" y="689"/>
			<point x="280" y="695" type="curve"/>
			<point x="243" y="688"/>
			<point x="210" y="673"/>
			<point x="188" y="652" type="curve"/>
			<point x="171" y="634"/>
			<point x="160" y="612"/>
			<point x="160" y="586" type="curve" smooth="yes"/>
			<point x="160" y="523"/>
			<point x="200" y="508"/>
		</contour>
	</outline>
</glyph>
<glyph name="Iogonek" format="2">
	<unicode hex="012E"/>
	<advance width="367"/>
	<outline>
		<contour>
			<point x="277" y="-177" type="curve"/>
			<point x="272" y="-169"/>
			<point x="267" y="-162"/>
			<point x="262" y="-154" type="curve"/>
			<point x="251" y="-165"/>
			<point x="234" y="-170"/>
			<point x="220" y="-171" type="curve"/>
			<point x="215" y="-172"/>
			<point x="210" y="-172"/>
			<point x="206" y="-172" type="curve" smooth="yes"/>
			<point x="189" y="-172"/>
			<point x="171" y="-162"/>
			<point x="171" y="-130" type="curve"/>
			<point x="171" y="-130"/>
			<point x="171" y="-130"/>
			<point x="171" y="-130" type="curve"/>
			<point x="171" y="-69"/>
			<point x="209" y="-11"/>
			<point x="255" y="0" type="curve"/>
			<point x="255" y="0"/>
			<point x="255" y="0"/>
			<point x="255" y="0" type="curve"/>
			<point x="255" y="0" type="line"/>
			<point x="285" y="-1"/>
			<point x="316" y="-1"/>
			<point x="337" y="-2" type="curve"/>
			<point x="347" y="4"/>
			<point x="347" y="26"/>
			<point x="337" y="32" type="curve"/>
			<point x="282" y="35"/>
			<point name=".hr01" x="254" y="39"/>
			<point x="254" y="122" type="curve" smooth="yes"/>
			<point x="254" y="523" type="line" smooth="yes"/>
			<point x="254" y="606"/>
			<point x="282" y="610"/>
			<point x="337" y="613" type="curve"/>
			<point x="347" y="619"/>
			<point x="347" y="641"/>
			<point x="337" y="647" type="curve"/>
			<point x="297" y="646"/>
			<point x="225" y="645"/>
			<point x="185" y="645" type="curve" smooth="yes"/>
			<point x="145" y="645"/>
			<point x="71" y="646"/>
			<point x="31" y="647" type="curve"/>
			<point x="21" y="641"/>
			<point x="21" y="619"/>
			<point x="31" y="613" type="curve"/>
			<point x="86" y="610"/>
			<point x="114" y="606"/>
			<point x="114" y="523" type="curve" smooth="yes"/>
			<point x="114" y="122" type="line"/>
			<point x="114" y="122" type="line"/>
			<point x="114" y="39"/>
			<point x="86" y="35"/>
			<point x="31" y="32" type="curve"/>
			<point x="21" y="26"/>
			<point x="21" y="4"/>
			<point x="31" y="-2" type="curve"/>
			<point x="65" y="-1"/>
			<point x="124" y="0"/>
			<point x="165" y="0" type="curve" smooth="yes"/>
			<point x="178" y="0" type="line"/>
			<point x="126" y="-31"/>
			<point name=".hr02" x="79" y="-88"/>
			<point x="79" y="-136" type="curve" smooth="yes"/>
			<point x="79" y="-176"/>
			<point x="95" y="-201"/>
			<point x="118" y="-216" type="curve" smooth="yes"/>
			<point x="132" y="-225"/>
			<point x="149" y="-232"/>
			<point x="168" y="-232" type="curve" smooth="yes"/>
			<point x="178" y="-232"/>
			<point x="188" y="-231"/>
			<point x="198" y="-228" type="curve"/>
			<point x="228" y="-221"/>
			<point x="258" y="-204"/>
		</contour>
	</outline>
	<anchor name="m.uni0302" x="146" y="850"/>
</glyph>
<glyph name="dotlessi" format="2">
	<unicode hex="0131"/>
	<advance width="322"/>
	<outline>
		<contour>
			<point x="232" y="121" type="curve" smooth="yes"/>
			<point x="232" y="319" type="line" smooth="yes"/>
			<point x="232" y="369"/>
			<point x="233" y="401"/>
			<point x="236" y="427" type="curve"/>
			<point x="236" y="438"/>
			<point x="227" y="444"/>
			<point x="213" y="444" type="curve"/>
			<point x="183" y="432"/>
			<point x="98" y="419"/>
			<point x="35" y="416" type="curve"/>
			<point x="33" y="410"/>
			<point x="35" y="388"/>
			<point x="37" y="382" type="curve"/>
			<point x="92" y="377"/>
			<point x="102" y="369"/>
			<point x="102" y="312" type="curve" smooth="yes"/>
			<point x="102" y="121" type="line" smooth="yes"/>
			<point x="102" y="38"/>
			<point x="91" y="37"/>
			<point x="30" y="32" type="curve"/>
			<point x="24" y="26"/>
			<point x="24" y="4"/>
			<point x="30" y="-2" type="curve"/>
			<point x="72" y="-1"/>
			<point x="114" y="0"/>
			<point x="167" y="0" type="curve"/>
			<point x="191.68" y="-0.360285"/>
			<point x="283.63" y="-1.70263"/>
			<point x="304" y="-2" type="curve"/>
			<point x="310" y="4"/>
			<point x="310" y="26"/>
			<point x="304" y="32" type="curve"/>
			<point x="243" y="36"/>
			<point x="232" y="38"/>
		</contour>
	</outline>
	<anchor name="t.uni0302" x="141" y="500"/>
	<anchor name="m.uni0316_2" x="139" y="-108"/>
</glyph>
<glyph name="uni0137" format="2">
	<unicode hex="0137"/>
	<advance width="613"/>
	<outline>
		<contour>
			<point x="100" y="127" type="line" smooth="yes"/>
			<point x="100" y="44"/>
			<point x="84" y="35"/>
			<point x="23" y="32" type="curve"/>
			<point x="17" y="26"/>
			<point x="17" y="4"/>
			<point x="23" y="-2" type="curve"/>
			<point x="61" y="-1"/>
			<point x="102" y="0"/>
			<point x="150" y="0" type="curve" smooth="yes"/>
			<point x="165" y="0" type="line" smooth="yes"/>
			<point x="209" y="0"/>
			<point x="253" y="-1"/>
			<point x="277" y="-2" type="curve"/>
			<point x="283" y="4"/>
			<point x="283" y="26"/>
			<point x="277" y="32" type="curve"/>
			<point x="247" y="36"/>
			<point x="230" y="44"/>
			<point x="230" y="127" type="curve" smooth="yes"/>
			<point x="230" y="209" type="line"/>
			<point x="239" y="209"/>
			<point x="249" y="209"/>
			<point x="258" y="208" type="curve" smooth="yes"/>
			<point x="276" y="206"/>
			<point x="292" y="201"/>
			<point x="299" y="190" type="curve"/>
			<point x="322" y="156"/>
			<point x="350" y="115"/>
			<point x="367" y="78" type="curve" smooth="yes"/>
			<point x="380" y="50"/>
			<point x="383" y="41"/>
			<point x="383" y="26" type="curve" smooth="yes"/>
			<point x="383" y="22"/>
			<point x="383" y="17"/>
			<point x="383" y="13" type="curve" smooth="yes"/>
			<point x="383" y="9"/>
			<point x="383" y="4"/>
			<point x="383" y="0" type="curve"/>
			<point x="385" y="-2" type="line"/>
			<point x="385" y="-2"/>
			<point x="386" y="-2"/>
			<point x="388" y="-2" type="curve"/>
			<point x="400" y="-1"/>
			<point x="436" y="0"/>
			<point x="465" y="0" type="curve" smooth="yes"/>
			<point x="477" y="0"/>
			<point x="491" y="0"/>
			<point x="505" y="0" type="curve"/>
			<point x="538" y="-1"/>
			<point x="573" y="-1"/>
			<point x="599" y="-2" type="curve"/>
			<point x="605" y="4"/>
			<point x="605" y="26"/>
			<point x="599" y="32" type="curve"/>
			<point x="560" y="36"/>
			<point x="538" y="33"/>
			<point x="508" y="78" type="curve" smooth="yes"/>
			<point x="392" y="249" type="line"/>
			<point x="392" y="249"/>
			<point x="392" y="249"/>
			<point x="392" y="249" type="curve"/>
			<point x="387" y="256"/>
			<point x="385" y="264"/>
			<point x="389" y="269" type="curve"/>
			<point x="439" y="324" type="line"/>
			<point x="444" y="330"/>
			<point x="450" y="336"/>
			<point x="455" y="341" type="curve"/>
			<point x="481" y="370"/>
			<point x="511" y="395"/>
			<point x="574" y="402" type="curve"/>
			<point x="580" y="408"/>
			<point x="580" y="430"/>
			<point x="574" y="436" type="curve"/>
			<point x="552" y="435"/>
			<point x="489" y="434"/>
			<point x="463" y="434" type="curve" smooth="yes"/>
			<point x="426" y="434"/>
			<point x="379" y="435"/>
			<point x="342" y="436" type="curve"/>
			<point x="336" y="430"/>
			<point x="336" y="408"/>
			<point x="342" y="402" type="curve"/>
			<point x="396" y="398"/>
			<point x="412" y="389"/>
			<point x="383" y="349" type="curve" smooth="yes"/>
			<point x="380" y="345"/>
			<point x="377" y="341"/>
			<point x="374" y="337" type="curve" smooth="yes"/>
			<point x="355" y="312"/>
			<point x="336" y="292"/>
			<point x="319" y="277" type="curve"/>
			<point x="313" y="272"/>
			<point x="302" y="266"/>
			<point x="288" y="261" type="curve" smooth="yes"/>
			<point x="270" y="255"/>
			<point x="247" y="249"/>
			<point x="230" y="249" type="curve"/>
			<point x="230" y="583" type="line" smooth="yes"/>
			<point x="230" y="648"/>
			<point x="233" y="685"/>
			<point x="233" y="685" type="curve"/>
			<point x="233" y="694"/>
			<point x="226" y="698"/>
			<point x="217" y="698" type="curve"/>
			<point x="180" y="686"/>
			<point x="100" y="675"/>
			<point x="29" y="672" type="curve"/>
			<point x="26" y="660"/>
			<point x="27" y="649"/>
			<point x="32" y="640" type="curve"/>
			<point x="39" y="639"/>
			<point x="45" y="639"/>
			<point x="51" y="638" type="curve"/>
			<point x="96" y="634"/>
			<point x="100" y="626"/>
			<point x="100" y="565" type="curve" smooth="yes"/>
		</contour>
		<contour>
			<point x="302" y="-51" type="curve" smooth="yes"/>
			<point x="279" y="-51"/>
			<point x="251" y="-72"/>
			<point x="251" y="-89" type="curve" smooth="yes"/>
			<point x="251" y="-93"/>
			<point x="251" y="-96"/>
			<point x="252" y="-99" type="curve"/>
			<point x="254" y="-118"/>
			<point x="265" y="-130"/>
			<point x="284" y="-134" type="curve"/>
			<point x="286" y="-134"/>
			<point x="288" y="-135"/>
			<point x="290" y="-135" type="curve"/>
			<point x="300" y="-137"/>
			<point x="313" y="-141"/>
			<point x="313" y="-157" type="curve"/>
			<point x="313" y="-157"/>
			<point x="313" y="-157"/>
			<point x="313" y="-157" type="curve"/>
			<point x="313" y="-175"/>
			<point x="288" y="-199"/>
			<point x="248" y="-210" type="curve"/>
			<point x="244" y="-222"/>
			<point x="244" y="-232"/>
			<point x="254" y="-238" type="curve"/>
			<point x="319" y="-227"/>
			<point x="369" y="-190"/>
			<point x="374" y="-137" type="curve"/>
			<point x="374" y="-135"/>
			<point x="374" y="-132"/>
			<point x="374" y="-129" type="curve" smooth="yes"/>
			<point x="374" y="-66"/>
			<point x="334" y="-51"/>
		</contour>
	</outline>
</glyph>
<glyph name="uni013B" format="2">
	<unicode hex="013B"/>
	<advance width="577"/>
	<outline>
		<contour>
			<point x="349" y="42" type="curve" smooth="yes"/>
			<point x="289" y="42" type="line" smooth="yes"/>
			<point x="268" y="42"/>
			<point x="254" y="61"/>
			<point x="254" y="121" type="curve" smooth="yes"/>
			<point x="254" y="181.625"/>
			<point x="254" y="460.764"/>
			<point x="254" y="523" type="curve" smooth="yes"/>
			<point x="254" y="606"/>
			<point x="282" y="610"/>
			<point x="337" y="613" type="curve"/>
			<point x="347" y="619"/>
			<point x="347" y="641"/>
			<point x="337" y="647" type="curve"/>
			<point x="255" y="646"/>
			<point x="225" y="645"/>
			<point x="185" y="645" type="curve" smooth="yes"/>
			<point x="145" y="645"/>
			<point x="31" y="647"/>
			<point x="31" y="647" type="curve"/>
			<point x="21" y="641"/>
			<point x="21" y="619"/>
			<point x="31" y="613" type="curve"/>
			<point x="86" y="610"/>
			<point x="114" y="606"/>
			<point x="114" y="523" type="curve" smooth="yes"/>
			<point x="114" y="475.056"/>
			<point x="114" y="169.944"/>
			<point name=".hr01" x="114" y="122" type="curve" smooth="yes"/>
			<point x="114" y="39"/>
			<point x="86" y="35"/>
			<point x="31" y="32" type="curve"/>
			<point x="21" y="26"/>
			<point x="21" y="4"/>
			<point x="31" y="-2" type="curve"/>
			<point x="31" y="-2"/>
			<point x="146" y="0"/>
			<point x="185" y="0" type="curve" smooth="yes"/>
			<point x="237.664" y="0"/>
			<point x="345.613" y="0"/>
			<point x="408" y="0" type="curve" smooth="yes"/>
			<point x="437" y="0"/>
			<point x="528" y="-2"/>
			<point x="528" y="-2" type="curve"/>
			<point x="538" y="48"/>
			<point x="548" y="113"/>
			<point x="554" y="165" type="curve"/>
			<point x="544" y="170"/>
			<point x="523" y="172"/>
			<point x="511" y="170" type="curve"/>
			<point x="491" y="98"/>
			<point name=".hr02" x="454" y="42"/>
		</contour>
		<contour>
			<point x="263" y="-51" type="curve" smooth="yes"/>
			<point x="240" y="-51"/>
			<point x="212" y="-72"/>
			<point x="212" y="-89" type="curve" smooth="yes"/>
			<point x="212" y="-114"/>
			<point x="223" y="-129"/>
			<point x="245" y="-134" type="curve" smooth="yes"/>
			<point x="253" y="-136"/>
			<point x="274" y="-137"/>
			<point x="274" y="-157" type="curve" smooth="yes"/>
			<point x="274" y="-175"/>
			<point x="249" y="-199"/>
			<point x="209" y="-210" type="curve"/>
			<point x="205" y="-222"/>
			<point x="205" y="-232"/>
			<point x="215" y="-238" type="curve"/>
			<point x="283" y="-226"/>
			<point x="335" y="-186"/>
			<point x="335" y="-129" type="curve" smooth="yes"/>
			<point x="335" y="-66"/>
			<point x="295" y="-51"/>
		</contour>
	</outline>
</glyph>
<glyph name="uni013C" format="2">
	<unicode hex="013C"/>
	<advance width="325"/>
	<outline>
		<contour>
			<point x="100" y="127" type="line" smooth="yes"/>
			<point x="100" y="44"/>
			<point x="84" y="35"/>
			<point x="23" y="32" type="curve"/>
			<point x="17" y="26"/>
			<point x="17" y="4"/>
			<point x="23" y="-2" type="curve"/>
			<point x="65" y="-1"/>
			<point x="110" y="0"/>
			<point x="165" y="0" type="curve" smooth="yes"/>
			<point x="220" y="0"/>
			<point x="264" y="-1"/>
			<point x="307" y="-2" type="curve"/>
			<point x="313" y="4"/>
			<point x="313" y="26"/>
			<point x="307" y="32" type="curve"/>
			<point x="246" y="35"/>
			<point x="230" y="44"/>
			<point x="230" y="127" type="curve" smooth="yes"/>
			<point x="230" y="583" type="line" smooth="yes"/>
			<point x="230" y="648"/>
			<point x="233" y="685"/>
			<point x="233" y="685" type="curve"/>
			<point x="233" y="694"/>
			<point x="226" y="698"/>
			<point x="217" y="698" type="curve"/>
			<point x="180" y="686"/>
			<point x="100" y="675"/>
			<point x="29" y="672" type="curve"/>
			<point x="26" y="660"/>
			<point x="27" y="649"/>
			<point x="32" y="640" type="curve"/>
			<point x="95" y="635"/>
			<point x="100" y="634"/>
			<point x="100" y="565" type="curve" smooth="yes"/>
		</contour>
		<contour>
			<point x="155" y="-51" type="curve" smooth="yes"/>
			<point x="132" y="-51"/>
			<point x="104" y="-72"/>
			<point x="104" y="-89" type="curve" smooth="yes"/>
			<point x="104" y="-114"/>
			<point x="115" y="-129"/>
			<point x="137" y="-134" type="curve" smooth="yes"/>
			<point x="145" y="-136"/>
			<point name=".hr01" x="166" y="-137"/>
			<point x="166" y="-157" type="curve" smooth="yes"/>
			<point x="166" y="-175"/>
			<point x="141" y="-199"/>
			<point x="101" y="-210" type="curve"/>
			<point x="97" y="-222"/>
			<point x="97" y="-232"/>
			<point x="107" y="-238" type="curve"/>
			<point x="175" y="-226"/>
			<point x="227" y="-186"/>
			<point x="227" y="-129" type="curve" smooth="yes"/>
			<point x="227" y="-66"/>
			<point x="187" y="-51"/>
		</contour>
	</outline>
</glyph>
<glyph name="Lslash" format="2">
	<unicode hex="0141"/>
	<advance width="577"/>
	<outline>
		<contour>
			<point x="349" y="42" type="curve" smooth="yes"/>
			<point x="289" y="42" type="line" smooth="yes"/>
			<point x="268" y="42"/>
			<point x="254" y="61"/>
			<point x="254" y="121" type="curve" smooth="yes"/>
			<point x="254" y="187.304"/>
			<point x="254" y="302.03"/>
			<point x="254" y="358" type="curve"/>
			<point x="286" y="377"/>
			<point x="318" y="396"/>
			<point x="344" y="410" type="curve"/>
			<point x="340.884" y="418.309"/>
			<point x="328.63" y="450.986"/>
			<point x="326" y="458" type="curve"/>
			<point x="305" y="443"/>
			<point x="280" y="427"/>
			<point x="254" y="410" type="curve"/>
			<point x="254" y="423.51"/>
			<point x="254" y="509.49"/>
			<point x="254" y="523" type="curve" smooth="yes"/>
			<point x="254" y="606"/>
			<point x="282" y="610"/>
			<point x="337" y="613" type="curve"/>
			<point x="347" y="619"/>
			<point x="347" y="641"/>
			<point x="337" y="647" type="curve"/>
			<point x="255" y="646"/>
			<point x="225" y="645"/>
			<point x="185" y="645" type="curve" smooth="yes"/>
			<point x="145" y="645"/>
			<point x="31" y="647"/>
			<point x="31" y="647" type="curve"/>
			<point x="21" y="641"/>
			<point x="21" y="619"/>
			<point x="31" y="613" type="curve"/>
			<point x="86" y="610"/>
			<point x="114" y="606"/>
			<point x="114" y="523" type="curve" smooth="yes"/>
			<point x="114" y="467.327"/>
			<point x="114" y="370.996"/>
			<point x="114" y="324" type="curve"/>
			<point x="82" y="306"/>
			<point x="51" y="289"/>
			<point x="25" y="275" type="curve"/>
			<point x="27.7005" y="267.799"/>
			<point x="40.6465" y="233.276"/>
			<point x="43" y="227" type="curve"/>
			<point x="63" y="241"/>
			<point x="88" y="257"/>
			<point x="114" y="273" type="curve"/>
			<point x="114" y="255.873"/>
			<point x="114" y="122"/>
			<point x="114" y="122" type="curve"/>
			<point x="114" y="39"/>
			<point x="86" y="35"/>
			<point x="31" y="32" type="curve"/>
			<point x="21" y="26"/>
			<point x="21" y="4"/>
			<point x="31" y="-2" type="curve"/>
			<point x="31" y="-2"/>
			<point x="146" y="0"/>
			<point x="185" y="0" type="curve" smooth="yes"/>
			<point x="408" y="0" type="line" smooth="yes"/>
			<point x="437" y="0"/>
			<point x="528" y="-2"/>
			<point x="528" y="-2" type="curve"/>
			<point x="538" y="48"/>
			<point x="548" y="113"/>
			<point x="554" y="165" type="curve"/>
			<point x="544" y="170"/>
			<point x="523" y="172"/>
			<point x="511" y="170" type="curve"/>
			<point x="491" y="98"/>
			<point x="454" y="42"/>
		</contour>
	</outline>
</glyph>
<glyph name="lslash" format="2">
	<unicode hex="0142"/>
	<advance width="325"/>
	<outline>
		<contour>
			<point x="230" y="376" type="line"/>
			<point x="259" y="393"/>
			<point x="288" y="410"/>
			<point x="314" y="424" type="curve"/>
			<point x="296" y="472" type="line"/>
			<point x="276" y="458"/>
			<point x="253" y="442"/>
			<point x="230" y="427" type="curve"/>
			<point x="230" y="456.197"/>
			<point name=".hr01" x="230" y="545.461"/>
			<point name=".hr02" x="230" y="583" type="curve" smooth="yes"/>
			<point x="230" y="648"/>
			<point x="233" y="685"/>
			<point x="233" y="685" type="curve"/>
			<point x="233" y="694"/>
			<point x="226" y="698"/>
			<point x="217" y="698" type="curve"/>
			<point x="180" y="686"/>
			<point x="100" y="675"/>
			<point x="29" y="672" type="curve"/>
			<point x="26" y="660"/>
			<point x="27" y="649"/>
			<point x="32" y="640" type="curve"/>
			<point x="95" y="635"/>
			<point x="100" y="634"/>
			<point x="100" y="565" type="curve" smooth="yes"/>
			<point x="100" y="346" type="line"/>
			<point x="70" y="329"/>
			<point x="42" y="312"/>
			<point x="15" y="298" type="curve"/>
			<point x="33" y="250" type="line"/>
			<point x="54" y="264"/>
			<point x="76" y="280"/>
			<point x="100" y="295" type="curve"/>
			<point x="100" y="274.914"/>
			<point x="100" y="147.086"/>
			<point x="100" y="127" type="curve" smooth="yes"/>
			<point x="100" y="44"/>
			<point x="84" y="35"/>
			<point x="23" y="32" type="curve"/>
			<point x="17" y="26"/>
			<point x="17" y="4"/>
			<point x="23" y="-2" type="curve"/>
			<point x="65" y="-1"/>
			<point x="110" y="0"/>
			<point x="165" y="0" type="curve" smooth="yes"/>
			<point x="220" y="0"/>
			<point x="264" y="-1"/>
			<point x="307" y="-2" type="curve"/>
			<point x="313" y="4"/>
			<point x="313" y="26"/>
			<point x="307" y="32" type="curve"/>
			<point x="246" y="35"/>
			<point x="230" y="44"/>
			<point x="230" y="127" type="curve" smooth="yes"/>
		</contour>
	</outline>
</glyph>
<glyph name="uni0145" format="2">
	<unicode hex="0145"/>
	<advance width="740"/>
	<outline>
		<contour>
			<point x="631" y="0" type="curve"/>
			<point x="631" y="0"/>
			<point x="630" y="11"/>
			<point x="629" y="27" type="curve" smooth="yes"/>
			<point x="628" y="50"/>
			<point x="626" y="83"/>
			<point x="626" y="102" type="curve" smooth="yes"/>
			<point x="626" y="512" type="line" smooth="yes"/>
			<point x="626" y="601"/>
			<point x="643" y="606"/>
			<point x="713" y="613" type="curve"/>
			<point x="719" y="619"/>
			<point x="719" y="641"/>
			<point x="713" y="647" type="curve"/>
			<point x="664" y="646"/>
			<point x="647" y="645"/>
			<point x="605" y="645" type="curve" smooth="yes"/>
			<point x="560" y="645"/>
			<point x="539" y="646"/>
			<point x="489" y="647" type="curve"/>
			<point x="483" y="641"/>
			<point x="483" y="619"/>
			<point x="489" y="613" type="curve"/>
			<point x="559" y="606"/>
			<point x="576" y="603"/>
			<point x="576" y="512" type="curve" smooth="yes"/>
			<point x="576" y="231" type="line"/>
			<point x="576" y="231" type="line"/>
			<point x="576" y="214"/>
			<point x="570" y="211"/>
			<point x="562" y="216" type="curve"/>
			<point x="558" y="218"/>
			<point x="554" y="222"/>
			<point x="549" y="228" type="curve" smooth="yes"/>
			<point x="545" y="233"/>
			<point x="540" y="238"/>
			<point x="536" y="244" type="curve"/>
			<point x="284" y="540" type="line"/>
			<point x="195" y="645" type="line"/>
			<point x="32" y="647" type="line"/>
			<point x="26" y="641"/>
			<point x="26" y="619"/>
			<point x="32" y="613" type="curve"/>
			<point x="75" y="610"/>
			<point x="105" y="576"/>
			<point x="111" y="550" type="curve"/>
			<point x="111" y="133" type="line" smooth="yes"/>
			<point x="111" y="44"/>
			<point x="94" y="39"/>
			<point x="24" y="32" type="curve"/>
			<point x="18" y="26"/>
			<point x="18" y="4"/>
			<point x="24" y="-2" type="curve"/>
			<point x="73" y="-1"/>
			<point x="92" y="0"/>
			<point x="136" y="0" type="curve" smooth="yes"/>
			<point x="180" y="0"/>
			<point x="198" y="-1"/>
			<point x="248" y="-2" type="curve"/>
			<point x="254" y="4"/>
			<point x="254" y="26"/>
			<point x="248" y="32" type="curve"/>
			<point x="178" y="39"/>
			<point x="161" y="42"/>
			<point x="161" y="133" type="curve" smooth="yes"/>
			<point x="161" y="430" type="line" smooth="yes"/>
			<point x="161" y="440"/>
			<point x="163" y="450"/>
			<point x="169" y="450" type="curve" smooth="yes"/>
			<point x="174" y="450"/>
			<point x="182" y="443"/>
			<point x="193" y="430" type="curve" smooth="yes"/>
			<point x="528" y="32" type="line"/>
			<point x="541" y="15"/>
			<point x="555" y="1"/>
			<point x="562" y="-6" type="curve" smooth="yes"/>
			<point x="566" y="-10"/>
			<point x="568" y="-12"/>
			<point x="568" y="-12" type="curve"/>
			<point x="603" y="-12"/>
			<point x="613" y="-9"/>
		</contour>
		<contour>
			<point x="354" y="-51" type="curve" smooth="yes"/>
			<point x="331" y="-51"/>
			<point x="303" y="-72"/>
			<point x="303" y="-89" type="curve" smooth="yes"/>
			<point x="303" y="-93"/>
			<point x="303" y="-96"/>
			<point x="304" y="-99" type="curve"/>
			<point x="306" y="-118"/>
			<point x="317" y="-130"/>
			<point x="336" y="-134" type="curve"/>
			<point x="338" y="-134"/>
			<point x="340" y="-135"/>
			<point x="342" y="-135" type="curve"/>
			<point x="352" y="-137"/>
			<point x="365" y="-141"/>
			<point x="365" y="-157" type="curve"/>
			<point x="365" y="-157"/>
			<point x="365" y="-157"/>
			<point x="365" y="-157" type="curve"/>
			<point x="365" y="-175"/>
			<point x="340" y="-199"/>
			<point x="300" y="-210" type="curve"/>
			<point x="296" y="-222"/>
			<point x="296" y="-232"/>
			<point x="306" y="-238" type="curve"/>
			<point x="371" y="-227"/>
			<point x="421" y="-190"/>
			<point x="426" y="-137" type="curve"/>
			<point x="426" y="-135"/>
			<point x="426" y="-132"/>
			<point x="426" y="-129" type="curve" smooth="yes"/>
			<point x="426" y="-66"/>
			<point x="386" y="-51"/>
		</contour>
	</outline>
</glyph>
<glyph name="napostrophe" format="2">
	<unicode hex="0149"/>
	<advance width="565"/>
	<outline>
		<contour>
			<point x="241" y="122" type="curve" smooth="yes"/>
			<point x="241" y="294" type="line" smooth="yes"/>
			<point x="241" y="304"/>
			<point x="241" y="313"/>
			<point x="241" y="323" type="curve"/>
			<point x="281" y="350"/>
			<point x="321" y="370"/>
			<point x="339" y="370" type="curve" smooth="yes"/>
			<point x="349" y="370"/>
			<point x="358" y="369"/>
			<point x="367" y="366" type="curve" smooth="yes"/>
			<point x="379" y="362"/>
			<point x="390" y="355"/>
			<point x="397" y="344" type="curve" smooth="yes"/>
			<point x="405" y="332"/>
			<point x="409" y="316"/>
			<point x="409" y="295" type="curve" smooth="yes"/>
			<point x="409" y="286"/>
			<point x="409" y="276"/>
			<point x="409" y="267" type="curve" smooth="yes"/>
			<point x="409" y="128" type="line" smooth="yes"/>
			<point x="409" y="44"/>
			<point x="393" y="35"/>
			<point x="352" y="32" type="curve"/>
			<point x="346" y="26"/>
			<point x="346" y="4"/>
			<point x="352" y="-2" type="curve"/>
			<point x="394" y="-1"/>
			<point x="426" y="0"/>
			<point x="474" y="0" type="curve" smooth="yes"/>
			<point x="490" y="0" type="line" smooth="yes"/>
			<point x="538" y="0"/>
			<point x="577" y="-1"/>
			<point x="616" y="-2" type="curve"/>
			<point x="622" y="4"/>
			<point x="622" y="26"/>
			<point x="616" y="32" type="curve"/>
			<point x="555" y="35"/>
			<point x="539" y="44"/>
			<point x="539" y="128" type="curve" smooth="yes"/>
			<point x="539" y="270" type="line" smooth="yes"/>
			<point x="539" y="275"/>
			<point x="539" y="279"/>
			<point x="539" y="284" type="curve" smooth="yes"/>
			<point x="539" y="339"/>
			<point x="527" y="379"/>
			<point x="505" y="405" type="curve" smooth="yes"/>
			<point x="482" y="432"/>
			<point x="449" y="444"/>
			<point x="406" y="444" type="curve" smooth="yes"/>
			<point x="369" y="444"/>
			<point x="306" y="407"/>
			<point x="253" y="371" type="curve"/>
			<point x="249" y="368"/>
			<point x="244" y="365"/>
			<point name=".hr01" x="240" y="362" type="curve"/>
			<point x="237" y="397"/>
			<point x="233" y="427"/>
			<point x="233" y="427" type="curve"/>
			<point x="233" y="427"/>
			<point x="233" y="427"/>
			<point x="233" y="427" type="curve"/>
			<point x="232" y="435"/>
			<point x="229" y="440"/>
			<point x="222" y="442" type="curve"/>
			<point x="219" y="443"/>
			<point name=".hr02" x="215" y="444"/>
			<point x="210" y="444" type="curve"/>
			<point x="173" y="434"/>
			<point x="113" y="420"/>
			<point x="44" y="411" type="curve"/>
			<point x="42" y="405"/>
			<point x="44" y="385"/>
			<point x="46" y="379" type="curve"/>
			<point x="101" y="374"/>
			<point x="111" y="366"/>
			<point x="111" y="309" type="curve" smooth="yes"/>
			<point x="111" y="122" type="line" smooth="yes"/>
			<point x="111" y="39"/>
			<point x="100" y="37"/>
			<point x="39" y="32" type="curve"/>
			<point x="33" y="26"/>
			<point x="33" y="4"/>
			<point x="39" y="-2" type="curve"/>
			<point x="77" y="-1"/>
			<point x="115" y="0"/>
			<point x="160" y="0" type="curve" smooth="yes"/>
			<point x="176" y="0" type="line" smooth="yes"/>
			<point x="222" y="0"/>
			<point x="250" y="-1"/>
			<point x="293" y="-2" type="curve"/>
			<point x="299" y="4"/>
			<point x="299" y="26"/>
			<point x="293" y="32" type="curve"/>
			<point x="251" y="36"/>
			<point name=".hr03" x="241" y="39"/>
		</contour>
		<contour>
			<point x="72" y="698" type="curve" smooth="yes"/>
			<point x="36" y="698"/>
			<point x="25" y="680"/>
			<point x="25" y="664" type="curve" smooth="yes"/>
			<point x="25" y="648"/>
			<point x="30" y="623"/>
			<point x="71" y="623" type="curve" smooth="yes"/>
			<point x="78" y="623"/>
			<point x="82" y="615"/>
			<point name=".hr04" x="82" y="605" type="curve" smooth="yes"/>
			<point x="82" y="582"/>
			<point x="64" y="545"/>
			<point x="22" y="536" type="curve"/>
			<point x="26" y="519" type="line"/>
			<point x="117" y="524"/>
			<point x="132" y="599"/>
			<point x="132" y="625" type="curve" smooth="yes"/>
			<point x="132" y="661"/>
			<point x="110" y="698"/>
		</contour>
	</outline>
</glyph>
